<svg width="120" height="120" viewBox="0 0 120 120" fill="none" xmlns="http://www.w3.org/2000/svg">
<g clip-path="url(#clip0_1_2)">
<path opacity="0.45" d="M86.3947 105.087C104.269 105.039 118.753 102.538 118.745 99.5C118.737 96.4624 104.24 94.0391 86.365 94.0873C68.4903 94.1355 54.0066 96.6371 54.0148 99.6746C54.023 102.712 68.52 105.135 86.3947 105.087Z" fill="#FFC8DD"/>
<path opacity="0.3" d="M21.8605 23.5408C13.8449 28.3233 8.42717 33.2861 7.25474 47.9328C6.26669 60.29 7.5904 84.8124 21.4847 88.7014C48.5215 96.2721 73.6484 95.2212 78.5154 74.2694C83.503 52.7844 85.0442 30.6014 69.8995 25.305C59.1869 21.5579 37.5134 14.2058 21.8605 23.5408Z" fill="#FFC8DD"/>
<path d="M27.0605 40.0413H15.7379V36.1066C15.7379 34.6102 16.3343 33.1752 17.396 32.1171C18.4577 31.0591 19.8977 30.4646 21.3992 30.4646C22.9006 30.4646 24.3406 31.0591 25.4023 32.1171C26.464 33.1752 27.0605 34.6102 27.0605 36.1066V40.0413ZM15.9886 39.7915H26.8098V36.1066C26.8098 34.6765 26.2397 33.305 25.2251 32.2938C24.2104 31.2826 22.8342 30.7145 21.3992 30.7145C19.9642 30.7145 18.588 31.2826 17.5733 32.2938C16.5586 33.305 15.9886 34.6765 15.9886 36.1066V39.7915Z" fill="#3F3D56"/>
<path d="M32.7218 40.2172V38.6732L3.91186 39.4452L3 78.5531L7.26381 83.8205L32.7218 40.2172Z" fill="#3F3D56"/>
<path d="M38.383 38.6732L7.24594 39.4L7.91274 83.8205L37.9616 80.4985L38.383 38.6732Z" fill="#6C63FF"/>
<path d="M48.2902 49.618H35.5524V45.6832C35.5524 44.1869 36.2234 42.7519 37.4178 41.6938C38.6122 40.6358 40.2322 40.0413 41.9214 40.0413C43.6105 40.0413 45.2304 40.6358 46.4249 41.6938C47.6193 42.7519 48.2903 44.1869 48.2903 45.6832L48.2902 49.618ZM35.8344 49.3682H48.0082V45.6832C48.0082 44.2532 47.3669 42.8817 46.2254 41.8705C45.0839 40.8593 43.5356 40.2912 41.9213 40.2912C40.3069 40.2912 38.7587 40.8593 37.6172 41.8705C36.4757 42.8817 35.8344 44.2532 35.8344 45.6832V49.3682Z" fill="#CACACA"/>
<path d="M53.9516 48.3323V46.8818L23.7698 47.6072L22.8145 84.3446L27.2813 89.2929L53.9516 48.3323Z" fill="#CACACA"/>
<path d="M59.6129 48.2499L25.6452 48.9107L26.3726 89.2929L59.1533 86.273L59.6129 48.2499Z" fill="#E4E4E4"/>
<path d="M32.3548 53.5758L53.8468 53.0505V81.9394L32.3548 83.5152V53.5758Z" fill="#D9D9D9"/>
<path d="M34 55.4655L52 55V80.6034L34 82V55.4655Z" fill="white"/>
<path d="M38.9352 62.7051C40.2563 62.577 41.4411 63.7916 42.3297 64.5168C42.5914 64.03 42.6077 63.4708 42.9598 63.0172C43.7543 61.9934 45.2174 61.3995 46.4747 61.2863C47.7412 61.1723 47.6904 62.1496 47.6881 63.1509C47.6818 65.8435 47.4199 68.9042 45.9974 71.2578C45.2216 72.5414 44.0682 73.6759 42.6564 74.225C41.9605 74.4956 41.3936 74.6091 40.719 74.2493C39.7912 73.7544 39.2774 72.4089 38.822 71.5497C38.0607 70.1134 37.0282 68.5464 36.7754 66.9085C36.5476 65.4333 36.9623 62.8963 38.9352 62.7051Z" fill="#FFC8DD"/>
<path d="M116.539 10.6793H57V92H116.539V10.6793Z" fill="#BDE0FE"/>
<path opacity="0.08" d="M116.539 10.6793H57V22.2875V33.8958H116.539V10.6793Z" fill="#BDE0FE"/>
<path opacity="0.44" d="M109.805 14.203H63.7376C62.6188 14.203 61.7119 15.2008 61.7119 16.4317V28.1434C61.7119 29.3743 62.6188 30.3721 63.7376 30.3721H109.805C110.924 30.3721 111.831 29.3743 111.831 28.1434V16.4317C111.831 15.2008 110.924 14.203 109.805 14.203Z" fill="white"/>
<path opacity="0.5" d="M72.8626 39.908H61.0847V49.3545H72.8626V39.908Z" fill="#4361EE"/>
<path opacity="0.08" d="M86.1645 39.908H74.3865V49.3545H86.1645V39.908Z" fill="#4361EE"/>
<path opacity="0.08" d="M99.47 39.908H87.6921V49.3545H99.47V39.908Z" fill="#4361EE"/>
<path opacity="0.08" d="M112.776 39.908H100.998V49.3545H112.776V39.908Z" fill="black"/>
<path opacity="0.08" d="M72.8626 51.6644H61.0847V61.111H72.8626V51.6644Z" fill="#4361EE"/>
<path opacity="0.08" d="M86.1645 51.6644H74.3865V61.111H86.1645V51.6644Z" fill="#4361EE"/>
<path opacity="0.08" d="M99.47 51.6644H87.6921V61.111H99.47V51.6644Z" fill="#4361EE"/>
<path opacity="0.08" d="M112.776 51.6644H100.998V61.111H112.776V51.6644Z" fill="#4361EE"/>
<path opacity="0.08" d="M72.8626 63.4209H61.0847V72.8674H72.8626V63.4209Z" fill="#4361EE"/>
<path opacity="0.08" d="M86.1645 63.4209H74.3865V72.8674H86.1645V63.4209Z" fill="#4361EE"/>
<path opacity="0.08" d="M99.47 63.4209H87.6921V72.8674H99.47V63.4209Z" fill="#4361EE"/>
<path opacity="0.5" d="M86.1645 75.1813H61.0847V84.6279H86.1645V75.1813Z" fill="#4361EE"/>
<path opacity="0.08" d="M99.47 75.1813H87.6921V84.6279H99.47V75.1813Z" fill="#4361EE"/>
<path d="M112.776 63.4209H100.998V84.6238H112.776V63.4209Z" fill="#FFD200"/>
<path opacity="0.08" d="M116.543 39.4777H103.647V57.4655H116.543V39.4777Z" fill="#4361EE"/>
<path d="M125 37.3748H105.06V55.3627H125V37.3748Z" fill="#24285B"/>
<path d="M115.447 40.3911C115.742 40.3911 115.816 40.5047 115.816 40.8295V41.5237C116.335 41.5835 116.83 41.7981 117.247 42.1443C117.664 42.4905 117.987 42.9553 118.181 43.4885C118.333 43.8254 118.27 44.0122 117.923 44.1786L117.292 44.4912C116.997 44.6455 116.857 44.5765 116.691 44.2355C116.558 43.884 116.327 43.5885 116.031 43.3926C115.735 43.1967 115.389 43.1108 115.045 43.1475C113.938 43.1475 113.455 43.5007 113.455 44.3085C113.48 44.5547 113.581 44.7837 113.743 44.9563C113.905 45.1289 114.116 45.2343 114.34 45.2544C114.644 45.3289 114.952 45.3805 115.263 45.4087C115.845 45.4414 116.42 45.5658 116.971 45.7781C117.248 45.875 117.505 46.0278 117.731 46.2287C117.958 46.4924 118.134 46.8029 118.251 47.1423C118.367 47.4817 118.421 47.8431 118.41 48.2057C118.41 49.7483 117.473 50.7957 115.827 51.0474V51.7821C115.827 52.1069 115.739 52.2206 115.458 52.2206H114.739C114.443 52.2206 114.34 52.1069 114.34 51.7821V51.0595C113.762 51.0193 113.208 50.791 112.748 50.4035C112.288 50.0161 111.943 49.4871 111.757 48.8836C111.73 48.8205 111.715 48.7512 111.716 48.681C111.716 48.6109 111.731 48.5418 111.76 48.4791C111.788 48.4164 111.83 48.3617 111.88 48.3192C111.931 48.2767 111.99 48.2476 112.052 48.2341L112.683 47.9784C113.004 47.8525 113.145 47.9378 113.285 48.2909C113.57 49.0812 114.148 49.4763 115.019 49.4763C116.203 49.4763 116.794 49.0704 116.794 48.2341C116.803 48.041 116.754 47.8499 116.654 47.6911C116.554 47.5323 116.408 47.4148 116.24 47.3572C115.83 47.1997 115.401 47.1094 114.967 47.0893C114.378 47.0541 113.798 46.9171 113.248 46.6834C112.978 46.5777 112.729 46.4196 112.51 46.2165C112.283 45.9665 112.104 45.6678 111.986 45.3389C111.868 45.01 111.813 44.6579 111.824 44.3045C111.824 42.7781 112.698 41.7591 114.34 41.5196V40.8254C114.34 40.5007 114.443 40.387 114.739 40.387L115.447 40.3911Z" fill="white"/>
<path d="M81.3529 10.6793L105.481 10.6793V7.84573L81.3529 7.84573V10.6793Z" fill="#E6E6E6"/>
<path d="M81.3493 7.83356L102.603 7.83356V5L81.3493 5V7.83356Z" fill="#CCCCCC"/>
</g>
<defs>
<clipPath id="clip0_1_2">
<rect width="120" height="120" fill="white"/>
</clipPath>
</defs>
</svg>
