<svg width="199" height="165" viewBox="0 0 199 165" fill="none" xmlns="http://www.w3.org/2000/svg">
<path d="M182.315 67.1364C179.005 71.0994 175.276 74.6866 171.194 77.8342C155.291 90.1217 135.149 96.7855 115.278 98.1833C105.066 98.9066 94.8043 98.2043 84.7832 96.0964C74.588 93.9444 64.8638 90.1542 55.4462 85.7268C46.2867 81.4197 37.3982 76.5632 28.3 72.1358C28.3969 71.8465 28.4936 71.5572 28.5872 71.2647C38.5081 76.0756 48.2258 81.3774 58.2628 85.9608C67.7192 90.281 77.5077 93.8046 87.7448 95.69C97.959 97.5583 108.383 97.9697 118.711 96.9123C138.527 94.9034 158.685 87.5374 173.92 74.3593C176.78 71.8853 179.425 69.1686 181.824 66.2392C181.989 66.5382 182.153 66.8373 182.315 67.1364Z" fill="#ADB5BD"/>
<path d="M113.465 0.306103C113.442 0.306103 113.418 0.306846 113.395 0.308334C88.9426 1.85185 69.788 22.4164 69.788 47.1257C69.788 71.8352 88.9426 92.3999 113.395 93.943C113.541 93.9529 113.688 93.9322 113.826 93.8824C113.964 93.8325 114.09 93.7545 114.196 93.6532C114.302 93.5536 114.387 93.4329 114.444 93.2988C114.502 93.1647 114.531 93.02 114.531 92.8739V1.37758C114.53 1.09314 114.418 0.820575 114.218 0.619695C114.018 0.418816 113.747 0.306043 113.465 0.306103Z" fill="#ADB5BD"/>
<path d="M150.851 78.3902C150.489 78.3899 150.141 78.2449 149.884 77.987L118.267 46.1315C118.14 46.0041 118.039 45.8526 117.971 45.6856C117.902 45.5187 117.867 45.3397 117.868 45.159V1.37761C117.867 1.18974 117.905 1.00376 117.979 0.831348C118.053 0.658941 118.162 0.503843 118.298 0.375811C118.435 0.246192 118.597 0.146251 118.773 0.0821798C118.95 0.0181084 119.138 -0.00872728 119.325 0.00332739C143.937 1.55682 163.217 22.2555 163.217 47.1257C163.218 58.4227 159.198 69.3455 151.888 77.9112C151.765 78.0547 151.614 78.1712 151.444 78.2535C151.275 78.3357 151.09 78.382 150.902 78.3894C150.885 78.39 150.868 78.3903 150.851 78.3902Z" fill="#ADB5BD"/>
<path d="M119.238 94.251C118.889 94.2507 118.553 94.1168 118.299 93.8764C118.162 93.7483 118.053 93.593 117.979 93.4204C117.905 93.2478 117.867 93.0616 117.868 92.8736V53.3713C117.868 53.0993 117.948 52.8334 118.098 52.6073C118.248 52.3811 118.461 52.2048 118.71 52.1008C118.96 51.9967 119.234 51.9694 119.499 52.0225C119.764 52.0755 120.007 52.2064 120.198 52.3987L147.787 80.1966C147.919 80.3288 148.022 80.4864 148.09 80.66C148.159 80.8336 148.192 81.0194 148.187 81.2062C148.182 81.3929 148.14 81.5768 148.062 81.7465C147.985 81.9163 147.874 82.0684 147.736 82.1936C139.881 89.3187 129.871 93.5659 119.323 94.2483C119.295 94.2501 119.266 94.251 119.238 94.251Z" fill="#0EBAC5"/>
<path d="M192.252 95.1277C187.825 103.037 181.576 110.012 174.42 115.542C158.517 127.829 138.375 134.493 118.505 135.891C108.293 136.614 98.0305 135.912 88.0095 133.804C77.8143 131.652 68.0901 127.862 58.6725 123.434C49.084 118.926 39.789 113.812 30.2422 109.219C20.7053 104.629 10.9037 100.716 0.634277 98.154C1.38603 98.0207 2.11527 97.8745 2.82496 97.7087C3.49606 97.8842 4.165 98.0662 4.8318 98.2548C24.9123 103.911 42.6345 115.057 61.4891 123.668C70.9455 127.988 80.734 131.512 90.9711 133.398C101.185 135.266 111.609 135.677 121.937 134.62C141.753 132.611 161.911 125.245 177.146 112.067C183.176 106.873 188.201 100.602 191.968 93.5674C192.071 94.0875 192.165 94.6076 192.252 95.1277Z" fill="#ADB5BD"/>
<path d="M108.927 143.689H78.9886C78.5571 143.689 78.1432 143.516 77.8381 143.209C77.533 142.901 77.3616 142.484 77.3616 142.049C77.3616 141.615 77.533 141.198 77.8381 140.89C78.1432 140.583 78.5571 140.41 78.9886 140.41H108.927C109.358 140.41 109.772 140.583 110.077 140.89C110.382 141.198 110.554 141.615 110.554 142.049C110.554 142.484 110.382 142.901 110.077 143.209C109.772 143.516 109.358 143.689 108.927 143.689Z" fill="#ADB5BD"/>
<path d="M70.0398 145.328C69.364 145.328 68.7034 145.126 68.1415 144.748C67.5796 144.37 67.1417 143.832 66.8831 143.203C66.6245 142.574 66.5568 141.882 66.6886 141.214C66.8205 140.546 67.1459 139.933 67.6237 139.451C68.1016 138.97 68.7104 138.642 69.3732 138.509C70.036 138.376 70.723 138.444 71.3474 138.705C71.9717 138.965 72.5053 139.407 72.8808 139.973C73.2562 140.539 73.4566 141.205 73.4566 141.885C73.4556 142.798 73.0953 143.673 72.4547 144.319C71.8142 144.964 70.9457 145.327 70.0398 145.328Z" fill="#3F3D56"/>
<path d="M108.927 153.525H78.9886C78.5571 153.525 78.1432 153.352 77.8381 153.045C77.533 152.737 77.3616 152.32 77.3616 151.885C77.3616 151.451 77.533 151.034 77.8381 150.726C78.1432 150.419 78.5571 150.246 78.9886 150.246H108.927C109.358 150.246 109.772 150.419 110.077 150.726C110.382 151.034 110.554 151.451 110.554 151.885C110.554 152.32 110.382 152.737 110.077 153.045C109.772 153.352 109.358 153.525 108.927 153.525Z" fill="#ADB5BD"/>
<path d="M70.0398 155.164C69.364 155.164 68.7034 154.962 68.1415 154.584C67.5796 154.206 67.1417 153.668 66.8831 153.039C66.6244 152.41 66.5568 151.718 66.6886 151.05C66.8204 150.382 67.1459 149.769 67.6237 149.287C68.1016 148.806 68.7104 148.478 69.3732 148.345C70.036 148.212 70.723 148.28 71.3474 148.541C71.9717 148.801 72.5053 149.243 72.8808 149.809C73.2562 150.375 73.4566 151.041 73.4566 151.721C73.4556 152.634 73.0953 153.509 72.4547 154.155C71.8142 154.8 70.9457 155.163 70.0398 155.164Z" fill="#3F3D56"/>
<path d="M108.927 163.361H78.9886C78.5571 163.361 78.1432 163.188 77.8381 162.881C77.533 162.573 77.3616 162.156 77.3616 161.721C77.3616 161.287 77.533 160.87 77.8381 160.562C78.1432 160.255 78.5571 160.082 78.9886 160.082H108.927C109.358 160.082 109.772 160.255 110.077 160.562C110.382 160.87 110.554 161.287 110.554 161.721C110.554 162.156 110.382 162.573 110.077 162.881C109.772 163.188 109.358 163.361 108.927 163.361Z" fill="#ADB5BD"/>
<path d="M70.0398 165C69.364 165 68.7034 164.798 68.1415 164.42C67.5796 164.042 67.1417 163.504 66.8831 162.875C66.6245 162.246 66.5568 161.554 66.6886 160.886C66.8205 160.218 67.1459 159.605 67.6237 159.123C68.1016 158.642 68.7104 158.314 69.3732 158.181C70.036 158.048 70.723 158.116 71.3474 158.377C71.9717 158.637 72.5053 159.079 72.8808 159.645C73.2562 160.211 73.4566 160.877 73.4566 161.557C73.4556 162.47 73.0953 163.345 72.4547 163.991C71.8142 164.636 70.9457 164.999 70.0398 165Z" fill="#3F3D56"/>
<path d="M117.528 151.841H129.894C129.98 151.841 130.063 151.807 130.124 151.745C130.185 151.684 130.219 151.6 130.219 151.513V74.4908C130.219 74.4039 130.185 74.3205 130.124 74.259C130.063 74.1975 129.98 74.163 129.894 74.163C129.807 74.163 129.725 74.1975 129.664 74.259C129.603 74.3205 129.568 74.4039 129.568 74.4908V151.185H117.528C117.485 151.185 117.443 151.194 117.403 151.21C117.364 151.226 117.328 151.251 117.297 151.281C117.267 151.312 117.243 151.348 117.226 151.388C117.21 151.427 117.201 151.47 117.201 151.513C117.201 151.556 117.21 151.599 117.226 151.639C117.243 151.679 117.267 151.715 117.297 151.746C117.328 151.776 117.364 151.8 117.403 151.817C117.443 151.833 117.485 151.841 117.528 151.841Z" fill="#3F3D56"/>
<path d="M170.515 24.1498C169.688 24.2169 168.86 24.0355 168.136 23.6284C167.411 23.2214 166.823 22.607 166.445 21.863C166.067 21.1191 165.916 20.2788 166.012 19.4487C166.108 18.6185 166.446 17.8356 166.984 17.1991C167.522 16.5625 168.234 16.1009 169.032 15.8726C169.83 15.6442 170.678 15.6594 171.467 15.9162C172.256 16.173 172.953 16.6599 173.467 17.3153C173.982 17.9707 174.292 18.7652 174.359 19.5983C174.448 20.7154 174.093 21.8226 173.373 22.6761C172.652 23.5297 171.624 24.0598 170.515 24.1498ZM170.463 23.5018C171.163 23.445 171.83 23.1804 172.381 22.7416C172.931 22.3027 173.34 21.7093 173.556 21.0363C173.771 20.3633 173.784 19.641 173.592 18.9607C173.4 18.2804 173.013 17.6727 172.478 17.2143C171.944 16.756 171.286 16.4678 170.589 16.3859C169.892 16.3041 169.186 16.4324 168.561 16.7546C167.936 17.0769 167.42 17.5785 167.079 18.1962C166.737 18.8139 166.584 19.5198 166.641 20.2247C166.678 20.6928 166.807 21.1488 167.019 21.5668C167.231 21.9848 167.523 22.3566 167.878 22.6609C168.233 22.9652 168.644 23.1961 169.088 23.3404C169.531 23.4846 169.999 23.5395 170.463 23.5018Z" fill="#ADB5BD"/>
<path d="M184.957 13.3067C186.383 13.3067 187.538 12.1424 187.538 10.7062C187.538 9.26994 186.383 8.10565 184.957 8.10565C183.532 8.10565 182.376 9.26994 182.376 10.7062C182.376 12.1424 183.532 13.3067 184.957 13.3067Z" fill="#ADB5BD"/>
<path d="M197.644 3.90207C198.393 3.90207 199 3.29048 199 2.53604C199 1.7816 198.393 1.17001 197.644 1.17001C196.895 1.17001 196.288 1.7816 196.288 2.53604C196.288 3.29048 196.895 3.90207 197.644 3.90207Z" fill="#ADB5BD"/>
<path d="M150.808 107.327C150.35 108.025 149.698 108.57 148.933 108.894C148.169 109.217 147.326 109.305 146.511 109.147C145.697 108.988 144.947 108.589 144.358 108.001C143.768 107.413 143.365 106.662 143.199 105.844C143.033 105.025 143.112 104.175 143.425 103.401C143.739 102.627 144.273 101.964 144.96 101.496C145.648 101.028 146.457 100.776 147.287 100.772C148.116 100.768 148.928 101.011 149.62 101.472C150.548 102.091 151.193 103.055 151.416 104.152C151.638 105.25 151.42 106.392 150.808 107.327ZM144.347 103.027C143.96 103.617 143.756 104.309 143.759 105.016C143.763 105.723 143.975 106.414 144.368 107C144.761 107.586 145.317 108.041 145.967 108.308C146.617 108.576 147.331 108.643 148.019 108.501C148.706 108.36 149.337 108.016 149.831 107.513C150.324 107.011 150.659 106.372 150.793 105.677C150.926 104.983 150.852 104.264 150.58 103.612C150.308 102.96 149.85 102.404 149.265 102.015C148.479 101.493 147.52 101.306 146.598 101.496C145.676 101.686 144.867 102.236 144.347 103.027Z" fill="#ADB5BD"/>
<path d="M155.832 122.869C157.258 122.869 158.413 121.705 158.413 120.268C158.413 118.832 157.258 117.668 155.832 117.668C154.407 117.668 153.251 118.832 153.251 120.268C153.251 121.705 154.407 122.869 155.832 122.869Z" fill="#ADB5BD"/>
<path d="M163.032 134.958C163.781 134.958 164.388 134.347 164.388 133.592C164.388 132.838 163.781 132.226 163.032 132.226C162.283 132.226 161.676 132.838 161.676 133.592C161.676 134.347 162.283 134.958 163.032 134.958Z" fill="#ADB5BD"/>
<path d="M46.6631 36.3538C46.294 35.6054 46.1534 34.7634 46.2592 33.9344C46.3649 33.1055 46.7123 32.3267 47.2573 31.6967C47.8024 31.0666 48.5206 30.6135 49.3213 30.3948C50.1219 30.176 50.9689 30.2013 51.7552 30.4676C52.5415 30.7338 53.2318 31.229 53.7388 31.8905C54.2458 32.5521 54.5467 33.3502 54.6035 34.184C54.6603 35.0179 54.4704 35.8499 54.0578 36.575C53.6452 37.3001 53.0285 37.8856 52.2856 38.2576C51.2893 38.7551 50.1377 38.834 49.0836 38.4771C48.0296 38.1202 47.1591 37.3566 46.6631 36.3538ZM53.5973 32.882C53.2849 32.2487 52.7932 31.7229 52.1842 31.3712C51.5753 31.0194 50.8765 30.8575 50.1762 30.9059C49.4759 30.9543 48.8057 31.2109 48.2501 31.6431C47.6945 32.0753 47.2787 32.6638 47.0551 33.3342C46.8315 34.0046 46.8102 34.7267 46.9939 35.4092C47.1776 36.0918 47.5581 36.7041 48.0873 37.1688C48.6164 37.6335 49.2704 37.9296 49.9666 38.0198C50.6628 38.1099 51.3699 37.9901 51.9985 37.6754C52.8406 37.2525 53.4819 36.5104 53.7816 35.6118C54.0813 34.7132 54.015 33.7314 53.5973 32.882Z" fill="#ADB5BD"/>
<path d="M33.0319 36.8393C34.4574 36.8393 35.6129 35.675 35.6129 34.2388C35.6129 32.8025 34.4574 31.6382 33.0319 31.6382C31.6064 31.6382 30.4508 32.8025 30.4508 34.2388C30.4508 35.675 31.6064 36.8393 33.0319 36.8393Z" fill="#ADB5BD"/>
<path d="M17.9805 35.193C18.7293 35.193 19.3363 34.5815 19.3363 33.827C19.3363 33.0726 18.7293 32.461 17.9805 32.461C17.2317 32.461 16.6247 33.0726 16.6247 33.827C16.6247 34.5815 17.2317 35.193 17.9805 35.193Z" fill="#ADB5BD"/>
</svg>
