<svg width="190" height="168" viewBox="0 0 190 168" fill="none" xmlns="http://www.w3.org/2000/svg">
<path d="M2.72675 5.36016C4.11027 5.36016 5.23183 4.31232 5.23183 3.01976C5.23183 1.72719 4.11027 0.679352 2.72675 0.679352C1.34324 0.679352 0.22168 1.72719 0.22168 3.01976C0.22168 4.31232 1.34324 5.36016 2.72675 5.36016Z" fill="#ADB5BD"/>
<path d="M15.4074 5.36016C16.7909 5.36016 17.9125 4.31232 17.9125 3.01976C17.9125 1.72719 16.7909 0.679352 15.4074 0.679352C14.0239 0.679352 12.9023 1.72719 12.9023 3.01976C12.9023 4.31232 14.0239 5.36016 15.4074 5.36016Z" fill="#ADB5BD"/>
<path d="M28.0881 5.36016C29.4716 5.36016 30.5932 4.31232 30.5932 3.01976C30.5932 1.72719 29.4716 0.679352 28.0881 0.679352C26.7046 0.679352 25.583 1.72719 25.583 3.01976C25.583 4.31232 26.7046 5.36016 28.0881 5.36016Z" fill="#ADB5BD"/>
<path d="M40.7687 5.36016C42.1522 5.36016 43.2738 4.31232 43.2738 3.01976C43.2738 1.72719 42.1522 0.679352 40.7687 0.679352C39.3852 0.679352 38.2636 1.72719 38.2636 3.01976C38.2636 4.31232 39.3852 5.36016 40.7687 5.36016Z" fill="#ADB5BD"/>
<path d="M53.4493 5.36016C54.8329 5.36016 55.9544 4.31232 55.9544 3.01976C55.9544 1.72719 54.8329 0.679352 53.4493 0.679352C52.0658 0.679352 50.9443 1.72719 50.9443 3.01976C50.9443 4.31232 52.0658 5.36016 53.4493 5.36016Z" fill="#ADB5BD"/>
<path d="M66.13 5.36016C67.5135 5.36016 68.6351 4.31232 68.6351 3.01976C68.6351 1.72719 67.5135 0.679352 66.13 0.679352C64.7465 0.679352 63.6249 1.72719 63.6249 3.01976C63.6249 4.31232 64.7465 5.36016 66.13 5.36016Z" fill="#ADB5BD"/>
<path d="M78.8106 5.36016C80.1941 5.36016 81.3157 4.31232 81.3157 3.01976C81.3157 1.72719 80.1941 0.679352 78.8106 0.679352C77.4271 0.679352 76.3055 1.72719 76.3055 3.01976C76.3055 4.31232 77.4271 5.36016 78.8106 5.36016Z" fill="#ADB5BD"/>
<path d="M91.4913 5.36016C92.8748 5.36016 93.9964 4.31232 93.9964 3.01976C93.9964 1.72719 92.8748 0.679352 91.4913 0.679352C90.1078 0.679352 88.9862 1.72719 88.9862 3.01976C88.9862 4.31232 90.1078 5.36016 91.4913 5.36016Z" fill="#ADB5BD"/>
<path d="M104.172 5.36016C105.555 5.36016 106.677 4.31232 106.677 3.01976C106.677 1.72719 105.555 0.679352 104.172 0.679352C102.788 0.679352 101.667 1.72719 101.667 3.01976C101.667 4.31232 102.788 5.36016 104.172 5.36016Z" fill="#ADB5BD"/>
<path d="M116.853 5.36016C118.236 5.36016 119.358 4.31232 119.358 3.01976C119.358 1.72719 118.236 0.679352 116.853 0.679352C115.469 0.679352 114.348 1.72719 114.348 3.01976C114.348 4.31232 115.469 5.36016 116.853 5.36016Z" fill="#ADB5BD"/>
<path d="M2.72675 17.356C4.11027 17.356 5.23183 16.3081 5.23183 15.0156C5.23183 13.723 4.11027 12.6752 2.72675 12.6752C1.34324 12.6752 0.22168 13.723 0.22168 15.0156C0.22168 16.3081 1.34324 17.356 2.72675 17.356Z" fill="#ADB5BD"/>
<path d="M15.4074 17.356C16.7909 17.356 17.9125 16.3081 17.9125 15.0156C17.9125 13.723 16.7909 12.6752 15.4074 12.6752C14.0239 12.6752 12.9023 13.723 12.9023 15.0156C12.9023 16.3081 14.0239 17.356 15.4074 17.356Z" fill="#ADB5BD"/>
<path d="M28.0881 17.356C29.4716 17.356 30.5932 16.3081 30.5932 15.0156C30.5932 13.723 29.4716 12.6752 28.0881 12.6752C26.7046 12.6752 25.583 13.723 25.583 15.0156C25.583 16.3081 26.7046 17.356 28.0881 17.356Z" fill="#ADB5BD"/>
<path d="M40.7687 17.356C42.1522 17.356 43.2738 16.3081 43.2738 15.0156C43.2738 13.723 42.1522 12.6752 40.7687 12.6752C39.3852 12.6752 38.2636 13.723 38.2636 15.0156C38.2636 16.3081 39.3852 17.356 40.7687 17.356Z" fill="#0EBAC5"/>
<path d="M53.4493 17.356C54.8329 17.356 55.9544 16.3081 55.9544 15.0156C55.9544 13.723 54.8329 12.6752 53.4493 12.6752C52.0658 12.6752 50.9443 13.723 50.9443 15.0156C50.9443 16.3081 52.0658 17.356 53.4493 17.356Z" fill="#ADB5BD"/>
<path d="M66.13 17.356C67.5135 17.356 68.6351 16.3081 68.6351 15.0156C68.6351 13.723 67.5135 12.6752 66.13 12.6752C64.7465 12.6752 63.6249 13.723 63.6249 15.0156C63.6249 16.3081 64.7465 17.356 66.13 17.356Z" fill="#ADB5BD"/>
<path d="M78.8106 17.356C80.1941 17.356 81.3157 16.3081 81.3157 15.0156C81.3157 13.723 80.1941 12.6752 78.8106 12.6752C77.4271 12.6752 76.3055 13.723 76.3055 15.0156C76.3055 16.3081 77.4271 17.356 78.8106 17.356Z" fill="#ADB5BD"/>
<path d="M91.4913 17.356C92.8748 17.356 93.9964 16.3081 93.9964 15.0156C93.9964 13.723 92.8748 12.6752 91.4913 12.6752C90.1078 12.6752 88.9862 13.723 88.9862 15.0156C88.9862 16.3081 90.1078 17.356 91.4913 17.356Z" fill="#ADB5BD"/>
<path d="M104.172 17.356C105.555 17.356 106.677 16.3081 106.677 15.0156C106.677 13.723 105.555 12.6752 104.172 12.6752C102.788 12.6752 101.667 13.723 101.667 15.0156C101.667 16.3081 102.788 17.356 104.172 17.356Z" fill="#ADB5BD"/>
<path d="M116.853 17.356C118.236 17.356 119.358 16.3081 119.358 15.0156C119.358 13.723 118.236 12.6752 116.853 12.6752C115.469 12.6752 114.348 13.723 114.348 15.0156C114.348 16.3081 115.469 17.356 116.853 17.356Z" fill="#ADB5BD"/>
<path d="M2.72675 29.3518C4.11027 29.3518 5.23183 28.3039 5.23183 27.0113C5.23183 25.7188 4.11027 24.6709 2.72675 24.6709C1.34324 24.6709 0.22168 25.7188 0.22168 27.0113C0.22168 28.3039 1.34324 29.3518 2.72675 29.3518Z" fill="#ADB5BD"/>
<path d="M15.4074 29.3518C16.7909 29.3518 17.9125 28.3039 17.9125 27.0113C17.9125 25.7188 16.7909 24.6709 15.4074 24.6709C14.0239 24.6709 12.9023 25.7188 12.9023 27.0113C12.9023 28.3039 14.0239 29.3518 15.4074 29.3518Z" fill="#ADB5BD"/>
<path d="M28.0881 29.3518C29.4716 29.3518 30.5932 28.3039 30.5932 27.0113C30.5932 25.7188 29.4716 24.6709 28.0881 24.6709C26.7046 24.6709 25.583 25.7188 25.583 27.0113C25.583 28.3039 26.7046 29.3518 28.0881 29.3518Z" fill="#ADB5BD"/>
<path d="M40.7687 29.3518C42.1522 29.3518 43.2738 28.3039 43.2738 27.0113C43.2738 25.7188 42.1522 24.6709 40.7687 24.6709C39.3852 24.6709 38.2636 25.7188 38.2636 27.0113C38.2636 28.3039 39.3852 29.3518 40.7687 29.3518Z" fill="#ADB5BD"/>
<path d="M53.4493 29.3518C54.8329 29.3518 55.9544 28.3039 55.9544 27.0113C55.9544 25.7188 54.8329 24.6709 53.4493 24.6709C52.0658 24.6709 50.9443 25.7188 50.9443 27.0113C50.9443 28.3039 52.0658 29.3518 53.4493 29.3518Z" fill="#ADB5BD"/>
<path d="M66.13 29.3518C67.5135 29.3518 68.6351 28.3039 68.6351 27.0113C68.6351 25.7188 67.5135 24.6709 66.13 24.6709C64.7465 24.6709 63.6249 25.7188 63.6249 27.0113C63.6249 28.3039 64.7465 29.3518 66.13 29.3518Z" fill="#E6E6E6"/>
<path d="M78.8106 29.3518C80.1941 29.3518 81.3157 28.3039 81.3157 27.0113C81.3157 25.7188 80.1941 24.6709 78.8106 24.6709C77.4271 24.6709 76.3055 25.7188 76.3055 27.0113C76.3055 28.3039 77.4271 29.3518 78.8106 29.3518Z" fill="#E6E6E6"/>
<path d="M91.4913 29.3518C92.8748 29.3518 93.9964 28.3039 93.9964 27.0113C93.9964 25.7188 92.8748 24.6709 91.4913 24.6709C90.1078 24.6709 88.9862 25.7188 88.9862 27.0113C88.9862 28.3039 90.1078 29.3518 91.4913 29.3518Z" fill="#E6E6E6"/>
<path d="M104.172 29.3518C105.555 29.3518 106.677 28.3039 106.677 27.0113C106.677 25.7188 105.555 24.6709 104.172 24.6709C102.788 24.6709 101.667 25.7188 101.667 27.0113C101.667 28.3039 102.788 29.3518 104.172 29.3518Z" fill="#E6E6E6"/>
<path d="M116.853 29.3518C118.236 29.3518 119.358 28.3039 119.358 27.0113C119.358 25.7188 118.236 24.6709 116.853 24.6709C115.469 24.6709 114.348 25.7188 114.348 27.0113C114.348 28.3039 115.469 29.3518 116.853 29.3518Z" fill="#E6E6E6"/>
<path d="M2.72675 41.3476C4.11027 41.3476 5.23183 40.2997 5.23183 39.0072C5.23183 37.7146 4.11027 36.6667 2.72675 36.6667C1.34324 36.6667 0.22168 37.7146 0.22168 39.0072C0.22168 40.2997 1.34324 41.3476 2.72675 41.3476Z" fill="#ADB5BD"/>
<path d="M15.4074 41.3476C16.7909 41.3476 17.9125 40.2997 17.9125 39.0072C17.9125 37.7146 16.7909 36.6667 15.4074 36.6667C14.0239 36.6667 12.9023 37.7146 12.9023 39.0072C12.9023 40.2997 14.0239 41.3476 15.4074 41.3476Z" fill="#ADB5BD"/>
<path d="M28.0881 41.3476C29.4716 41.3476 30.5932 40.2997 30.5932 39.0072C30.5932 37.7146 29.4716 36.6667 28.0881 36.6667C26.7046 36.6667 25.583 37.7146 25.583 39.0072C25.583 40.2997 26.7046 41.3476 28.0881 41.3476Z" fill="#ADB5BD"/>
<path d="M40.7687 41.3476C42.1522 41.3476 43.2738 40.2997 43.2738 39.0072C43.2738 37.7146 42.1522 36.6667 40.7687 36.6667C39.3852 36.6667 38.2636 37.7146 38.2636 39.0072C38.2636 40.2997 39.3852 41.3476 40.7687 41.3476Z" fill="#ADB5BD"/>
<path d="M53.4493 41.3476C54.8329 41.3476 55.9544 40.2997 55.9544 39.0072C55.9544 37.7146 54.8329 36.6667 53.4493 36.6667C52.0658 36.6667 50.9443 37.7146 50.9443 39.0072C50.9443 40.2997 52.0658 41.3476 53.4493 41.3476Z" fill="#ADB5BD"/>
<path d="M66.13 41.3476C67.5135 41.3476 68.6351 40.2997 68.6351 39.0072C68.6351 37.7146 67.5135 36.6667 66.13 36.6667C64.7465 36.6667 63.6249 37.7146 63.6249 39.0072C63.6249 40.2997 64.7465 41.3476 66.13 41.3476Z" fill="#E6E6E6"/>
<path d="M78.8106 41.3476C80.1941 41.3476 81.3157 40.2997 81.3157 39.0072C81.3157 37.7146 80.1941 36.6667 78.8106 36.6667C77.4271 36.6667 76.3055 37.7146 76.3055 39.0072C76.3055 40.2997 77.4271 41.3476 78.8106 41.3476Z" fill="#E6E6E6"/>
<path d="M91.4913 41.3476C92.8748 41.3476 93.9964 40.2997 93.9964 39.0072C93.9964 37.7146 92.8748 36.6667 91.4913 36.6667C90.1078 36.6667 88.9862 37.7146 88.9862 39.0072C88.9862 40.2997 90.1078 41.3476 91.4913 41.3476Z" fill="#E6E6E6"/>
<path d="M104.172 41.3476C105.555 41.3476 106.677 40.2997 106.677 39.0072C106.677 37.7146 105.555 36.6667 104.172 36.6667C102.788 36.6667 101.667 37.7146 101.667 39.0072C101.667 40.2997 102.788 41.3476 104.172 41.3476Z" fill="#E6E6E6"/>
<path d="M116.853 41.3476C118.236 41.3476 119.358 40.2997 119.358 39.0072C119.358 37.7146 118.236 36.6667 116.853 36.6667C115.469 36.6667 114.348 37.7146 114.348 39.0072C114.348 40.2997 115.469 41.3476 116.853 41.3476Z" fill="#E6E6E6"/>
<path d="M2.72675 53.3433C4.11027 53.3433 5.23183 52.2955 5.23183 51.0029C5.23183 49.7104 4.11027 48.6625 2.72675 48.6625C1.34324 48.6625 0.22168 49.7104 0.22168 51.0029C0.22168 52.2955 1.34324 53.3433 2.72675 53.3433Z" fill="#ADB5BD"/>
<path d="M15.4074 53.3433C16.7909 53.3433 17.9125 52.2955 17.9125 51.0029C17.9125 49.7104 16.7909 48.6625 15.4074 48.6625C14.0239 48.6625 12.9023 49.7104 12.9023 51.0029C12.9023 52.2955 14.0239 53.3433 15.4074 53.3433Z" fill="#0EBAC5"/>
<path d="M28.0881 53.3433C29.4716 53.3433 30.5932 52.2955 30.5932 51.0029C30.5932 49.7104 29.4716 48.6625 28.0881 48.6625C26.7046 48.6625 25.583 49.7104 25.583 51.0029C25.583 52.2955 26.7046 53.3433 28.0881 53.3433Z" fill="#ADB5BD"/>
<path d="M40.7687 53.3433C42.1522 53.3433 43.2738 52.2955 43.2738 51.0029C43.2738 49.7104 42.1522 48.6625 40.7687 48.6625C39.3852 48.6625 38.2636 49.7104 38.2636 51.0029C38.2636 52.2955 39.3852 53.3433 40.7687 53.3433Z" fill="#ADB5BD"/>
<path d="M53.4493 53.3433C54.8329 53.3433 55.9544 52.2955 55.9544 51.0029C55.9544 49.7104 54.8329 48.6625 53.4493 48.6625C52.0658 48.6625 50.9443 49.7104 50.9443 51.0029C50.9443 52.2955 52.0658 53.3433 53.4493 53.3433Z" fill="#ADB5BD"/>
<path d="M66.13 53.3433C67.5135 53.3433 68.6351 52.2955 68.6351 51.0029C68.6351 49.7104 67.5135 48.6625 66.13 48.6625C64.7465 48.6625 63.6249 49.7104 63.6249 51.0029C63.6249 52.2955 64.7465 53.3433 66.13 53.3433Z" fill="#E6E6E6"/>
<path d="M78.8106 53.3433C80.1941 53.3433 81.3157 52.2955 81.3157 51.0029C81.3157 49.7104 80.1941 48.6625 78.8106 48.6625C77.4271 48.6625 76.3055 49.7104 76.3055 51.0029C76.3055 52.2955 77.4271 53.3433 78.8106 53.3433Z" fill="#E6E6E6"/>
<path d="M91.4913 53.3433C92.8748 53.3433 93.9964 52.2955 93.9964 51.0029C93.9964 49.7104 92.8748 48.6625 91.4913 48.6625C90.1078 48.6625 88.9862 49.7104 88.9862 51.0029C88.9862 52.2955 90.1078 53.3433 91.4913 53.3433Z" fill="#E6E6E6"/>
<path d="M104.172 53.3433C105.555 53.3433 106.677 52.2955 106.677 51.0029C106.677 49.7104 105.555 48.6625 104.172 48.6625C102.788 48.6625 101.667 49.7104 101.667 51.0029C101.667 52.2955 102.788 53.3433 104.172 53.3433Z" fill="#E6E6E6"/>
<path d="M116.853 53.3433C118.236 53.3433 119.358 52.2955 119.358 51.0029C119.358 49.7104 118.236 48.6625 116.853 48.6625C115.469 48.6625 114.348 49.7104 114.348 51.0029C114.348 52.2955 115.469 53.3433 116.853 53.3433Z" fill="#E6E6E6"/>
<path d="M2.72675 65.3391C4.11027 65.3391 5.23183 64.2913 5.23183 62.9987C5.23183 61.7062 4.11027 60.6583 2.72675 60.6583C1.34324 60.6583 0.22168 61.7062 0.22168 62.9987C0.22168 64.2913 1.34324 65.3391 2.72675 65.3391Z" fill="#ADB5BD"/>
<path d="M15.4074 65.3391C16.7909 65.3391 17.9125 64.2913 17.9125 62.9987C17.9125 61.7062 16.7909 60.6583 15.4074 60.6583C14.0239 60.6583 12.9023 61.7062 12.9023 62.9987C12.9023 64.2913 14.0239 65.3391 15.4074 65.3391Z" fill="#ADB5BD"/>
<path d="M28.0881 65.3391C29.4716 65.3391 30.5932 64.2913 30.5932 62.9987C30.5932 61.7062 29.4716 60.6583 28.0881 60.6583C26.7046 60.6583 25.583 61.7062 25.583 62.9987C25.583 64.2913 26.7046 65.3391 28.0881 65.3391Z" fill="#ADB5BD"/>
<path d="M40.7687 65.3391C42.1522 65.3391 43.2738 64.2913 43.2738 62.9987C43.2738 61.7062 42.1522 60.6583 40.7687 60.6583C39.3852 60.6583 38.2636 61.7062 38.2636 62.9987C38.2636 64.2913 39.3852 65.3391 40.7687 65.3391Z" fill="#ADB5BD"/>
<path d="M53.4493 65.3391C54.8329 65.3391 55.9544 64.2913 55.9544 62.9987C55.9544 61.7062 54.8329 60.6583 53.4493 60.6583C52.0658 60.6583 50.9443 61.7062 50.9443 62.9987C50.9443 64.2913 52.0658 65.3391 53.4493 65.3391Z" fill="#ADB5BD"/>
<path d="M66.13 65.3391C67.5135 65.3391 68.6351 64.2913 68.6351 62.9987C68.6351 61.7062 67.5135 60.6583 66.13 60.6583C64.7465 60.6583 63.6249 61.7062 63.6249 62.9987C63.6249 64.2913 64.7465 65.3391 66.13 65.3391Z" fill="#E6E6E6"/>
<path d="M78.8106 65.3391C80.1941 65.3391 81.3157 64.2913 81.3157 62.9987C81.3157 61.7062 80.1941 60.6583 78.8106 60.6583C77.4271 60.6583 76.3055 61.7062 76.3055 62.9987C76.3055 64.2913 77.4271 65.3391 78.8106 65.3391Z" fill="#E6E6E6"/>
<path d="M91.4913 65.3391C92.8748 65.3391 93.9964 64.2913 93.9964 62.9987C93.9964 61.7062 92.8748 60.6583 91.4913 60.6583C90.1078 60.6583 88.9862 61.7062 88.9862 62.9987C88.9862 64.2913 90.1078 65.3391 91.4913 65.3391Z" fill="#E6E6E6"/>
<path d="M104.172 65.3391C105.555 65.3391 106.677 64.2913 106.677 62.9987C106.677 61.7062 105.555 60.6583 104.172 60.6583C102.788 60.6583 101.667 61.7062 101.667 62.9987C101.667 64.2913 102.788 65.3391 104.172 65.3391Z" fill="#E6E6E6"/>
<path d="M116.853 65.3391C118.236 65.3391 119.358 64.2913 119.358 62.9987C119.358 61.7062 118.236 60.6583 116.853 60.6583C115.469 60.6583 114.348 61.7062 114.348 62.9987C114.348 64.2913 115.469 65.3391 116.853 65.3391Z" fill="#E6E6E6"/>
<path d="M2.72675 77.335C4.11027 77.335 5.23183 76.2871 5.23183 74.9945C5.23183 73.702 4.11027 72.6541 2.72675 72.6541C1.34324 72.6541 0.22168 73.702 0.22168 74.9945C0.22168 76.2871 1.34324 77.335 2.72675 77.335Z" fill="#ADB5BD"/>
<path d="M15.4074 77.335C16.7909 77.335 17.9125 76.2871 17.9125 74.9945C17.9125 73.702 16.7909 72.6541 15.4074 72.6541C14.0239 72.6541 12.9023 73.702 12.9023 74.9945C12.9023 76.2871 14.0239 77.335 15.4074 77.335Z" fill="#ADB5BD"/>
<path d="M28.0881 77.335C29.4716 77.335 30.5932 76.2871 30.5932 74.9945C30.5932 73.702 29.4716 72.6541 28.0881 72.6541C26.7046 72.6541 25.583 73.702 25.583 74.9945C25.583 76.2871 26.7046 77.335 28.0881 77.335Z" fill="#0EBAC5"/>
<path d="M40.7687 77.335C42.1522 77.335 43.2738 76.2871 43.2738 74.9945C43.2738 73.702 42.1522 72.6541 40.7687 72.6541C39.3852 72.6541 38.2636 73.702 38.2636 74.9945C38.2636 76.2871 39.3852 77.335 40.7687 77.335Z" fill="#ADB5BD"/>
<path d="M53.4493 77.335C54.8329 77.335 55.9544 76.2871 55.9544 74.9945C55.9544 73.702 54.8329 72.6541 53.4493 72.6541C52.0658 72.6541 50.9443 73.702 50.9443 74.9945C50.9443 76.2871 52.0658 77.335 53.4493 77.335Z" fill="#ADB5BD"/>
<path d="M66.13 77.335C67.5135 77.335 68.6351 76.2871 68.6351 74.9945C68.6351 73.702 67.5135 72.6541 66.13 72.6541C64.7465 72.6541 63.6249 73.702 63.6249 74.9945C63.6249 76.2871 64.7465 77.335 66.13 77.335Z" fill="#E6E6E6"/>
<path d="M78.8106 77.335C80.1941 77.335 81.3157 76.2871 81.3157 74.9945C81.3157 73.702 80.1941 72.6541 78.8106 72.6541C77.4271 72.6541 76.3055 73.702 76.3055 74.9945C76.3055 76.2871 77.4271 77.335 78.8106 77.335Z" fill="#E6E6E6"/>
<path d="M91.4913 77.335C92.8748 77.335 93.9964 76.2871 93.9964 74.9945C93.9964 73.702 92.8748 72.6541 91.4913 72.6541C90.1078 72.6541 88.9862 73.702 88.9862 74.9945C88.9862 76.2871 90.1078 77.335 91.4913 77.335Z" fill="#E6E6E6"/>
<path d="M104.172 77.335C105.555 77.335 106.677 76.2871 106.677 74.9945C106.677 73.702 105.555 72.6541 104.172 72.6541C102.788 72.6541 101.667 73.702 101.667 74.9945C101.667 76.2871 102.788 77.335 104.172 77.335Z" fill="#E6E6E6"/>
<path d="M116.853 77.335C118.236 77.335 119.358 76.2871 119.358 74.9945C119.358 73.702 118.236 72.6541 116.853 72.6541C115.469 72.6541 114.348 73.702 114.348 74.9945C114.348 76.2871 115.469 77.335 116.853 77.335Z" fill="#E6E6E6"/>
<path d="M2.72675 89.3307C4.11027 89.3307 5.23183 88.2829 5.23183 86.9903C5.23183 85.6978 4.11027 84.6499 2.72675 84.6499C1.34324 84.6499 0.22168 85.6978 0.22168 86.9903C0.22168 88.2829 1.34324 89.3307 2.72675 89.3307Z" fill="#ADB5BD"/>
<path d="M15.4074 89.3307C16.7909 89.3307 17.9125 88.2829 17.9125 86.9903C17.9125 85.6978 16.7909 84.6499 15.4074 84.6499C14.0239 84.6499 12.9023 85.6978 12.9023 86.9903C12.9023 88.2829 14.0239 89.3307 15.4074 89.3307Z" fill="#ADB5BD"/>
<path d="M28.0881 89.3307C29.4716 89.3307 30.5932 88.2829 30.5932 86.9903C30.5932 85.6978 29.4716 84.6499 28.0881 84.6499C26.7046 84.6499 25.583 85.6978 25.583 86.9903C25.583 88.2829 26.7046 89.3307 28.0881 89.3307Z" fill="#ADB5BD"/>
<path d="M40.7687 89.3307C42.1522 89.3307 43.2738 88.2829 43.2738 86.9903C43.2738 85.6978 42.1522 84.6499 40.7687 84.6499C39.3852 84.6499 38.2636 85.6978 38.2636 86.9903C38.2636 88.2829 39.3852 89.3307 40.7687 89.3307Z" fill="#ADB5BD"/>
<path d="M53.4493 89.3307C54.8329 89.3307 55.9544 88.2829 55.9544 86.9903C55.9544 85.6978 54.8329 84.6499 53.4493 84.6499C52.0658 84.6499 50.9443 85.6978 50.9443 86.9903C50.9443 88.2829 52.0658 89.3307 53.4493 89.3307Z" fill="#ADB5BD"/>
<path d="M66.13 89.3307C67.5135 89.3307 68.6351 88.2829 68.6351 86.9903C68.6351 85.6978 67.5135 84.6499 66.13 84.6499C64.7465 84.6499 63.6249 85.6978 63.6249 86.9903C63.6249 88.2829 64.7465 89.3307 66.13 89.3307Z" fill="#E6E6E6"/>
<path d="M78.8106 89.3307C80.1941 89.3307 81.3157 88.2829 81.3157 86.9903C81.3157 85.6978 80.1941 84.6499 78.8106 84.6499C77.4271 84.6499 76.3055 85.6978 76.3055 86.9903C76.3055 88.2829 77.4271 89.3307 78.8106 89.3307Z" fill="#E6E6E6"/>
<path d="M91.4913 89.3307C92.8748 89.3307 93.9964 88.2829 93.9964 86.9903C93.9964 85.6978 92.8748 84.6499 91.4913 84.6499C90.1078 84.6499 88.9862 85.6978 88.9862 86.9903C88.9862 88.2829 90.1078 89.3307 91.4913 89.3307Z" fill="#E6E6E6"/>
<path d="M104.172 89.3307C105.555 89.3307 106.677 88.2829 106.677 86.9903C106.677 85.6978 105.555 84.6499 104.172 84.6499C102.788 84.6499 101.667 85.6978 101.667 86.9903C101.667 88.2829 102.788 89.3307 104.172 89.3307Z" fill="#E6E6E6"/>
<path d="M116.853 89.3307C118.236 89.3307 119.358 88.2829 119.358 86.9903C119.358 85.6978 118.236 84.6499 116.853 84.6499C115.469 84.6499 114.348 85.6978 114.348 86.9903C114.348 88.2829 115.469 89.3307 116.853 89.3307Z" fill="#E6E6E6"/>
<path d="M2.72675 101.327C4.11027 101.327 5.23183 100.279 5.23183 98.9861C5.23183 97.6936 4.11027 96.6457 2.72675 96.6457C1.34324 96.6457 0.22168 97.6936 0.22168 98.9861C0.22168 100.279 1.34324 101.327 2.72675 101.327Z" fill="#ADB5BD"/>
<path d="M15.4074 101.327C16.7909 101.327 17.9125 100.279 17.9125 98.9861C17.9125 97.6936 16.7909 96.6457 15.4074 96.6457C14.0239 96.6457 12.9023 97.6936 12.9023 98.9861C12.9023 100.279 14.0239 101.327 15.4074 101.327Z" fill="#ADB5BD"/>
<path d="M28.0881 101.327C29.4716 101.327 30.5932 100.279 30.5932 98.9861C30.5932 97.6936 29.4716 96.6457 28.0881 96.6457C26.7046 96.6457 25.583 97.6936 25.583 98.9861C25.583 100.279 26.7046 101.327 28.0881 101.327Z" fill="#ADB5BD"/>
<path d="M40.7687 101.327C42.1522 101.327 43.2738 100.279 43.2738 98.9861C43.2738 97.6936 42.1522 96.6457 40.7687 96.6457C39.3852 96.6457 38.2636 97.6936 38.2636 98.9861C38.2636 100.279 39.3852 101.327 40.7687 101.327Z" fill="#ADB5BD"/>
<path d="M53.4493 101.327C54.8329 101.327 55.9544 100.279 55.9544 98.9861C55.9544 97.6936 54.8329 96.6457 53.4493 96.6457C52.0658 96.6457 50.9443 97.6936 50.9443 98.9861C50.9443 100.279 52.0658 101.327 53.4493 101.327Z" fill="#ADB5BD"/>
<path d="M66.13 101.327C67.5135 101.327 68.6351 100.279 68.6351 98.9861C68.6351 97.6936 67.5135 96.6457 66.13 96.6457C64.7465 96.6457 63.6249 97.6936 63.6249 98.9861C63.6249 100.279 64.7465 101.327 66.13 101.327Z" fill="#E6E6E6"/>
<path d="M78.8106 101.327C80.1941 101.327 81.3157 100.279 81.3157 98.9861C81.3157 97.6936 80.1941 96.6457 78.8106 96.6457C77.4271 96.6457 76.3055 97.6936 76.3055 98.9861C76.3055 100.279 77.4271 101.327 78.8106 101.327Z" fill="#E6E6E6"/>
<path d="M91.4913 101.327C92.8748 101.327 93.9964 100.279 93.9964 98.9861C93.9964 97.6936 92.8748 96.6457 91.4913 96.6457C90.1078 96.6457 88.9862 97.6936 88.9862 98.9861C88.9862 100.279 90.1078 101.327 91.4913 101.327Z" fill="#E6E6E6"/>
<path d="M104.172 101.327C105.555 101.327 106.677 100.279 106.677 98.9861C106.677 97.6936 105.555 96.6457 104.172 96.6457C102.788 96.6457 101.667 97.6936 101.667 98.9861C101.667 100.279 102.788 101.327 104.172 101.327Z" fill="#E6E6E6"/>
<path d="M116.853 101.327C118.236 101.327 119.358 100.279 119.358 98.9861C119.358 97.6936 118.236 96.6457 116.853 96.6457C115.469 96.6457 114.348 97.6936 114.348 98.9861C114.348 100.279 115.469 101.327 116.853 101.327Z" fill="#E6E6E6"/>
<path d="M2.72675 113.322C4.11027 113.322 5.23183 112.274 5.23183 110.982C5.23183 109.689 4.11027 108.642 2.72675 108.642C1.34324 108.642 0.22168 109.689 0.22168 110.982C0.22168 112.274 1.34324 113.322 2.72675 113.322Z" fill="#ADB5BD"/>
<path d="M15.4074 113.322C16.7909 113.322 17.9125 112.274 17.9125 110.982C17.9125 109.689 16.7909 108.642 15.4074 108.642C14.0239 108.642 12.9023 109.689 12.9023 110.982C12.9023 112.274 14.0239 113.322 15.4074 113.322Z" fill="#ADB5BD"/>
<path d="M28.0881 113.322C29.4716 113.322 30.5932 112.274 30.5932 110.982C30.5932 109.689 29.4716 108.642 28.0881 108.642C26.7046 108.642 25.583 109.689 25.583 110.982C25.583 112.274 26.7046 113.322 28.0881 113.322Z" fill="#ADB5BD"/>
<path d="M40.7687 113.322C42.1522 113.322 43.2738 112.274 43.2738 110.982C43.2738 109.689 42.1522 108.642 40.7687 108.642C39.3852 108.642 38.2636 109.689 38.2636 110.982C38.2636 112.274 39.3852 113.322 40.7687 113.322Z" fill="#ADB5BD"/>
<path d="M53.4493 113.322C54.8329 113.322 55.9544 112.274 55.9544 110.982C55.9544 109.689 54.8329 108.642 53.4493 108.642C52.0658 108.642 50.9443 109.689 50.9443 110.982C50.9443 112.274 52.0658 113.322 53.4493 113.322Z" fill="#ADB5BD"/>
<path d="M66.13 113.322C67.5135 113.322 68.6351 112.274 68.6351 110.982C68.6351 109.689 67.5135 108.642 66.13 108.642C64.7465 108.642 63.6249 109.689 63.6249 110.982C63.6249 112.274 64.7465 113.322 66.13 113.322Z" fill="#E6E6E6"/>
<path d="M78.8106 113.322C80.1941 113.322 81.3157 112.274 81.3157 110.982C81.3157 109.689 80.1941 108.642 78.8106 108.642C77.4271 108.642 76.3055 109.689 76.3055 110.982C76.3055 112.274 77.4271 113.322 78.8106 113.322Z" fill="#E6E6E6"/>
<path d="M91.4913 113.322C92.8748 113.322 93.9964 112.274 93.9964 110.982C93.9964 109.689 92.8748 108.642 91.4913 108.642C90.1078 108.642 88.9862 109.689 88.9862 110.982C88.9862 112.274 90.1078 113.322 91.4913 113.322Z" fill="#E6E6E6"/>
<path d="M104.172 113.322C105.555 113.322 106.677 112.274 106.677 110.982C106.677 109.689 105.555 108.642 104.172 108.642C102.788 108.642 101.667 109.689 101.667 110.982C101.667 112.274 102.788 113.322 104.172 113.322Z" fill="#E6E6E6"/>
<path d="M116.853 113.322C118.236 113.322 119.358 112.274 119.358 110.982C119.358 109.689 118.236 108.642 116.853 108.642C115.469 108.642 114.348 109.689 114.348 110.982C114.348 112.274 115.469 113.322 116.853 113.322Z" fill="#E6E6E6"/>
<path d="M147.439 21.5956C148.279 21.5956 149.085 21.9074 149.679 22.4623C150.273 23.0172 150.606 23.7698 150.606 24.5546V142.912C150.606 143.3 150.525 143.685 150.365 144.044C150.206 144.403 149.973 144.729 149.679 145.004C149.385 145.279 149.036 145.497 148.651 145.645C148.267 145.794 147.855 145.871 147.439 145.871H56.543C56.1271 145.871 55.7152 145.794 55.331 145.645C54.9467 145.497 54.5976 145.279 54.3035 145.004C54.0094 144.729 53.7761 144.403 53.6169 144.044C53.4578 143.685 53.3759 143.3 53.3759 142.912V24.5545C53.3759 23.7698 53.7095 23.0172 54.3035 22.4623C54.8974 21.9074 55.703 21.5956 56.543 21.5956L147.439 21.5956Z" fill="#E6E6E6"/>
<path d="M56.9116 142.567H147.071V24.899H56.9116V142.567Z" fill="white"/>
<path d="M127.011 43.5154C127.095 43.5154 127.177 43.5307 127.254 43.5604C127.331 43.5901 127.4 43.6337 127.459 43.6887C127.518 43.7436 127.565 43.8089 127.597 43.8807C127.628 43.9525 127.645 44.0294 127.645 44.1071V45.2907C127.645 45.4477 127.578 45.5982 127.459 45.7092C127.34 45.8201 127.179 45.8825 127.011 45.8825H76.9709C76.8877 45.8825 76.8053 45.8672 76.7285 45.8375C76.6516 45.8077 76.5818 45.7641 76.523 45.7092C76.4642 45.6542 76.4175 45.589 76.3857 45.5172C76.3539 45.4454 76.3375 45.3684 76.3375 45.2907V44.1071C76.3375 44.0294 76.3538 43.9525 76.3857 43.8807C76.4175 43.8089 76.4642 43.7436 76.523 43.6887C76.5818 43.6337 76.6516 43.5901 76.7285 43.5604C76.8053 43.5307 76.8877 43.5153 76.9709 43.5154H127.011Z" fill="#E6E6E6"/>
<path d="M127.011 49.1373C127.179 49.1373 127.34 49.1997 127.459 49.3106C127.578 49.4216 127.645 49.5722 127.645 49.7291V50.9127C127.645 51.0696 127.578 51.2201 127.459 51.3311C127.34 51.4421 127.179 51.5045 127.011 51.5045H76.9709C76.8877 51.5045 76.8053 51.4891 76.7285 51.4594C76.6516 51.4297 76.5818 51.3861 76.523 51.3311C76.4642 51.2762 76.4175 51.2109 76.3857 51.1391C76.3539 51.0673 76.3375 50.9904 76.3375 50.9127V49.7291C76.3375 49.6514 76.3539 49.5744 76.3857 49.5026C76.4175 49.4308 76.4642 49.3656 76.523 49.3106C76.5818 49.2557 76.6516 49.2121 76.7285 49.1824C76.8053 49.1526 76.8877 49.1373 76.9709 49.1373H127.011Z" fill="#E6E6E6"/>
<path d="M127.011 54.7593C127.179 54.7593 127.34 54.8216 127.459 54.9326C127.578 55.0436 127.645 55.1941 127.645 55.3511V56.5347C127.645 56.6916 127.578 56.8421 127.459 56.9531C127.34 57.0641 127.179 57.1264 127.011 57.1264H76.9709C76.8029 57.1264 76.6418 57.0641 76.523 56.9531C76.4042 56.8421 76.3375 56.6916 76.3375 56.5347V55.3511C76.3375 55.1941 76.4042 55.0436 76.523 54.9326C76.6418 54.8216 76.8029 54.7593 76.9709 54.7593H127.011Z" fill="#0EBAC5"/>
<path d="M127.011 60.5043C127.179 60.5043 127.34 60.5666 127.459 60.6776C127.578 60.7886 127.645 60.9391 127.645 61.0961V62.2797C127.645 62.4366 127.578 62.5871 127.459 62.6981C127.34 62.8091 127.179 62.8714 127.011 62.8714H76.9709C76.8877 62.8714 76.8053 62.8561 76.7285 62.8264C76.6516 62.7967 76.5818 62.7531 76.523 62.6981C76.4642 62.6432 76.4175 62.5779 76.3857 62.5061C76.3539 62.4343 76.3375 62.3574 76.3375 62.2797V61.0961C76.3375 61.0184 76.3539 60.9414 76.3857 60.8696C76.4175 60.7978 76.4642 60.7326 76.523 60.6776C76.5818 60.6227 76.6516 60.5791 76.7285 60.5493C76.8053 60.5196 76.8877 60.5043 76.9709 60.5043H127.011Z" fill="#E6E6E6"/>
<path d="M127.011 66.1263C127.179 66.1263 127.34 66.1886 127.459 66.2996C127.578 66.4106 127.645 66.5611 127.645 66.718V67.9016C127.645 67.9793 127.628 68.0563 127.597 68.1281C127.565 68.1999 127.518 68.2651 127.459 68.3201C127.4 68.375 127.331 68.4186 127.254 68.4484C127.177 68.4781 127.095 68.4934 127.011 68.4934H76.9709C76.8877 68.4934 76.8053 68.4781 76.7285 68.4484C76.6516 68.4186 76.5818 68.375 76.523 68.3201C76.4642 68.2651 76.4175 68.1999 76.3857 68.1281C76.3538 68.0563 76.3375 67.9793 76.3375 67.9016V66.718C76.3375 66.6403 76.3539 66.5634 76.3857 66.4916C76.4175 66.4198 76.4642 66.3545 76.523 66.2996C76.5818 66.2446 76.6516 66.201 76.7285 66.1713C76.8053 66.1416 76.8877 66.1263 76.9709 66.1263H127.011Z" fill="#E6E6E6"/>
<path d="M127.011 71.7482C127.179 71.7482 127.34 71.8106 127.459 71.9216C127.578 72.0325 127.645 72.1831 127.645 72.34V73.5236C127.645 73.6805 127.578 73.8311 127.459 73.942C127.34 74.053 127.179 74.1154 127.011 74.1154H76.9709C76.8029 74.1154 76.6418 74.053 76.523 73.942C76.4042 73.8311 76.3375 73.6805 76.3375 73.5236V72.34C76.3375 72.1831 76.4042 72.0325 76.523 71.9216C76.6418 71.8106 76.8029 71.7482 76.9709 71.7482H127.011Z" fill="#E6E6E6"/>
<path d="M77.2905 90.6602C77.0955 90.6604 76.9086 90.7328 76.7707 90.8616C76.6328 90.9904 76.5553 91.165 76.5551 91.3472V123.264C76.5553 123.446 76.6329 123.621 76.7707 123.75C76.9086 123.878 77.0955 123.951 77.2905 123.951H126.607C126.802 123.951 126.988 123.878 127.126 123.75C127.264 123.621 127.342 123.446 127.342 123.264V91.3472C127.342 91.165 127.264 90.9904 127.126 90.8616C126.988 90.7328 126.802 90.6604 126.607 90.6602H77.2905Z" fill="#0EBAC5"/>
<path d="M102.156 56.0456L101.638 55.9172L112.935 16.2127H178.464V16.7131H113.347L102.156 56.0456Z" fill="#3F3D56"/>
<path d="M183.818 21.7154C182.706 21.7154 181.619 21.4073 180.695 20.8302C179.77 20.253 179.049 19.4327 178.624 18.473C178.198 17.5132 178.087 16.4571 178.304 15.4382C178.521 14.4193 179.056 13.4834 179.843 12.7489C180.629 12.0143 181.631 11.514 182.721 11.3114C183.812 11.1087 184.942 11.2127 185.969 11.6103C186.997 12.0078 187.875 12.681 188.493 13.5448C189.11 14.4086 189.44 15.4241 189.44 16.4629C189.438 17.8555 188.846 19.1905 187.792 20.1752C186.738 21.1599 185.309 21.7138 183.818 21.7154ZM183.818 11.7107C182.812 11.7107 181.829 11.9894 180.992 12.5116C180.156 13.0338 179.504 13.776 179.119 14.6443C178.734 15.5127 178.633 16.4682 178.829 17.39C179.025 18.3119 179.51 19.1586 180.221 19.8233C180.933 20.4879 181.839 20.9405 182.826 21.1238C183.812 21.3072 184.835 21.2131 185.765 20.8534C186.694 20.4937 187.488 19.8846 188.047 19.1031C188.606 18.3216 188.905 17.4028 188.905 16.4629C188.903 15.203 188.367 13.9951 187.413 13.1042C186.46 12.2132 185.167 11.7121 183.818 11.7107Z" fill="#3F3D56"/>
<path d="M183.818 18.4639C185.001 18.4639 185.96 17.568 185.96 16.4629C185.96 15.3578 185.001 14.462 183.818 14.462C182.635 14.462 181.676 15.3578 181.676 16.4629C181.676 17.568 182.635 18.4639 183.818 18.4639Z" fill="#0EBAC5"/>
<path d="M100.404 123.289L100.921 123.419L89.543 163.103L24.0147 162.986L24.0158 162.485L89.1323 162.602L100.404 123.289Z" fill="#3F3D56"/>
<path d="M18.6716 157.473C19.7835 157.475 20.8698 157.785 21.7932 158.364C22.7165 158.943 23.4354 159.765 23.859 160.725C24.2825 161.686 24.3917 162.742 24.1727 163.76C23.9537 164.779 23.4163 165.714 22.6286 166.447C21.8408 167.18 20.838 167.679 19.747 167.879C18.656 168.08 17.5259 167.974 16.4994 167.575C15.4729 167.175 14.5962 166.5 13.9803 165.636C13.3643 164.771 13.0366 163.755 13.0388 162.716C13.0433 161.323 13.6389 159.989 14.6949 159.006C15.7509 158.024 17.181 157.472 18.6716 157.473ZM18.651 167.478C19.6571 167.48 20.6411 167.203 21.4786 166.682C22.3162 166.162 22.9697 165.421 23.3565 164.553C23.7432 163.685 23.8459 162.73 23.6516 161.808C23.4572 160.885 22.9745 160.038 22.2645 159.372C21.5544 158.706 20.649 158.252 19.6627 158.067C18.6764 157.882 17.6534 157.974 16.7232 158.332C15.793 158.69 14.9974 159.298 14.4369 160.078C13.8763 160.859 13.5761 161.777 13.5742 162.717C13.5731 163.977 14.1071 165.186 15.0588 166.078C16.0106 166.971 17.3025 167.474 18.651 167.478Z" fill="#3F3D56"/>
<path d="M18.6608 164.727C19.8437 164.727 20.8026 163.831 20.8026 162.726C20.8026 161.621 19.8437 160.725 18.6608 160.725C17.478 160.725 16.5191 161.621 16.5191 162.726C16.5191 163.831 17.478 164.727 18.6608 164.727Z" fill="#0EBAC5"/>
</svg>
