<svg width="678" height="349" viewBox="0 0 678 349" fill="none" xmlns="http://www.w3.org/2000/svg">
<path d="M10 0.5H668C673.247 0.5 677.5 4.7533 677.5 10V348.5H0.5V10C0.5 4.7533 4.7533 0.5 10 0.5Z" fill="#2F2E41"/>
<path d="M321.489 39.9261C323.336 39.9261 324.833 38.3729 324.833 36.4569C324.833 34.541 323.336 32.9878 321.489 32.9878C319.643 32.9878 318.146 34.541 318.146 36.4569C318.146 38.3729 319.643 39.9261 321.489 39.9261Z" fill="#F2F2F2"/>
<path d="M216.508 152.328C217.246 152.328 217.845 151.706 217.845 150.94C217.845 150.174 217.246 149.552 216.508 149.552C215.769 149.552 215.171 150.174 215.171 150.94C215.171 151.706 215.769 152.328 216.508 152.328Z" fill="#F2F2F2"/>
<path d="M413.766 217.548C414.505 217.548 415.104 216.927 415.104 216.161C415.104 215.394 414.505 214.773 413.766 214.773C413.028 214.773 412.429 215.394 412.429 216.161C412.429 216.927 413.028 217.548 413.766 217.548Z" fill="#F2F2F2"/>
<path d="M65.3879 200.202C66.1265 200.202 66.7252 199.581 66.7252 198.815C66.7252 198.048 66.1265 197.427 65.3879 197.427C64.6493 197.427 64.0505 198.048 64.0505 198.815C64.0505 199.581 64.6493 200.202 65.3879 200.202Z" fill="#F2F2F2"/>
<path d="M586.952 150.94C587.691 150.94 588.29 150.319 588.29 149.552C588.29 148.786 587.691 148.165 586.952 148.165C586.214 148.165 585.615 148.786 585.615 149.552C585.615 150.319 586.214 150.94 586.952 150.94Z" fill="#F2F2F2"/>
<path d="M157.665 165.511C158.403 165.511 159.002 164.889 159.002 164.123C159.002 163.357 158.403 162.735 157.665 162.735C156.926 162.735 156.327 163.357 156.327 164.123C156.327 164.889 156.926 165.511 157.665 165.511Z" fill="#F2F2F2"/>
<path d="M376.989 137.757C377.728 137.757 378.327 137.136 378.327 136.369C378.327 135.603 377.728 134.982 376.989 134.982C376.251 134.982 375.652 135.603 375.652 136.369C375.652 137.136 376.251 137.757 376.989 137.757Z" fill="#F2F2F2"/>
<path d="M421.122 37.8446C421.86 37.8446 422.459 37.2233 422.459 36.4569C422.459 35.6905 421.86 35.0693 421.122 35.0693C420.383 35.0693 419.784 35.6905 419.784 36.4569C419.784 37.2233 420.383 37.8446 421.122 37.8446Z" fill="#F2F2F2"/>
<path d="M142.954 200.202H141.617V200.896H142.954V200.202Z" fill="#F2F2F2"/>
<path d="M182.406 94.0454H181.068V94.7392H182.406V94.0454Z" fill="#F2F2F2"/>
<path d="M278.694 173.143H277.357V173.837H278.694V173.143Z" fill="#F2F2F2"/>
<path d="M534.127 203.672H532.79V204.365H534.127V203.672Z" fill="#F2F2F2"/>
<path d="M454.555 97.5146H453.218V98.2084H454.555V97.5146Z" fill="#F2F2F2"/>
<path d="M152.864 252.335H150.511V348.78H152.864V252.335Z" fill="#3F3D56"/>
<path d="M174.581 235.484C174.73 269.209 151.864 296.658 151.864 296.658C151.864 296.658 128.755 269.429 128.605 235.704C128.455 201.98 151.321 174.531 151.321 174.531C151.321 174.531 174.431 201.76 174.581 235.484Z" fill="#3F3D56"/>
<path d="M123.819 223.743H120.769V348.78H123.819V223.743Z" fill="#3F3D56"/>
<path d="M151.974 210.536C152.168 254.259 122.523 289.845 122.523 289.845C122.523 289.845 92.5625 254.544 92.3683 210.822C92.174 167.099 121.819 131.513 121.819 131.513C121.819 131.513 151.78 166.814 151.974 210.536Z" fill="#3F3D56"/>
<path d="M478.508 252.335H476.155V348.78H478.508V252.335Z" fill="#0EBAC5"/>
<path d="M500.224 264.626C500.374 298.35 477.507 325.799 477.507 325.799C477.507 325.799 454.398 298.57 454.248 264.845C454.098 231.121 476.965 203.672 476.965 203.672C476.965 203.672 500.074 230.901 500.224 264.626Z" fill="#3F3D56"/>
<path d="M96.6956 252.335H94.3425V348.78H96.6956V252.335Z" fill="#3F3D56"/>
<path d="M118.412 235.484C118.562 269.209 95.6954 296.658 95.6954 296.658C95.6954 296.658 72.586 269.429 72.4362 235.704C72.2864 201.98 95.1529 174.531 95.1529 174.531C95.1529 174.531 118.262 201.76 118.412 235.484Z" fill="#3F3D56"/>
<path d="M303.984 252.335H301.631V348.78H303.984V252.335Z" fill="#3F3D56"/>
<path d="M325.701 235.484C325.85 269.209 302.984 296.658 302.984 296.658C302.984 296.658 279.874 269.429 279.725 235.704C279.575 201.98 302.441 174.531 302.441 174.531C302.441 174.531 325.551 201.76 325.701 235.484Z" fill="#3F3D56"/>
<path d="M274.939 223.743H271.889V348.78H274.939V223.743Z" fill="#3F3D56"/>
<path d="M303.094 210.536C303.288 254.259 273.643 289.845 273.643 289.845C273.643 289.845 243.682 254.544 243.488 210.822C243.294 167.099 272.939 131.513 272.939 131.513C272.939 131.513 302.9 166.814 303.094 210.536Z" fill="#3F3D56"/>
<path d="M247.816 252.335H245.463V348.78H247.816V252.335Z" fill="#3F3D56"/>
<path d="M269.532 235.484C269.682 269.209 246.815 296.658 246.815 296.658C246.815 296.658 223.706 269.429 223.556 235.704C223.406 201.98 246.273 174.531 246.273 174.531C246.273 174.531 269.382 201.76 269.532 235.484Z" fill="#3F3D56"/>
<path d="M493.722 297.249L454.402 259.734C454.296 261.42 454.241 263.124 454.248 264.845C454.398 298.57 477.507 325.799 477.507 325.799C484.236 317.161 489.699 307.541 493.722 297.249Z" fill="#0EBAC5"/>
<path d="M201.032 340.177C202.379 345.345 206.994 348.545 206.994 348.545C206.994 348.545 209.424 343.367 208.077 338.2C206.73 333.032 202.115 329.832 202.115 329.832C202.115 329.832 199.685 335.01 201.032 340.177Z" fill="#3F3D56"/>
<path d="M203.012 339.067C206.709 342.801 207.16 348.541 207.16 348.541C207.16 348.541 201.618 348.227 197.921 344.493C194.224 340.759 193.773 335.018 193.773 335.018C193.773 335.018 199.315 335.332 203.012 339.067Z" fill="#3F3D56"/>
<path d="M390.935 340.177C392.282 345.345 396.897 348.545 396.897 348.545C396.897 348.545 399.327 343.367 397.98 338.2C396.633 333.032 392.018 329.832 392.018 329.832C392.018 329.832 389.588 335.01 390.935 340.177Z" fill="#0EBAC5"/>
<path d="M392.915 339.067C396.612 342.801 397.063 348.541 397.063 348.541C397.063 348.541 391.521 348.227 387.824 344.493C384.128 340.759 383.676 335.018 383.676 335.018C383.676 335.018 389.218 335.332 392.915 339.067Z" fill="#0EBAC5"/>
<path d="M51.2495 340.177C52.5968 345.345 57.2112 348.545 57.2112 348.545C57.2112 348.545 59.6415 343.367 58.2943 338.2C56.9471 333.032 52.3326 329.832 52.3326 329.832C52.3326 329.832 49.9023 335.01 51.2495 340.177Z" fill="#3F3D56"/>
<path d="M53.2292 339.067C56.926 342.801 57.3775 348.541 57.3775 348.541C57.3775 348.541 51.8354 348.227 48.1386 344.493C44.4419 340.759 43.9904 335.018 43.9904 335.018C43.9904 335.018 49.5324 335.332 53.2292 339.067Z" fill="#3F3D56"/>
<path d="M258.999 153.135L323.533 254.2C324.974 248.074 325.702 241.791 325.701 235.484C325.628 219.039 320.095 204.14 314.445 193.188L311.459 193.958L314.267 192.846C310.94 186.337 306.977 180.2 302.441 174.531C302.441 174.531 300.795 176.508 298.39 180.05C289.911 151.513 272.939 131.513 272.939 131.513C267.642 138.245 262.974 145.485 258.999 153.135Z" fill="#0EBAC5"/>
<path opacity="0.1" d="M630.302 344.691C630.813 344.691 631.302 344.48 631.663 344.106C632.024 343.731 632.227 343.223 632.227 342.694C632.227 342.164 632.024 341.657 631.663 341.282C631.302 340.908 630.813 340.697 630.302 340.697H614.482C614.992 341.756 615.076 342.982 614.715 344.106C614.354 345.229 613.578 346.158 612.558 346.687C612.558 347.217 612.76 347.724 613.121 348.099C613.482 348.473 613.971 348.684 614.482 348.684H630.302C630.813 348.684 631.302 348.473 631.663 348.099C632.024 347.724 632.227 347.217 632.227 346.687C632.227 346.158 632.024 345.65 631.663 345.275C631.302 344.901 630.813 344.691 630.302 344.691Z" fill="#F2F2F2"/>
<path d="M592.7 340.571C592.97 351.459 586.623 348.684 578.928 348.684C571.233 348.684 564.886 350.071 564.834 340.571C564.809 335.892 571.118 334.875 578.813 334.875C586.508 334.875 592.584 335.894 592.7 340.571Z" fill="#3F3D56"/>
<path d="M610.702 344.874C610.578 344.805 610.443 344.76 610.303 344.741C609.605 344.626 608.913 344.472 608.231 344.281C607.545 344.088 606.916 343.724 606.396 343.222C606.203 342.986 605.986 342.77 605.75 342.58C605.631 342.486 605.488 342.43 605.338 342.419C605.189 342.408 605.039 342.442 604.908 342.517C604.881 342.539 604.856 342.564 604.833 342.59C604.738 342.525 604.642 342.46 604.547 342.394C604.038 342.046 603.526 341.702 603.012 341.363L602.991 341.349C603.006 341.265 603.006 341.179 602.992 341.095C602.903 340.819 602.721 340.586 602.48 340.436C603.144 340.429 603.811 340.367 604.47 340.294C605.098 340.305 605.705 340.059 606.159 339.609C606.228 339.531 606.269 339.431 606.277 339.326C606.278 339.11 606.063 338.969 605.871 338.888C605.615 338.779 605.349 338.698 605.078 338.645C604.888 338.617 604.7 338.576 604.515 338.523C604.351 338.461 604.192 338.383 604.041 338.291C603.714 338.104 603.388 337.917 603.061 337.731C602.922 337.661 602.794 337.568 602.682 337.458C602.515 337.275 602.441 337.016 602.272 336.837C602.115 336.671 601.483 336.453 601.393 336.792C601.357 336.926 601.493 337.075 601.51 337.224C601.291 337.082 601.065 336.953 600.831 336.838C600.844 336.808 600.861 336.78 600.872 336.749C599.787 335.847 598.925 334.689 598.358 333.372C598.455 333.375 598.552 333.381 598.649 333.38C598.815 333.396 598.981 333.354 599.12 333.261C599.178 333.206 599.223 333.139 599.252 333.064C599.281 332.989 599.293 332.908 599.287 332.827C599.275 332.666 599.237 332.509 599.175 332.36C599.036 331.916 598.815 331.505 598.524 331.149C598.242 330.866 597.92 330.629 597.57 330.446L597.514 330.413C597.49 330.338 597.468 330.262 597.439 330.189C597.228 329.734 596.989 329.293 596.724 328.869C596.351 328.159 596.076 327.398 595.907 326.609C595.844 326.129 595.667 325.672 595.39 325.28C594.88 324.697 594.005 324.711 593.25 324.8C592.82 324.85 592.391 324.917 591.963 324.986C591.959 324.975 591.959 324.963 591.955 324.952C591.901 324.847 591.868 324.733 591.856 324.615C591.867 324.519 591.887 324.424 591.917 324.332C591.94 324.217 591.935 324.099 591.902 323.987C591.869 323.875 591.81 323.774 591.73 323.692C591.712 323.675 591.694 323.655 591.677 323.635C591.724 323.52 591.767 323.403 591.806 323.286C591.842 323.243 591.868 323.192 591.885 323.138C591.901 323.084 591.906 323.026 591.9 322.97C591.978 322.686 592.019 322.392 592.023 322.096C591.935 321.443 591.912 320.783 591.955 320.125C591.933 319.962 591.876 319.806 591.788 319.669C591.772 319.648 591.746 319.637 591.728 319.618C591.858 319.439 592.009 319.276 592.177 319.135C592.506 318.871 592.859 318.639 593.23 318.442C593.318 318.392 593.442 318.356 593.527 318.297C593.657 318.32 593.789 318.334 593.921 318.339C594.411 318.342 594.894 318.22 595.329 317.985C595.763 317.749 596.135 317.407 596.413 316.988C596.69 316.569 596.865 316.086 596.921 315.581C596.977 315.075 596.913 314.564 596.734 314.09C596.87 314.056 596.998 313.994 597.111 313.908C597.223 313.822 597.318 313.713 597.39 313.588C597.537 313.324 597.624 313.028 597.647 312.724C597.67 312.607 597.671 312.487 597.65 312.369C597.628 312.252 597.584 312.141 597.521 312.041C597.408 311.928 597.279 311.834 597.138 311.763C596.943 311.637 596.78 311.465 596.661 311.262C596.576 311.117 596.516 310.959 596.44 310.809C596.314 310.531 596.117 310.295 595.87 310.125C595.624 309.956 595.337 309.86 595.042 309.847C594.761 309.884 594.483 309.942 594.21 310.019C593.274 310.19 592.256 309.676 591.388 310.077C591.174 310.184 590.975 310.322 590.797 310.485C590.553 310.694 590.318 310.915 590.092 311.146C589.896 311.32 589.748 311.543 589.662 311.795C589.545 312.255 589.825 312.769 589.647 313.207C589.585 313.332 589.513 313.451 589.429 313.562C589.232 313.861 589.446 315.032 589.424 315.394C589.399 315.572 589.442 315.752 589.545 315.896C589.571 315.924 589.601 315.947 589.633 315.966C588.176 316.505 586.752 317.133 585.367 317.847C583.704 318.682 582.324 320.019 581.409 321.683C581.174 322.159 580.995 322.662 580.782 323.149C580.499 323.798 580.156 324.418 579.813 325.036C579.395 325.789 578.977 326.544 578.494 327.255C578.218 327.631 577.963 328.024 577.73 328.43C577.723 328.489 577.722 328.549 577.724 328.608C577.734 328.664 577.728 328.722 577.709 328.775C577.688 328.806 577.661 328.832 577.629 328.85C577.598 328.869 577.562 328.881 577.526 328.884L577.515 328.914C577.406 329.279 577.315 329.65 577.244 330.025C577.101 330.621 576.874 331.197 576.786 331.804C576.735 331.88 576.707 331.97 576.705 332.062C576.703 332.155 576.727 332.246 576.774 332.325C576.822 332.403 576.89 332.466 576.971 332.504C577.052 332.542 577.143 332.555 577.231 332.541C577.732 332.772 578.214 333.043 578.696 333.316C578.688 333.352 578.678 333.388 578.673 333.425C578.657 333.812 578.747 334.195 578.932 334.53C579.117 334.866 579.39 335.14 579.719 335.322C580.383 335.674 581.11 335.879 581.854 335.924C582.142 335.96 582.433 335.976 582.722 336.007C583.143 336.25 583.592 336.439 584.058 336.569C584.16 336.6 584.265 336.617 584.371 336.62C584.513 336.61 584.65 336.567 584.774 336.495C584.898 336.423 585.004 336.322 585.086 336.202C587.572 336.344 590.066 336.292 592.544 336.044C593.23 335.878 593.952 335.994 594.557 336.368C595.095 336.821 595.203 337.625 595.602 338.212C595.893 338.574 596.219 338.904 596.575 339.197C597.283 339.974 597.909 340.828 598.442 341.744C598.981 342.668 599.761 343.415 600.692 343.899C600.86 343.621 601.103 343.402 601.391 343.268C601.465 343.222 601.536 343.169 601.609 343.119C601.708 343.285 601.822 343.44 601.951 343.581C602.046 343.689 602.142 343.802 602.231 343.919C602.228 343.919 602.226 343.918 602.223 343.918C602.093 343.939 602.049 344.108 602.034 344.244C601.977 344.764 601.92 345.284 601.863 345.805C601.842 345.907 601.849 346.014 601.883 346.113C601.944 346.221 602.04 346.303 602.153 346.346C602.618 346.578 603.122 346.716 603.637 346.752C603.896 346.77 604.156 346.763 604.415 346.787C604.839 346.844 605.259 346.931 605.672 347.047C606.795 347.313 607.95 347.407 609.1 347.325C609.337 347.32 609.572 347.273 609.795 347.189C610.059 347.057 610.293 346.87 610.482 346.637C610.721 346.402 610.899 346.106 610.998 345.779C611.044 345.615 611.041 345.44 610.988 345.278C610.935 345.116 610.835 344.975 610.702 344.874Z" fill="#3F3D56"/>
<path d="M592.204 310.02C592.315 309.999 592.424 309.968 592.534 309.939C592.182 309.893 591.824 309.929 591.487 310.044C591.726 310.066 591.967 310.058 592.204 310.02Z" fill="#FF6584"/>
<path d="M594.434 310.809C594.51 310.959 594.57 311.117 594.655 311.262C594.774 311.465 594.937 311.637 595.132 311.763C595.273 311.834 595.402 311.928 595.515 312.041C595.578 312.141 595.622 312.252 595.644 312.37C595.665 312.487 595.664 312.607 595.641 312.724C595.618 313.029 595.53 313.324 595.384 313.588C595.312 313.713 595.217 313.822 595.105 313.908C594.992 313.994 594.864 314.056 594.728 314.09C594.934 314.595 595.005 315.148 594.934 315.692C594.863 316.235 594.653 316.749 594.325 317.179C593.997 317.609 593.564 317.94 593.071 318.137C592.577 318.333 592.042 318.389 591.521 318.297C591.436 318.356 591.312 318.392 591.224 318.442C590.853 318.639 590.5 318.871 590.171 319.135C590.003 319.276 589.852 319.439 589.722 319.618C589.74 319.638 589.766 319.648 589.782 319.669C589.869 319.806 589.927 319.962 589.949 320.125C589.906 320.783 589.928 321.443 590.016 322.096C590.013 322.392 589.972 322.686 589.894 322.97C589.9 323.026 589.895 323.084 589.879 323.138C589.862 323.192 589.836 323.243 589.8 323.286C589.761 323.403 589.717 323.52 589.67 323.635C589.688 323.655 589.706 323.675 589.724 323.692C589.804 323.774 589.863 323.875 589.896 323.987C589.929 324.099 589.934 324.217 589.911 324.332C589.881 324.424 589.861 324.519 589.85 324.615C589.861 324.733 589.895 324.847 589.949 324.952C589.953 324.963 589.953 324.975 589.957 324.986C590.385 324.917 590.814 324.85 591.244 324.8C591.456 324.774 591.67 324.759 591.883 324.756C591.867 324.711 591.858 324.663 591.856 324.615C591.867 324.519 591.887 324.424 591.917 324.332C591.94 324.217 591.935 324.099 591.902 323.987C591.869 323.875 591.81 323.774 591.73 323.692C591.712 323.675 591.694 323.655 591.676 323.635C591.724 323.52 591.767 323.403 591.806 323.286C591.842 323.243 591.868 323.192 591.885 323.138C591.901 323.084 591.906 323.026 591.9 322.97C591.978 322.686 592.019 322.392 592.022 322.096C591.935 321.443 591.912 320.783 591.955 320.125C591.933 319.962 591.875 319.806 591.788 319.669C591.772 319.648 591.746 319.637 591.728 319.618C591.858 319.439 592.009 319.276 592.177 319.135C592.506 318.871 592.859 318.639 593.23 318.442C593.318 318.392 593.442 318.356 593.527 318.297C593.657 318.32 593.789 318.334 593.921 318.339C594.411 318.342 594.894 318.22 595.328 317.985C595.763 317.749 596.135 317.407 596.413 316.988C596.69 316.569 596.865 316.086 596.921 315.581C596.977 315.075 596.913 314.564 596.734 314.09C596.87 314.056 596.998 313.994 597.111 313.908C597.223 313.822 597.318 313.713 597.39 313.588C597.536 313.324 597.624 313.029 597.647 312.724C597.67 312.607 597.671 312.487 597.65 312.369C597.628 312.252 597.584 312.141 597.521 312.041C597.408 311.928 597.279 311.834 597.138 311.763C596.943 311.637 596.78 311.465 596.661 311.262C596.576 311.117 596.516 310.959 596.44 310.809C596.314 310.531 596.117 310.295 595.87 310.125C595.624 309.956 595.337 309.86 595.042 309.847C594.761 309.884 594.483 309.942 594.21 310.019C594.056 310.045 593.901 310.055 593.746 310.051C594.038 310.234 594.276 310.496 594.434 310.809Z" fill="#FF6584"/>
<path d="M610.702 344.874C610.578 344.805 610.443 344.76 610.303 344.741C609.605 344.626 608.913 344.472 608.231 344.281C607.545 344.088 606.916 343.724 606.396 343.222C606.203 342.986 605.986 342.77 605.75 342.58C605.631 342.486 605.488 342.43 605.338 342.419C605.189 342.408 605.039 342.442 604.908 342.517C604.881 342.539 604.856 342.564 604.833 342.59C604.738 342.525 604.642 342.46 604.547 342.394C604.038 342.046 603.526 341.702 603.012 341.363L602.991 341.349C603.006 341.265 603.006 341.179 602.992 341.095C602.903 340.819 602.721 340.586 602.48 340.436C603.144 340.429 603.811 340.367 604.47 340.294C605.098 340.305 605.705 340.059 606.159 339.609C606.228 339.531 606.269 339.431 606.277 339.326C606.278 339.11 606.063 338.969 605.871 338.888C605.615 338.779 605.349 338.698 605.078 338.645C604.888 338.617 604.7 338.576 604.515 338.523C604.351 338.461 604.192 338.383 604.041 338.291C603.714 338.104 603.388 337.917 603.061 337.731C602.922 337.661 602.794 337.568 602.682 337.458C602.515 337.275 602.441 337.016 602.272 336.837C602.115 336.671 601.483 336.453 601.393 336.792C601.357 336.926 601.493 337.075 601.51 337.224C601.291 337.082 601.065 336.953 600.831 336.838C600.844 336.808 600.861 336.78 600.872 336.749C599.787 335.847 598.925 334.689 598.358 333.372C598.455 333.375 598.552 333.381 598.649 333.38C598.815 333.396 598.981 333.354 599.12 333.261C599.178 333.206 599.223 333.139 599.252 333.064C599.281 332.989 599.293 332.908 599.287 332.827C599.275 332.666 599.237 332.509 599.175 332.36C599.036 331.916 598.815 331.505 598.524 331.149C598.242 330.866 597.92 330.629 597.57 330.446L597.514 330.413C597.49 330.338 597.468 330.262 597.439 330.189C597.228 329.734 596.989 329.293 596.724 328.869C596.351 328.159 596.076 327.398 595.907 326.609C595.844 326.129 595.667 325.672 595.39 325.28C594.88 324.697 594.005 324.711 593.25 324.8C593.082 324.819 592.914 324.849 592.746 324.873C592.99 324.947 593.211 325.088 593.385 325.28C593.661 325.672 593.838 326.129 593.901 326.609C594.07 327.398 594.345 328.159 594.718 328.869C594.983 329.293 595.222 329.734 595.433 330.189C595.462 330.262 595.484 330.338 595.508 330.413L595.564 330.446C595.914 330.629 596.236 330.866 596.518 331.149C596.809 331.505 597.03 331.916 597.169 332.36C597.231 332.509 597.269 332.666 597.281 332.827C597.287 332.908 597.275 332.989 597.246 333.064C597.217 333.139 597.172 333.206 597.114 333.261C596.975 333.354 596.809 333.396 596.643 333.38C596.546 333.381 596.449 333.375 596.352 333.372C596.919 334.689 597.781 335.847 598.866 336.749C598.855 336.78 598.838 336.808 598.825 336.838C599.059 336.953 599.285 337.082 599.504 337.224C599.487 337.075 599.351 336.926 599.387 336.792C599.477 336.453 600.109 336.671 600.266 336.837C600.435 337.016 600.509 337.275 600.676 337.458C600.788 337.568 600.916 337.661 601.055 337.731C601.382 337.917 601.708 338.104 602.035 338.291C602.186 338.383 602.345 338.461 602.509 338.523C602.694 338.576 602.882 338.617 603.072 338.645C603.344 338.698 603.609 338.779 603.865 338.888C604.057 338.969 604.272 339.11 604.271 339.326C604.263 339.431 604.222 339.531 604.153 339.609C603.699 340.059 603.092 340.305 602.464 340.294C601.805 340.367 601.138 340.429 600.474 340.436C600.715 340.586 600.897 340.819 600.986 341.095C601 341.179 601 341.265 600.985 341.349L601.006 341.363C601.52 341.702 602.032 342.046 602.541 342.394C602.636 342.459 602.732 342.525 602.827 342.59C602.85 342.564 602.875 342.539 602.902 342.517C603.033 342.442 603.183 342.408 603.332 342.419C603.482 342.43 603.625 342.486 603.744 342.58C603.98 342.77 604.197 342.986 604.39 343.222C604.91 343.724 605.539 344.088 606.225 344.281C606.907 344.472 607.599 344.626 608.297 344.741C608.437 344.76 608.572 344.805 608.696 344.874C608.829 344.975 608.929 345.116 608.982 345.278C609.035 345.44 609.038 345.615 608.992 345.779C608.893 346.106 608.715 346.402 608.476 346.637C608.287 346.87 608.053 347.058 607.789 347.189C607.626 347.253 607.455 347.292 607.281 347.305C607.886 347.36 608.494 347.367 609.1 347.325C609.338 347.32 609.572 347.273 609.795 347.189C610.059 347.058 610.293 346.87 610.482 346.637C610.721 346.402 610.899 346.106 610.998 345.779C611.044 345.615 611.041 345.44 610.988 345.278C610.935 345.116 610.835 344.975 610.702 344.874Z" fill="#FF6584"/>
<path d="M599.578 343.137C599.611 343.168 599.644 343.201 599.677 343.231C599.653 343.194 599.625 343.158 599.603 343.119L599.578 343.137Z" fill="#FF6584"/>
<path d="M629.447 337.37C629.447 344.721 626.289 342.694 622.392 342.694C618.496 342.694 615.337 344.721 615.337 337.37C615.337 330.019 622.392 316.073 622.392 316.073C622.392 316.073 629.447 330.019 629.447 337.37Z" fill="#FF6584"/>
<path opacity="0.1" d="M625.599 340.182C625.599 343.524 624.163 342.602 622.392 342.602C620.621 342.602 619.185 343.524 619.185 340.182C619.185 336.841 622.392 330.502 622.392 330.502C622.392 330.502 625.599 336.841 625.599 340.182Z" fill="black"/>
<path d="M631.235 317.727C631.235 317.727 632.701 316.146 632.672 314.595Z" fill="#FF6584"/>
<path d="M616.215 304.55C616.215 304.55 615.603 302.45 614.285 301.717Z" fill="#FF6584"/>
<path d="M601.504 276.103C601.504 276.103 600.892 274.002 599.574 273.27Z" fill="#FF6584"/>
<path d="M618.889 314.264C618.889 314.264 618.277 312.163 616.959 311.431Z" fill="#FF6584"/>
<path d="M616.883 280.266C616.883 280.266 616.271 278.165 614.953 277.433Z" fill="#FF6584"/>
<path d="M612.871 292.755C612.871 292.755 612.259 290.654 610.941 289.922Z" fill="#FF6584"/>
<path d="M629.898 339.236C629.898 339.236 631.364 337.655 631.335 336.104Z" fill="#FF6584"/>
<path d="M632.573 327.441C632.573 327.441 634.038 325.86 634.009 324.309Z" fill="#FF6584"/>
<path d="M614.262 325.458L598.214 331.008L598.426 331.667L614.474 326.116L614.262 325.458Z" fill="#FF6584"/>
<path d="M613.097 326.12C613.699 328.562 612.688 327.979 611.766 328.177C610.843 328.375 611.025 329.256 609.757 326.837C608.88 325.164 610.166 324.978 611.088 324.78C612.01 324.582 612.686 324.452 613.097 326.12Z" fill="#FF6584"/>
<path opacity="0.1" d="M384.305 192.857L384.304 192.856L369.714 178.936L369.583 178.97L363.741 173.459L363.459 173.374L363.763 173.254L301.631 113.977L241.627 56.7295L211.052 73.5578L208.551 74.1323L245.192 131.513L383.863 348.684H547.635L384.305 192.857Z" fill="#F2F2F2"/>
<path d="M223.863 82.944C233.834 82.944 241.917 74.5567 241.917 64.2104C241.917 53.8641 233.834 45.4768 223.863 45.4768C213.892 45.4768 205.809 53.8641 205.809 64.2104C205.809 74.5567 213.892 82.944 223.863 82.944Z" fill="#F2F2F2"/>
<path d="M10 0.5H668C673.247 0.5 677.5 4.7533 677.5 10V348.5H0.5V10C0.5 4.7533 4.7533 0.5 10 0.5Z" stroke="black"/>
</svg>
