<?xml version="1.0" encoding="UTF-8"?>
<svg version="1.1" viewBox="0 0 1000 270" xmlns="http://www.w3.org/2000/svg">
<g transform="translate(-.60604 .47742)">
<svg width="1e3" height="270" data-background-color="#469d89" viewBox="0 0 396 107" xmlns="http://www.w3.org/2000/svg" xmlns:xlink="http://www.w3.org/1999/xlink">
<g transform="translate(.23999 -.1892)">
<svg width="395.52" height="107.38" viewBox="0 0 395.52 107.37839721254356">
<svg width="395.52" height="107.38" viewBox="0 0 395.52 107.37839721254356">
<svg width="395.52" height="107.38" viewBox="0 0 395.52 107.37839721254356">
<svg width="395.52" height="107.38" viewBox="0 0 395.52 107.37839721254356">
<svg width="395.52" height="107.38" viewBox="0 0 395.52 107.37839721254356">
<g>
<svg width="395.52" height="107.38" data-palette-color="#e9ecef" viewBox="3.5 -35.75 172.17999267578125 46.75">
<path class="undefined-text-0" d="m16.55-26.1q-3.7 0-6.65 1.6t-4.67 4.62q-1.73 3.03-1.73 7.28v23.6h4.6v-15.55h0.1q0.85 1.55 2.23 2.7 1.37 1.15 3.15 1.8 1.77 0.65 3.72 0.65 3.55 0 6.35-1.6t4.43-4.53q1.62-2.92 1.62-6.92 0-3.15-0.97-5.68-0.98-2.52-2.73-4.32t-4.15-2.73q-2.4-0.92-5.3-0.92zm0 3.95q2.35 0 4.28 1.15 1.92 1.15 3.07 3.25t1.15 5q0 2.8-1.12 4.9-1.13 2.1-3.03 3.3t-4.3 1.2q-2.35 0-4.27-1.15-1.93-1.15-3.05-3.28-1.13-2.12-1.13-5.02 0-2.85 1.13-4.95 1.12-2.1 3.05-3.25 1.92-1.15 4.22-1.15zm23.5 22.15h-4.6v-18.25q0-3.4 1.92-5.33 1.93-1.92 5.33-1.92h5.25v3.95h-4.4q-1.65 0-2.58 0.95-0.92 0.95-0.92 2.65v17.95zm16.79 0h-4.64v-25.5h4.64v25.5zm-2.29-29.55q-1.25 0-2.18-0.93-0.92-0.92-0.92-2.17t0.92-2.18q0.93-0.92 2.18-0.92t2.17 0.92q0.93 0.93 0.93 2.18t-0.93 2.17q-0.92 0.93-2.17 0.93zm21.94 29.55h-12.75v-3.95h12.2q1.2 0 2.08-0.53 0.87-0.52 1.32-1.37t0.45-1.8q0-0.9-0.4-1.68-0.4-0.77-1.22-1.25-0.83-0.47-1.98-0.47h-5.15q-2.45 0-4.27-0.83-1.83-0.82-2.85-2.42-1.03-1.6-1.03-3.9 0-1.95 0.95-3.6t2.65-2.68q1.7-1.02 3.9-1.02h11.75v3.95h-11.3q-1.55 0-2.45 0.95t-0.9 2.25q0 1.25 0.93 2.17 0.92 0.93 2.62 0.93h4.9q2.75 0 4.63 0.87 1.87 0.88 2.85 2.53 0.97 1.65 0.97 4.05 0 2.05-1 3.82-1 1.78-2.77 2.88-1.78 1.1-4.13 1.1zm27.9 0h-6q-3.4 0-5.32-1.95-1.93-1.95-1.93-5.3v-24.65h4.6v24.35q0 1.65 0.93 2.62 0.92 0.98 2.57 0.98h5.15v3.95zm0.1-21.55h-17.75v-3.95h17.75v3.95zm10.2 21.55h-4.65v-25.5h4.65v25.5zm-2.3-29.55q-1.25 0-2.18-0.93-0.92-0.92-0.92-2.17t0.92-2.18q0.93-0.92 2.18-0.92t2.17 0.92q0.93 0.93 0.93 2.18t-0.93 2.17q-0.92 0.93-2.17 0.93zm14.15 29.55h-4.6v-14.75q0-3.4 1.52-5.95 1.53-2.55 4.23-3.98 2.7-1.42 6.15-1.42 3.5 0 6.17 1.42 2.68 1.43 4.2 3.98 1.53 2.55 1.53 5.95v14.75h-4.6v-14.7q0-2.3-1.03-3.98-1.02-1.67-2.7-2.57-1.67-0.9-3.57-0.9t-3.58 0.9q-1.67 0.9-2.7 2.57-1.02 1.68-1.02 3.98v14.7zm45.99 0h-6.55q-4.2 0-7.45-1.58-3.25-1.57-5.07-4.45-1.83-2.87-1.83-6.72 0-3.8 1.55-6.83 1.55-3.02 4.3-4.77t6.4-1.75q3.95 0 6.58 1.7 2.62 1.7 3.92 4.57 1.3 2.88 1.3 6.43 0 0.55-0.02 1.15-0.03 0.6-0.13 1.05h-19q0.25 2.35 1.55 3.97 1.3 1.63 3.33 2.45 2.02 0.83 4.47 0.83h6.65v3.95zm-16.05-14.45h14.55q0-0.95-0.2-2.03-0.2-1.07-0.7-2.09-0.5-1.03-1.32-1.86-0.83-0.82-2.05-1.32-1.23-0.5-2.88-0.5-1.75 0-3.07 0.67-1.33 0.68-2.28 1.8-0.95 1.13-1.45 2.53t-0.6 2.8z" data-fill-palette-color="primary"/>
</svg>
</g>
</svg>
</svg>
</svg>
</svg>
</svg>
<rect width="395.52" height="107.38" fill="none" visibility="hidden"/>
</g>
</svg>
</g>
</svg>
