<svg width="120" height="120" viewBox="0 0 120 120" fill="none" xmlns="http://www.w3.org/2000/svg">
<path fill="none" d="M44.8093 38.0815C40.9467 32.6416 34.2835 25.1534 36.9396 17.3159C38.8705 11.6182 44.7161 10.259 49.2491 9.42307C56.8218 8.02658 66.8343 6.78162 74.1849 10.2459C77.3784 11.7511 80.3819 14.9297 81.2935 18.9111C82.4375 23.908 80.0521 28.9735 77.7368 32.9482C76.4492 35.1586 74.5117 38.8036 72.0046 39.3042" stroke="#4361EE" stroke-width="1.5" stroke-linecap="round"/>
<rect x="0.626884" y="0.322638" width="23.0227" height="29.2749" rx="1.5" transform="matrix(0.951413 -0.307918 0.302356 0.953195 42.9329 26.686)" fill="#FFC8DD" stroke="#4361EE"/>
<path d="M62.1494 58.6482C64.4192 59.172 63.815 61.9412 65.2895 62.9358C67.4551 62.3097 69.0341 61.2701 71.3563 61.2701C74.0678 61.2701 77.3727 62.5421 76.9658 65.8353C75.9837 73.7846 70.3419 81.1423 66.3565 87.7973C65.7481 88.8133 65.6647 89.4275 64.7865 88.6456C63.6045 87.5932 62.6567 86.2623 61.7683 84.9595C57.6819 78.9673 52.9864 71.6522 54.1925 63.9691C54.4825 62.1211 56.178 58.0372 58.613 58.0005C59.6914 57.9842 61.1004 58.4062 62.1494 58.6482Z" fill="#FFC8DD"/>
<rect x="0.669693" y="0.217826" width="23.0501" height="29.2409" rx="1.5" transform="matrix(0.889296 -0.457332 0.45009 0.892983 16.4813 26.5047)" fill="#4361EE" stroke="#4361EE"/>
<rect x="0.506223" y="0.49357" width="41.0512" height="34.0551" rx="1.5" transform="matrix(0.999918 -0.0127811 0.0125268 0.999922 29.9939 11.544)" fill="#FFC8DD" stroke="#4361EE"/>
<rect x="0.425023" y="0.566357" width="25.921" height="29.297" rx="1.5" transform="matrix(0.989791 0.142526 -0.139746 0.990188 42.3174 15.9955)" fill="white" stroke="#4361EE"/>
<rect x="0.339332" y="0.622557" width="23.0194" height="29.279" rx="1.5" transform="matrix(0.958507 0.285068 -0.279844 0.960045 55.6617 20.0191)" fill="#C1EEB9" stroke="#4361EE"/>
<rect x="0.313676" y="0.636134" width="23.0252" height="29.2719" rx="1.5" transform="matrix(0.94593 0.324371 -0.318577 0.947897 64.8635 27.093)" fill="#F870B1" stroke="#4361EE"/>
<g filter="url(#filter0_d_1_3)">
<path d="M23.8085 38.7727H77.6507C78.9814 38.7727 80.0789 39.8151 80.1474 41.144L83.588 107.871C83.6617 109.301 82.5226 110.5 81.0913 110.5H16.3538C14.8632 110.5 13.7038 109.204 13.8693 107.722L21.324 40.9952C21.4653 39.7297 22.5352 38.7727 23.8085 38.7727Z" fill="white" stroke="#4361EE"/>
<path d="M87.8593 38.7778H80.3037C79.7309 38.7778 79.2751 39.258 79.305 39.83L82.9504 109.547C82.9782 110.078 83.4171 110.495 83.9491 110.495H106.694C107.352 110.495 107.831 109.87 107.659 109.234L88.8247 39.517C88.7069 39.0808 88.3111 38.7778 87.8593 38.7778Z" stroke="#4361EE" stroke-miterlimit="10"/>
<path d="M108 111L95.5 102.414L84.25 39.2828H88L108 111Z" fill="white"/>
<path d="M82.7022 111L95.3511 102.214L108 111H82.7022Z" fill="#4361EE"/>
<path d="M79.875 39.2828H84.25L95.3511 102.214L82.7022 111L79.875 39.2828Z" fill="#BDE0FE"/>
<ellipse cx="67.375" cy="42.8182" rx="4.375" ry="3.53535" fill="#4361EE"/>
<ellipse cx="33.625" cy="42.8182" rx="4.375" ry="3.53535" fill="#4361EE"/>
</g>
<path d="M50.1158 57.2948C50.7466 55.5222 53.2534 55.5222 53.8842 57.2948L56.6907 65.1812C56.9744 65.9783 57.7289 66.5106 58.575 66.5106H67.2414C69.2226 66.5106 69.9979 69.0821 68.347 70.1773L61.6581 74.6145C60.8926 75.1223 60.5714 76.0862 60.8794 76.9516L63.5064 84.3337C64.1509 86.1448 62.1185 87.7335 60.5166 86.6709L53.1056 81.7547C52.4355 81.3102 51.5645 81.3102 50.8944 81.7547L43.4834 86.6709C41.8815 87.7335 39.8491 86.1448 40.4936 84.3337L43.1206 76.9516C43.4286 76.0862 43.1074 75.1223 42.3419 74.6145L35.653 70.1773C34.0021 69.0821 34.7774 66.5106 36.7586 66.5106H45.425C46.2711 66.5106 47.0256 65.9783 47.3093 65.1812L50.1158 57.2948Z" fill="#FFC8DD"/>
<path fill="none" d="M63.3851 42.631C67.3503 46.9383 74.1545 52.8335 71.649 59.2474C69.8276 63.9101 64.0099 65.1586 59.4944 65.9502C51.9507 67.2727 41.9652 68.5341 34.5508 65.9147C31.3296 64.7767 28.2663 62.2787 27.279 59.0777C26.0398 55.0603 28.3277 50.898 30.5663 47.6208C31.8112 45.7983 33.6784 42.7976 36.1752 42.3288" stroke="#4361EE" stroke-width="1.5" stroke-linecap="round"/>
<defs>
<filter id="filter0_d_1_3" x="9.35345" y="38.2727" width="102.841" height="80.7273" filterUnits="userSpaceOnUse" color-interpolation-filters="sRGB">
<feFlood flood-opacity="0" result="BackgroundImageFix"/>
<feColorMatrix in="SourceAlpha" type="matrix" values="0 0 0 0 0 0 0 0 0 0 0 0 0 0 0 0 0 0 127 0" result="hardAlpha"/>
<feOffset dy="4"/>
<feGaussianBlur stdDeviation="2"/>
<feComposite in2="hardAlpha" operator="out"/>
<feColorMatrix type="matrix" values="0 0 0 0 0 0 0 0 0 0 0 0 0 0 0 0 0 0 0.15 0"/>
<feBlend mode="normal" in2="BackgroundImageFix" result="effect1_dropShadow_1_3"/>
<feBlend mode="normal" in="SourceGraphic" in2="effect1_dropShadow_1_3" result="shape"/>
</filter>
</defs>
</svg>
