<svg width="120" height="120" viewBox="0 0 120 120" fill="none" xmlns="http://www.w3.org/2000/svg">
<g filter="url(#filter0_d_1_3)">
<path d="M47.2409 38.2843C46.942 29.0198 49.9431 20.5492 57.8577 15.1544C61.0879 12.9525 64.6928 11.3311 68.6238 12.8399C73.715 14.7941 78.4553 19.8606 80.3306 24.9349C81.6835 28.5959 81.0418 31.822 79.9125 35.3128C79.6245 36.2029 76.7417 37.7281 76 38.2843" stroke="#4361EE" stroke-width="1.5" stroke-linecap="round"/>
<rect x="27.6287" y="26.6467" width="23" height="29" rx="1.5" transform="rotate(-17.7658 27.6287 26.6467)" fill="#FFC8DD" stroke="#4361EE"/>
<rect x="40.5063" y="16.7973" width="23" height="29" rx="1.5" transform="rotate(-0.725002 40.5063 16.7973)" fill="#BDE0FE" stroke="#4361EE"/>
<rect x="56.9566" y="24.6342" width="23" height="29" rx="1.5" transform="rotate(18.7515 56.9566 24.6342)" fill="#4361EE" stroke="#4361EE"/>
<path d="M29.2414 38.5H71.1224C72.4626 38.5 73.5644 39.5569 73.6202 40.8959L76.3702 106.896C76.4294 108.316 75.2939 109.5 73.8724 109.5H23.283C21.8136 109.5 20.661 108.239 20.7932 106.775L26.7515 40.7752C26.8678 39.4868 27.9478 38.5 29.2414 38.5Z" fill="white" stroke="#4361EE"/>
<path d="M79.6948 38.5H74.0431C73.4743 38.5 73.02 38.9739 73.044 39.5422L75.9595 108.542C75.9822 109.078 76.4228 109.5 76.9586 109.5H94.7581C95.3964 109.5 95.8713 108.91 95.7351 108.287L80.6717 39.2867C80.5715 38.8274 80.1649 38.5 79.6948 38.5Z" stroke="#4361EE" stroke-miterlimit="10"/>
<path d="M96 110L86 101.5L77 39H80L96 110Z" fill="white"/>
<path d="M75.7617 110L85.8809 101.302L96 110H75.7617Z" fill="#4361EE"/>
<path d="M73.5 39H77L85.8809 101.302L75.7617 110L73.5 39Z" fill="#BDE0FE"/>
<circle cx="63.5" cy="42.5" r="3.5" fill="#4361EE"/>
<circle cx="36.5" cy="42.5" r="3.5" fill="#4361EE"/>
<path d="M45.9856 58.1489C48.2283 58.6604 47.6313 61.3645 49.0881 62.3358C51.2278 61.7244 52.7879 60.7092 55.0823 60.7092C57.7614 60.7092 61.0266 61.9514 60.6247 65.1672C59.6543 72.9299 54.0801 80.1148 50.1424 86.6137C49.5413 87.6058 49.4588 88.2055 48.5911 87.442C47.4233 86.4143 46.4869 85.1146 45.6091 83.8425C41.5716 77.991 36.9323 70.8476 38.1239 63.3448C38.4105 61.5403 40.0857 57.5522 42.4915 57.5163C43.557 57.5004 44.9492 57.9125 45.9856 58.1489Z" fill="#FFC8DD"/>
<path d="M62.6586 43.3475C66.3899 47.6184 72.7901 53.4662 70.4481 59.8112C68.7456 64.4239 63.2841 65.6498 59.0448 66.4256C51.9626 67.7216 42.587 68.9531 35.6194 66.3471C32.5922 65.215 29.7111 62.7367 28.7784 59.5662C27.6077 55.587 29.7492 51.4705 31.8459 48.2301C33.0119 46.4281 34.7603 43.4608 37.1043 43.0011" stroke="#4361EE" stroke-width="1.5" stroke-linecap="round"/>
</g>
<defs>
<filter id="filter0_d_1_3" x="-4" y="0" width="128" height="128" filterUnits="userSpaceOnUse" color-interpolation-filters="sRGB">
<feFlood flood-opacity="0" result="BackgroundImageFix"/>
<feColorMatrix in="SourceAlpha" type="matrix" values="0 0 0 0 0 0 0 0 0 0 0 0 0 0 0 0 0 0 127 0" result="hardAlpha"/>
<feOffset dy="4"/>
<feGaussianBlur stdDeviation="2"/>
<feComposite in2="hardAlpha" operator="out"/>
<feColorMatrix type="matrix" values="0 0 0 0 0 0 0 0 0 0 0 0 0 0 0 0 0 0 0.25 0"/>
<feBlend mode="normal" in2="BackgroundImageFix" result="effect1_dropShadow_1_3"/>
<feBlend mode="normal" in="SourceGraphic" in2="effect1_dropShadow_1_3" result="shape"/>
</filter>
</defs>
</svg>
