<svg width="120" height="120" viewBox="0 0 120 120" fill="none" xmlns="http://www.w3.org/2000/svg">
<path d="M89.2596 65.2816C90.169 66.152 90.6487 67.3049 90.5932 68.4869C90.5377 69.6688 89.9514 70.7829 88.9635 71.584L63.7984 91.9914L56.9406 85.4282L82.1056 65.0208C83.0936 64.2196 84.4023 63.797 85.7439 63.8459C87.0856 63.8949 88.3502 64.4113 89.2596 65.2816V65.2816Z" fill="#F2948B" fill-opacity="0.71"/>
<path d="M100.972 66.8218C101.881 67.6921 102.361 68.8451 102.305 70.027C102.25 71.2089 101.663 72.323 100.676 73.1242L75.5087 93.533L68.6508 86.9697L93.8177 66.5609C94.8056 65.7598 96.1143 65.3371 97.456 65.3861C98.7976 65.435 100.062 65.9514 100.972 66.8218V66.8218Z" fill="#F9A498" fill-opacity="0.74"/>
<path d="M111.563 69.3613C110.595 68.5126 109.302 68.0261 107.947 68.001C106.592 67.976 105.278 68.4142 104.271 69.2265L87.0846 83.3837L75.4421 83.7055C75.8751 82.8732 76.0991 81.9661 76.0983 81.0481V81.0481C76.0983 79.3755 75.3557 77.7714 74.0338 76.5886C72.7119 75.4059 70.9191 74.7415 69.0496 74.7415H39.7148C37.3296 74.7406 34.982 75.2729 32.8851 76.29C30.7882 77.307 29.0085 78.7766 27.7076 80.5653L21.6603 88.8965L10.149 102.44C10.0781 102.524 10.0306 102.621 10.0107 102.724C9.99071 102.828 9.99884 102.934 10.0344 103.034C10.0699 103.133 10.1318 103.224 10.2148 103.298C10.2977 103.372 10.3994 103.427 10.5112 103.458L40.8328 111.97C40.9692 112.008 41.1151 112.01 41.2525 111.975C41.39 111.94 41.5128 111.869 41.6058 111.772L52.3004 100.544L78.9616 97.2821C83.6751 96.7028 88.0778 94.8474 91.5788 91.965L111.42 75.6222C111.905 75.2284 112.295 74.7501 112.567 74.2166C112.839 73.683 112.986 73.1055 112.999 72.5194C113.012 71.9333 112.892 71.3509 112.645 70.8079C112.398 70.2649 112.03 69.7726 111.563 69.3613V69.3613Z" fill="#FFD0C8"/>
<path d="M40 86.0574H70.5562C71.3742 86.0588 72.1819 85.8817 72.9182 85.5395C73.6545 85.1973 74.3001 84.6989 74.8063 84.082L74.8429 84.0351L76 84C76 84 74.3693 87.0228 73.2171 87.5149C72.0648 88.007 42.7268 88 42.7268 88L40 86.0574Z" fill="#F9A498"/>
<path d="M61.79 62.4046C73.647 62.4046 83.259 52.7926 83.259 40.9356C83.259 29.0786 73.647 19.4666 61.79 19.4666C49.933 19.4666 40.321 29.0786 40.321 40.9356C40.321 52.7926 49.933 62.4046 61.79 62.4046Z" fill="#FFD44D" fill-opacity="0.5"/>
<path d="M61.79 56.7752C70.538 56.7752 77.6296 49.6836 77.6296 40.9356C77.6296 32.1876 70.538 25.096 61.79 25.096C53.042 25.096 45.9504 32.1876 45.9504 40.9356C45.9504 49.6836 53.042 56.7752 61.79 56.7752Z" fill="#F9BB0D" fill-opacity="0.44"/>
<path d="M61.3924 48.4312V47.111C59.7383 46.9417 58.1805 46.252 56.9432 45.1412L58.2634 43.5676C59.2751 44.4468 60.3181 44.9713 61.3924 45.1412V41.6314C60.0307 41.3066 59.0329 40.8787 58.3992 40.3476C57.7655 39.8165 57.4491 39.0297 57.45 37.9872C57.45 36.9456 57.8145 36.0925 58.5434 35.428C59.2723 34.7635 60.222 34.4023 61.3924 34.3444V33.44H62.5488V34.3612C63.9018 34.4676 65.2012 34.9361 66.3106 35.7178L65.1346 37.3824C64.3706 36.8279 63.4831 36.4675 62.5488 36.3324V39.74H62.6034C63.9913 40.0657 65.01 40.5058 65.6596 41.0602C66.3092 41.6146 66.6359 42.4191 66.6396 43.4738C66.6396 44.5294 66.2663 45.3885 65.5196 46.0512C64.7729 46.7139 63.7841 47.0755 62.553 47.1362V48.4382L61.3924 48.4312ZM60.117 36.758C59.9698 36.8819 59.8521 37.037 59.7724 37.2121C59.6927 37.3872 59.6531 37.5779 59.6564 37.7702C59.6472 37.9463 59.6745 38.1224 59.7367 38.2875C59.7989 38.4525 59.8945 38.6029 60.0176 38.7292C60.2584 38.9644 60.7167 39.1903 61.3924 39.4068V36.2778C60.8492 36.3273 60.4241 36.4873 60.117 36.758ZM63.9236 44.6876C64.072 44.5642 64.1934 44.4115 64.28 44.239C64.3666 44.0665 64.4166 43.878 64.4268 43.6853C64.4371 43.4925 64.4074 43.2998 64.3396 43.1191C64.2718 42.9384 64.1673 42.7736 64.0328 42.6352C63.7668 42.3888 63.2721 42.1555 62.5488 41.9352V45.2C63.0476 45.1688 63.526 44.9905 63.9236 44.6876Z" fill="white"/>
<path d="M40.4593 37.3067C40.4423 37.6243 40.3571 37.9344 40.2096 38.2148C40.0622 38.4953 39.8561 38.7393 39.606 38.9294L32.7888 44.1167C32.3576 44.4444 31.821 44.593 31.2876 44.5325C30.7541 44.472 30.2634 44.2069 29.9147 43.7908L24.0333 36.7679C23.6767 36.3312 23.5031 35.7682 23.5502 35.2009C23.5973 34.6335 23.8613 34.1074 24.285 33.7364C24.7087 33.3655 25.258 33.1797 25.814 33.2191C26.3699 33.2585 26.8878 33.5201 27.2554 33.9472L31.8519 39.436L37.0854 35.4519C37.5364 35.109 38.1019 34.9626 38.6575 35.045C39.2131 35.1273 39.7135 35.4316 40.0488 35.8911C40.344 36.2988 40.4893 36.7999 40.4593 37.3067Z" fill="#BDE0FE"/>
<path d="M91.9657 45.3908C90.8161 53.5642 86.4755 60.9493 79.8937 65.9299C73.3119 70.9104 65.025 73.0807 56.8469 71.9657C56.2162 71.8783 55.6461 71.5441 55.2619 71.0364C54.8777 70.5287 54.711 69.8892 54.7983 69.2585C54.8856 68.6279 55.2199 68.0577 55.7276 67.6735C56.2353 67.2894 56.8748 67.1226 57.5055 67.2099C62.6658 67.9246 67.9222 67.093 72.6099 64.8203C77.2976 62.5476 81.2061 58.9358 83.8411 54.4418C86.4762 49.9477 87.7194 44.7732 87.4136 39.5726C87.1078 34.372 85.2667 29.3789 82.1231 25.2247C78.9795 21.0704 74.6747 17.9416 69.7529 16.234C64.8311 14.5263 59.5135 14.3165 54.4725 15.631C49.4315 16.9455 44.8935 19.7254 41.4323 23.619C37.9712 27.5126 35.7424 32.3451 35.0277 37.5055C34.9404 38.1361 34.6061 38.7062 34.0984 39.0904C33.5907 39.4746 32.9512 39.6414 32.3205 39.554C31.6899 39.4667 31.1198 39.1324 30.7356 38.6247C30.3514 38.117 30.1846 37.4775 30.272 36.8468C31.405 28.6658 35.7415 21.2698 42.3276 16.2861C48.9136 11.3023 57.2097 9.13897 65.3908 10.272C73.5719 11.405 80.9679 15.7415 85.9516 22.3276C90.9354 28.9136 93.0987 37.2097 91.9657 45.3908V45.3908Z" fill="#BDE0FE"/>
</svg>
