<svg width="120" height="120" viewBox="0 0 120 120" fill="none" xmlns="http://www.w3.org/2000/svg">
<g filter="url(#filter0_d_1_53)">
<path d="M114.521 81.1618C114.522 85.2051 113.428 89.1657 111.364 92.5821C109.301 95.9985 106.354 98.7301 102.866 100.459C101.649 101.063 100.377 101.536 99.0694 101.871C97.4648 102.292 95.8168 102.504 94.1626 102.503C90.1353 102.503 86.1983 101.251 82.8497 98.9061C79.501 96.5611 76.8911 93.2281 75.3498 89.3286C73.8086 85.4291 73.4054 81.1381 74.1911 76.9984C74.9768 72.8587 76.9162 69.0561 79.764 66.0716C82.6117 63.087 86.24 61.0545 90.19 60.231C94.14 59.4076 98.2343 59.8302 101.955 61.4454C105.676 63.0607 108.856 65.796 111.094 69.3055C113.331 72.815 114.525 76.941 114.525 81.1618H114.521Z" fill="#BDE0FE"/>
<path d="M94.1626 103C92.4884 103.002 90.8202 102.791 89.1941 102.373C87.8605 102.034 86.563 101.554 85.3218 100.941C81.0331 98.835 77.5569 95.2606 75.466 90.8068C73.3752 86.353 72.7944 81.2856 73.8195 76.4396C74.8445 71.5936 77.4142 67.2581 81.1051 64.1476C84.7959 61.0371 89.3878 59.3371 94.124 59.3278C98.8601 59.3185 103.458 61.0005 107.16 64.0965C110.862 67.1925 113.447 71.5179 114.489 76.3598C115.532 81.2018 114.969 86.2714 112.894 90.7334C110.819 95.1953 107.356 98.7834 103.075 100.906C101.836 101.525 100.54 102.01 99.2071 102.353C97.5571 102.784 95.863 103.001 94.1626 103ZM94.1626 60.3183C91.3471 60.3198 88.5639 60.9477 85.9972 62.1607C83.4306 63.3736 81.1389 65.1439 79.2738 67.3544C77.4086 69.5649 76.0126 72.1652 75.178 74.9834C74.3435 77.8016 74.0893 80.7733 74.4325 83.7021C74.7756 86.6309 75.7082 89.4499 77.1686 91.9728C78.6289 94.4956 80.5837 96.6647 82.9037 98.3367C85.2237 100.009 87.856 101.145 90.6264 101.671C93.3968 102.197 96.2423 102.101 98.9745 101.389C100.247 101.062 101.484 100.6 102.667 100.011C106.75 97.9855 110.054 94.5638 112.034 90.3087C114.015 86.0537 114.555 81.2188 113.566 76.5993C112.576 71.9799 110.116 67.851 106.589 64.8919C103.063 61.9329 98.6801 60.3199 94.1626 60.3183Z" fill="#4361EE"/>
<path d="M102.866 96.7882V100.454C101.649 101.058 100.377 101.531 99.0695 101.866C97.465 102.289 95.817 102.503 94.1626 102.503C91.1777 102.512 88.2274 101.833 85.5211 100.513V96.7882C85.5224 95.1561 86.1419 93.5913 87.2435 92.4377C88.3452 91.2841 89.8387 90.6361 91.396 90.6361H97.0099C98.5643 90.6401 100.054 91.29 101.152 92.4433C102.249 93.5966 102.866 95.1592 102.866 96.7882Z" fill="#F56132" fill-opacity="0.59"/>
<path d="M94.1626 103C92.4884 103.002 90.8202 102.791 89.1941 102.373C87.8605 102.034 86.5631 101.554 85.3218 100.941C85.2402 100.901 85.171 100.838 85.1222 100.759C85.0735 100.68 85.0473 100.588 85.0466 100.493V96.7882C85.0491 95.0246 85.719 93.3341 86.9094 92.0875C88.0997 90.8409 89.7133 90.1401 91.396 90.1388H97.0099C98.6894 90.1454 100.298 90.8485 101.484 92.0945C102.671 93.3405 103.338 95.0281 103.34 96.7882V100.454C103.34 100.547 103.315 100.639 103.267 100.718C103.219 100.798 103.151 100.861 103.07 100.901C101.831 101.52 100.535 102.005 99.2023 102.348C97.5541 102.781 95.8616 102.999 94.1626 103ZM85.9957 100.175C90.07 102.092 94.6407 102.52 98.9746 101.389C100.15 101.086 101.296 100.668 102.396 100.14V96.7882C102.394 95.2915 101.825 93.8567 100.816 92.7979C99.8066 91.7391 98.4381 91.1424 97.0099 91.1384H91.3913C89.9611 91.1398 88.5896 91.7351 87.5774 92.7941C86.5652 93.853 85.9947 95.2893 85.9909 96.7882L85.9957 100.175Z" fill="#4361EE"/>
<path d="M92.7959 91.2479L94.3904 99.2451L95.7429 91.2479H92.7959Z" fill="#4361EE"/>
<path d="M94.3904 99.7375C94.2801 99.74 94.1723 99.7022 94.0857 99.6305C93.9991 99.5588 93.939 99.4577 93.9159 99.3446L92.3214 91.3473C92.3071 91.2742 92.3088 91.1987 92.3261 91.1264C92.3435 91.054 92.3762 90.9867 92.4218 90.9294C92.4674 90.8721 92.5246 90.8262 92.5894 90.7953C92.6542 90.7643 92.7248 90.749 92.7959 90.7505H95.7476C95.8174 90.7495 95.8865 90.7645 95.95 90.7946C96.0135 90.8247 96.07 90.8691 96.1153 90.9247C96.1606 90.9802 96.1937 91.0456 96.2121 91.116C96.2306 91.1865 96.234 91.2604 96.2222 91.3324L94.8697 99.3296C94.8495 99.4455 94.7907 99.5501 94.7038 99.6248C94.6169 99.6994 94.5075 99.7394 94.3952 99.7375H94.3904ZM93.3796 91.7452L94.3287 96.6241L95.1544 91.7452H93.3796Z" fill="#4361EE"/>
<path d="M93.4556 65.5851C93.8182 65.5255 94.1847 65.4955 94.5518 65.4956C96.2507 65.4956 97.978 65.4508 99.525 66.2466C101.087 67.0592 102.402 68.311 103.324 69.8621C104.246 71.4131 104.738 73.2023 104.745 75.0296L104.389 82.3107H84.0833C84.044 81.8564 84.0712 81.3986 84.1639 80.9529C84.1518 80.4771 84.0849 80.0045 83.9646 79.5455C83.7245 78.3573 83.5879 77.1488 83.5565 75.9348C83.561 74.0241 83.9406 72.1348 84.6717 70.3845C85.0846 69.3301 85.5686 68.2409 86.456 67.5844C87.3434 66.928 88.7528 66.9031 89.3839 67.8331C90.4635 66.6283 91.8969 65.8369 93.4556 65.5851Z" fill="#725858" fill-opacity="0.81"/>
<path d="M104.403 82.808H84.9469C83.808 82.808 83.6135 82.808 83.5992 82.3803C83.5416 82.032 83.5513 81.6752 83.6277 81.3309C83.6538 81.1997 83.6712 81.0668 83.6799 80.933C83.6818 80.5968 83.6387 80.262 83.5518 79.9384C83.5518 79.8339 83.509 79.7295 83.4901 79.625C83.2414 78.4079 83.1016 77.1692 83.0725 75.9248C83.0771 73.9464 83.4679 71.9898 84.2209 70.1756C84.6432 69.1063 85.17 67.8978 86.176 67.1567C86.6405 66.8053 87.1966 66.6116 87.7694 66.6018C88.3422 66.592 88.9041 66.7666 89.3792 67.102C90.4859 66.0234 91.8763 65.3182 93.3701 65.0778C93.7586 65.0206 94.15 64.9874 94.5423 64.9784H94.846C96.4784 64.9784 98.1678 64.9784 99.7243 65.7791C101.37 66.6286 102.758 67.9426 103.73 69.5733C104.703 71.204 105.222 73.0867 105.229 75.0097C105.229 75.0097 105.229 75.0097 104.868 82.3156C104.867 82.445 104.818 82.5687 104.731 82.6607C104.644 82.7526 104.527 82.8054 104.403 82.808ZM84.5293 81.8133H103.957C104.033 80.2119 104.285 75.0694 104.289 75.0047C104.28 73.2724 103.81 71.5772 102.933 70.1092C102.055 68.6412 100.804 67.4587 99.321 66.6942C97.959 65.9979 96.4499 65.9979 94.8555 65.993H94.5518C94.2089 66.0017 93.8667 66.0299 93.5267 66.0775C92.0733 66.3104 90.7365 67.0477 89.7304 68.1713C89.6829 68.2251 89.6247 68.2673 89.5599 68.2948C89.4951 68.3223 89.4253 68.3345 89.3555 68.3304C89.2851 68.3256 89.2166 68.3043 89.155 68.2681C89.0934 68.232 89.0403 68.1819 88.9996 68.1216C88.525 67.4352 87.4146 67.485 86.7312 67.9873C85.9387 68.5741 85.4974 69.5887 85.1083 70.5734C84.4056 72.2636 84.039 74.0862 84.0311 75.9298C84.0584 77.1124 84.1918 78.2896 84.4297 79.446C84.4297 79.5455 84.4676 79.6449 84.4914 79.7444C84.5928 80.1451 84.6423 80.5583 84.6385 80.9728C84.6286 81.15 84.6064 81.3262 84.572 81.5C84.5578 81.6094 84.5388 81.7139 84.5293 81.8133Z" fill="#4361EE"/>
<path d="M92.7959 89.4674H95.7476V91.2479C95.7476 91.5961 95.6156 91.93 95.3807 92.1763C95.1457 92.4225 94.8271 92.5608 94.4948 92.5608H94.0487C93.7165 92.5608 93.3978 92.4225 93.1629 92.1763C92.9279 91.93 92.7959 91.5961 92.7959 91.2479V89.4674Z" fill="#FFC9B0"/>
<path d="M94.4948 93.0582H94.0487C93.591 93.0569 93.1524 92.8657 92.8287 92.5265C92.505 92.1873 92.3226 91.7276 92.3214 91.2479V89.4674C92.3214 89.3355 92.3714 89.209 92.4604 89.1157C92.5494 89.0224 92.6701 88.97 92.7959 88.97H95.7476C95.8735 88.97 95.9942 89.0224 96.0832 89.1157C96.1722 89.209 96.2222 89.3355 96.2222 89.4674V91.2479C96.2209 91.7276 96.0385 92.1873 95.7149 92.5265C95.3912 92.8657 94.9526 93.0569 94.4948 93.0582ZM93.2705 89.9647V91.2479C93.2705 91.4642 93.3525 91.6716 93.4984 91.8246C93.6444 91.9776 93.8423 92.0635 94.0487 92.0635H94.4948C94.7008 92.0622 94.8981 91.9758 95.0437 91.8232C95.1894 91.6705 95.2718 91.4638 95.2731 91.2479V89.9647H93.2705Z" fill="#4361EE"/>
<path d="M86.3231 84.0215C87.8144 84.0215 89.0233 82.8614 89.0233 81.4304C89.0233 79.9993 87.8144 78.8392 86.3231 78.8392C84.8319 78.8392 83.6229 79.9993 83.6229 81.4304C83.6229 82.8614 84.8319 84.0215 86.3231 84.0215Z" fill="#FFC9B0"/>
<path d="M86.3231 84.5189C85.7506 84.4734 85.2032 84.2539 84.7479 83.8874C84.2927 83.5208 83.9493 83.023 83.7598 82.455C83.5704 81.887 83.5431 81.2735 83.6813 80.6894C83.8195 80.1054 84.1173 79.5764 84.5381 79.167C84.9588 78.7577 85.4844 78.4858 86.0504 78.3847C86.6163 78.2837 87.1981 78.3578 87.7245 78.598C88.2509 78.8382 88.699 79.2341 89.014 79.7372C89.329 80.2402 89.4971 80.8287 89.4978 81.4304C89.4657 82.2804 89.1137 83.0826 88.5187 83.6614C87.9238 84.2401 87.1344 84.5484 86.3231 84.5189ZM86.3231 79.3415C85.9376 79.3857 85.5726 79.546 85.2721 79.803C84.9717 80.06 84.7487 80.4027 84.6302 80.7897C84.5116 81.1766 84.5026 81.5913 84.6041 81.9836C84.7056 82.3758 84.9134 82.7289 85.2023 83C85.4912 83.2711 85.8488 83.4488 86.232 83.5114C86.6152 83.5741 87.0074 83.5191 87.3614 83.353C87.7154 83.187 88.0159 82.9171 88.2266 82.5759C88.4373 82.2347 88.5492 81.8368 88.5487 81.4304C88.5145 80.8454 88.2616 80.2981 87.8451 79.9072C87.4285 79.5162 86.8817 79.313 86.3231 79.3415Z" fill="#4361EE"/>
<path d="M102.064 84.0215C103.555 84.0215 104.764 82.8614 104.764 81.4304C104.764 79.9993 103.555 78.8392 102.064 78.8392C100.573 78.8392 99.3637 79.9993 99.3637 81.4304C99.3637 82.8614 100.573 84.0215 102.064 84.0215Z" fill="#FFC9B0"/>
<path d="M102.064 84.5189C101.491 84.4734 100.944 84.2539 100.489 83.8874C100.033 83.5208 99.69 83.023 99.5005 82.455C99.3111 81.887 99.2838 81.2735 99.422 80.6894C99.5602 80.1054 99.858 79.5764 100.279 79.167C100.7 78.7577 101.225 78.4858 101.791 78.3847C102.357 78.2837 102.939 78.3578 103.465 78.598C103.992 78.8382 104.44 79.2341 104.755 79.7372C105.07 80.2402 105.238 80.8287 105.239 81.4304C105.206 82.2804 104.854 83.0826 104.259 83.6614C103.665 84.2401 102.875 84.5484 102.064 84.5189ZM102.064 79.3415C101.678 79.3857 101.313 79.546 101.013 79.803C100.712 80.06 100.489 80.4027 100.371 80.7897C100.252 81.1766 100.243 81.5913 100.345 81.9836C100.446 82.3758 100.654 82.7289 100.943 83C101.232 83.2711 101.59 83.4488 101.973 83.5114C102.356 83.5741 102.748 83.5191 103.102 83.353C103.456 83.187 103.757 82.9171 103.967 82.5759C104.178 82.2347 104.29 81.8368 104.289 81.4304C104.256 80.8449 104.004 80.2969 103.587 79.9057C103.17 79.5144 102.623 79.3117 102.064 79.3415Z" fill="#4361EE"/>
<path d="M94.2718 89.8702C91.9782 89.8702 89.7785 88.9157 88.1563 87.2165C86.534 85.5172 85.622 83.2124 85.6208 80.8087V75.9298C85.6208 75.9298 87.799 74.6268 88.4443 72.5777C88.4443 72.5777 91.7662 76.5564 94.9741 76.268C97.6402 76.0332 100.292 75.6464 102.918 75.1092V80.8087C102.918 83.212 102.007 85.5168 100.386 87.2162C98.7641 88.9155 96.5649 89.8702 94.2718 89.8702Z" fill="#FFC9B0"/>
<path d="M94.2718 90.3676C91.8531 90.3649 89.5342 89.3572 87.8235 87.5652C86.1128 85.7733 85.15 83.3435 85.1462 80.8087V75.9298C85.1464 75.8417 85.1689 75.7552 85.2114 75.6791C85.2539 75.6031 85.315 75.5403 85.3883 75.4971C85.3883 75.4971 87.4146 74.2637 87.9935 72.4236C88.0195 72.34 88.0661 72.2652 88.1286 72.2066C88.1911 72.1481 88.2673 72.108 88.3494 72.0903C88.4313 72.0729 88.5161 72.0785 88.5953 72.1064C88.6744 72.1344 88.7451 72.1837 88.8003 72.2495C88.8335 72.2893 92.0082 76.0193 94.9361 75.7756C97.5829 75.5386 100.216 75.1534 102.823 74.6218C102.892 74.6069 102.963 74.6081 103.031 74.6253C103.099 74.6425 103.162 74.6752 103.217 74.7213C103.272 74.7681 103.316 74.8272 103.347 74.8943C103.377 74.9615 103.393 75.0349 103.393 75.1092V80.8087C103.39 83.3431 102.428 85.7729 100.718 87.5649C99.0084 89.357 96.69 90.3649 94.2718 90.3676ZM86.0953 76.2083V80.8087C86.1468 83.045 87.0305 85.1716 88.5578 86.7341C90.0852 88.2967 92.135 89.1714 94.2694 89.1714C96.4038 89.1714 98.4536 88.2967 99.981 86.7341C101.508 85.1716 102.392 83.045 102.443 80.8087V75.711C101.224 75.9497 98.2058 76.4968 95.0121 76.7653C92.3404 76.9891 89.6877 74.587 88.6009 73.463C87.9871 74.5748 87.1279 75.5162 86.0953 76.2083Z" fill="#4361EE"/>
<path d="M94.2243 82.808C93.951 82.8069 93.6781 82.7836 93.4081 82.7384C93.3458 82.727 93.2862 82.7028 93.2328 82.6672C93.1794 82.6317 93.1332 82.5854 93.0969 82.5312C93.0605 82.4769 93.0347 82.4157 93.0209 82.351C93.0072 82.2862 93.0057 82.2193 93.0166 82.154C93.0275 82.0887 93.0506 82.0263 93.0845 81.9703C93.1184 81.9143 93.1625 81.8659 93.2143 81.8278C93.2661 81.7897 93.3245 81.7627 93.3863 81.7483C93.448 81.7338 93.5119 81.7323 93.5742 81.7437C93.8752 81.7964 94.181 81.8114 94.4853 81.7885C94.3385 81.205 94.125 80.6422 93.8494 80.1124C93.8153 80.0542 93.7929 79.9893 93.7838 79.9216C93.7747 79.854 93.7789 79.7851 93.7963 79.7192C93.8137 79.6534 93.8439 79.592 93.8849 79.5389C93.9259 79.4858 93.977 79.4421 94.0348 79.4106C94.0927 79.3791 94.1561 79.3604 94.2211 79.3557C94.2862 79.3511 94.3514 79.3605 94.4128 79.3834C94.4743 79.4063 94.5305 79.4422 94.5781 79.489C94.6257 79.5357 94.6635 79.5921 94.6894 79.6549C95.1402 80.5551 95.6385 81.7487 95.3727 82.3256C95.3333 82.4211 95.2734 82.5058 95.1977 82.5731C95.122 82.6403 95.0325 82.6884 94.9362 82.7135C94.7033 82.7748 94.4644 82.8065 94.2243 82.808Z" fill="#4361EE"/>
<path d="M89.2985 102.388C89.1727 102.388 89.052 102.336 88.963 102.243C88.874 102.149 88.824 102.023 88.824 101.891V97.3104C88.824 97.1785 88.874 97.052 88.963 96.9588C89.052 96.8655 89.1727 96.8131 89.2985 96.8131C89.4244 96.8131 89.5451 96.8655 89.6341 96.9588C89.7231 97.052 89.7731 97.1785 89.7731 97.3104V101.891C89.7731 102.023 89.7231 102.149 89.6341 102.243C89.5451 102.336 89.4244 102.388 89.2985 102.388Z" fill="#4361EE"/>
<path d="M99.0884 102.368C98.9626 102.368 98.8419 102.316 98.7529 102.223C98.6639 102.129 98.6139 102.003 98.6139 101.871V97.3104C98.6139 97.1785 98.6639 97.052 98.7529 96.9588C98.8419 96.8655 98.9626 96.8131 99.0884 96.8131C99.2143 96.8131 99.335 96.8655 99.424 96.9588C99.513 97.052 99.563 97.1785 99.563 97.3104V101.871C99.563 102.003 99.513 102.129 99.424 102.223C99.335 102.316 99.2143 102.368 99.0884 102.368Z" fill="#4361EE"/>
</g>
<g filter="url(#filter1_d_1_53)">
<path d="M46.1907 38.8083C46.1922 42.8497 45.0985 46.8085 43.0369 50.2238C40.9753 53.6391 38.0305 56.3706 34.5453 58.1002C31.8203 59.4518 28.8427 60.1517 25.8279 60.1492C21.8003 60.1502 17.8629 58.8994 14.5136 56.555C11.1643 54.2107 8.55364 50.878 7.0117 46.9786C5.46976 43.0791 5.06583 38.7881 5.851 34.648C6.63616 30.508 8.57516 26.7049 11.4228 23.7199C14.2704 20.7348 17.8987 18.7018 21.8488 17.8779C25.7989 17.0541 29.8934 17.4764 33.6145 19.0915C37.3356 20.7066 40.5161 23.4419 42.7538 26.9515C44.9916 30.4611 46.1859 34.5873 46.1859 38.8083H46.1907Z" fill="#BDE0FE"/>
</g>
<path d="M25.8276 60.6462C22.6933 60.6514 19.5984 59.9152 16.7732 58.4927C12.5188 56.3401 9.08883 52.7359 7.0461 48.2714C5.00337 43.8069 4.4692 38.7474 5.53123 33.9229C6.59327 29.0984 9.18843 24.7955 12.8909 21.7201C16.5934 18.6448 21.1833 16.9796 25.9076 16.9979C30.6319 17.0162 35.21 18.7169 38.8907 21.8208C42.5714 24.9248 45.1361 29.2477 46.1641 34.0803C47.1921 38.9129 46.6222 43.9681 44.5481 48.4167C42.4739 52.8652 39.0186 56.4427 34.7491 58.5624C31.9579 59.9368 28.9115 60.6484 25.8276 60.6462ZM25.8276 17.9645C21.8925 17.9625 18.0453 19.1837 14.7726 21.4736C11.4998 23.7635 8.94861 27.0192 7.44164 30.8289C5.93467 34.6386 5.53965 38.8311 6.30654 42.8761C7.07342 46.9211 8.96777 50.6368 11.75 53.5533C14.5321 56.4699 18.0772 58.4561 21.9366 59.2608C25.796 60.0654 29.7965 59.6525 33.4319 58.074C37.0674 56.4956 40.1745 53.8226 42.3602 50.3932C44.5459 46.9638 45.7121 42.9321 45.7111 38.808C45.6998 33.2845 43.6015 27.9905 39.8752 24.0843C36.1489 20.178 31.098 17.9777 25.8276 17.9645Z" fill="#4361EE"/>
<path d="M22.3399 25.3852C22.3399 25.3852 20.3706 24.664 18.5056 27.1955C16.7593 29.5628 16.8542 32.9547 16.764 35.7796C16.6597 38.6191 16.1593 41.4274 15.2787 44.115C14.4909 46.6912 15.6346 49.4912 17.585 51.0429C19.1458 52.2015 20.9935 52.8614 22.9047 52.9427C24.4802 53.077 26.0034 52.6344 27.5457 52.8184C29.1757 53.0518 30.835 52.7698 32.3112 52.0087C33.7873 51.2476 35.013 50.042 35.8313 48.5463C36.2628 47.8305 36.5322 47.0207 36.6191 46.1789C36.6359 45.349 36.5351 44.521 36.3201 43.7221C35.6924 40.8479 35.3567 37.9122 35.3188 34.9639C35.3571 32.6012 34.8457 30.2643 33.8287 28.1553C31.456 23.5549 25.0923 21.4462 22.3399 25.3852Z" fill="#725858" fill-opacity="0.81"/>
<path d="M23.5311 53.465C23.3128 53.465 23.0897 53.465 22.8667 53.465C20.5651 53.271 18.7429 52.6195 17.2955 51.4756C15.0462 49.6852 14.0306 46.6116 14.8279 44.0155C15.6969 41.3719 16.1894 38.6085 16.2895 35.8144C16.2895 35.5458 16.2895 35.2723 16.2895 34.9987C16.3559 32.2882 16.4318 29.2097 18.107 26.9369C19.7062 24.7684 21.4288 24.7635 22.1264 24.8828C22.7016 24.1694 23.4351 23.615 24.2625 23.2681C25.0899 22.9212 25.9859 22.7926 26.8719 22.8935C28.3975 23.0517 29.8636 23.5967 31.1434 24.4814C32.4232 25.366 33.4784 26.5638 34.2179 27.9713C35.2738 30.133 35.8144 32.5306 35.7934 34.9589C35.8287 37.8665 36.1564 40.7621 36.7709 43.5977L36.8089 43.7718C37.0125 44.5625 37.1036 45.3803 37.0794 46.1988C36.9882 47.1151 36.6958 47.9969 36.2252 48.775C35.3663 50.36 34.0742 51.639 32.5154 52.4474C30.9566 53.2558 29.2026 53.5565 27.4793 53.3108C26.7107 53.2474 25.938 53.2658 25.173 53.3655C24.6462 53.4152 24.0958 53.465 23.5311 53.465ZM21.6329 25.783C21.0112 25.783 19.934 26.0367 18.8568 27.4988C17.3714 29.4882 17.3003 32.4126 17.2386 34.9589C17.2386 35.2375 17.2386 35.511 17.2386 35.7796C17.1355 38.6603 16.627 41.5093 15.7295 44.2343C15.0557 46.4475 15.9336 49.0734 17.8697 50.6152C19.3591 51.7166 21.1212 52.3419 22.9426 52.4156C23.6631 52.4549 24.3854 52.4299 25.1018 52.341C25.9316 52.2353 26.7694 52.217 27.6027 52.2863C29.1428 52.5059 30.7105 52.2378 32.1041 51.5164C33.4977 50.795 34.6536 49.6532 35.4232 48.2379C35.8195 47.5879 36.0679 46.8511 36.1493 46.0844C36.1621 45.364 36.0758 44.6454 35.893 43.9508L35.8598 43.7768C35.2256 40.8849 34.8852 37.9309 34.8443 34.9639C34.8869 32.6836 34.3982 30.4268 33.4206 28.3891C32.7516 27.1336 31.8053 26.0644 30.661 25.2709C29.5166 24.4774 28.2076 23.9828 26.8434 23.8285C26.0627 23.7332 25.2718 23.8528 24.5487 24.1755C23.8255 24.4982 23.1951 25.0128 22.7196 25.6686C22.6601 25.7545 22.576 25.8182 22.4795 25.8505C22.383 25.8827 22.2793 25.8817 22.1833 25.8477C22.0121 25.797 21.8343 25.7752 21.6566 25.783H21.6329Z" fill="#4361EE"/>
<path d="M34.5453 54.3452V58.1002C31.8203 59.4518 28.8427 60.1517 25.8279 60.1492C22.7622 60.1507 19.7355 59.4283 16.9728 58.0355V54.3452C16.9728 52.6925 17.5993 51.1075 18.7144 49.9388C19.8295 48.7701 21.3419 48.1136 22.9189 48.1136H28.6135C29.3945 48.1129 30.168 48.2737 30.8897 48.5866C31.6114 48.8995 32.2671 49.3585 32.8194 49.9373C33.3716 50.5161 33.8096 51.2034 34.1082 51.9597C34.4068 52.7161 34.5602 53.5267 34.5595 54.3452H34.5453Z" fill="#FFBC0E" fill-opacity="0.94"/>
<path d="M25.8279 60.6465C22.6936 60.6517 19.5986 59.9156 16.7735 58.4931C16.6928 58.4528 16.6245 58.3893 16.5767 58.3101C16.5288 58.231 16.5033 58.1392 16.503 58.0455V54.3552C16.503 52.5705 17.1795 50.859 18.3836 49.5971C19.5877 48.3351 21.2208 47.6262 22.9236 47.6262H28.6182C29.4617 47.6249 30.2972 47.798 31.0767 48.1357C31.8563 48.4734 32.5646 48.969 33.1611 49.5942C33.7575 50.2193 34.2304 50.9616 34.5526 51.7786C34.8749 52.5956 35.0401 53.4712 35.0388 54.3552V58.1101C35.0395 58.2047 35.0144 58.2975 34.9665 58.3777C34.9186 58.4578 34.8498 58.522 34.7683 58.5627C31.9713 59.94 28.9182 60.6516 25.8279 60.6465ZM17.4474 57.7172C18.5624 58.2613 19.7239 58.6942 20.9163 59.0103C24.0919 59.8523 27.4161 59.8642 30.5971 59.0451C31.7885 58.7386 32.9499 58.3156 34.066 57.7819V54.3453C34.0673 53.5918 33.9266 52.8456 33.6521 52.1493C33.3775 51.453 32.9745 50.8203 32.4662 50.2875C31.9579 49.7548 31.3542 49.3325 30.6898 49.0448C30.0254 48.757 29.3134 48.6096 28.5945 48.6109H22.8999C22.181 48.6096 21.469 48.757 20.8046 49.0448C20.1402 49.3325 19.5365 49.7548 19.0282 50.2875C18.5198 50.8203 18.1169 51.453 17.8423 52.1493C17.5678 52.8456 17.4271 53.5918 17.4284 54.3453L17.4474 57.7172Z" fill="#4361EE"/>
<path d="M25.7614 57.0955L24.6984 48.6408H27.4176L25.7614 57.0955Z" fill="#4361EE"/>
<path d="M25.7614 57.5929C25.6497 57.588 25.5432 57.5419 25.4607 57.4627C25.3782 57.3836 25.3251 57.2764 25.3106 57.1602L24.2476 48.7054C24.2388 48.6349 24.2445 48.5632 24.2644 48.4952C24.2842 48.4272 24.3178 48.3644 24.3628 48.3111C24.4077 48.2579 24.4631 48.2153 24.5251 48.1864C24.5871 48.1575 24.6543 48.1428 24.7222 48.1434H27.4413C27.511 48.1433 27.5799 48.1593 27.6431 48.1902C27.7062 48.2212 27.7621 48.2663 27.8067 48.3225C27.8522 48.3798 27.8847 48.4471 27.9019 48.5195C27.9192 48.5918 27.9207 48.6672 27.9064 48.7402L26.2502 57.195C26.2276 57.3116 26.1659 57.4159 26.0762 57.4889C25.9865 57.5619 25.8749 57.5988 25.7614 57.5929ZM25.2394 49.1381L25.8611 54.1115L26.8339 49.1381H25.2394Z" fill="#4361EE"/>
<path d="M20.8072 59.9851C20.6813 59.9851 20.5606 59.9327 20.4716 59.8394C20.3826 59.7461 20.3326 59.6196 20.3326 59.4877V54.8625C20.3326 54.7306 20.3826 54.6041 20.4716 54.5108C20.5606 54.4175 20.6813 54.3651 20.8072 54.3651C20.933 54.3651 21.0537 54.4175 21.1427 54.5108C21.2317 54.6041 21.2817 54.7306 21.2817 54.8625V59.4877C21.2817 59.6196 21.2317 59.7461 21.1427 59.8394C21.0537 59.9327 20.933 59.9851 20.8072 59.9851Z" fill="#4361EE"/>
<path d="M30.7204 60.0249C30.5946 60.0249 30.4739 59.9725 30.3849 59.8792C30.2959 59.7859 30.2459 59.6594 30.2459 59.5275V54.8675C30.2459 54.7356 30.2959 54.6091 30.3849 54.5158C30.4739 54.4225 30.5946 54.3701 30.7204 54.3701C30.8463 54.3701 30.967 54.4225 31.056 54.5158C31.145 54.6091 31.195 54.7356 31.195 54.8675V59.5275C31.195 59.6594 31.145 59.7859 31.056 59.8792C30.967 59.9725 30.8463 60.0249 30.7204 60.0249Z" fill="#4361EE"/>
<path d="M24.6984 47.2134H27.4176V48.8546C27.4176 49.0133 27.3878 49.1705 27.3298 49.3171C27.2719 49.4637 27.1869 49.597 27.0799 49.7092C26.9728 49.8214 26.8456 49.9104 26.7057 49.9712C26.5658 50.0319 26.4159 50.0632 26.2645 50.0632H25.8279C25.522 50.0632 25.2287 49.9358 25.0125 49.7092C24.7962 49.4825 24.6747 49.1751 24.6747 48.8546V47.2134H24.6984Z" fill="#FFC9B0"/>
<path d="M26.2597 50.5605H25.8516C25.4203 50.5592 25.007 50.379 24.702 50.0594C24.397 49.7398 24.2252 49.3066 24.2239 48.8546V47.2134C24.2239 47.0815 24.2739 46.955 24.3629 46.8617C24.4519 46.7685 24.5726 46.7161 24.6984 46.7161H27.4176C27.5435 46.7161 27.6642 46.7685 27.7532 46.8617C27.8422 46.955 27.8921 47.0815 27.8921 47.2134V48.8546C27.8909 49.3075 27.7183 49.7414 27.4123 50.0612C27.1063 50.3809 26.6918 50.5605 26.2597 50.5605ZM25.173 47.7107V48.8546C25.173 49.0432 25.2445 49.2241 25.3717 49.3575C25.499 49.4909 25.6716 49.5658 25.8516 49.5658H26.2597C26.4401 49.5658 26.6132 49.491 26.7412 49.3578C26.8693 49.2246 26.9418 49.0437 26.9431 48.8546V47.7107H25.173Z" fill="#4361EE"/>
<path d="M18.2873 42.2002C19.7471 42.2002 20.9305 41.1314 20.9305 39.813C20.9305 38.4945 19.7471 37.4257 18.2873 37.4257C16.8275 37.4257 15.6441 38.4945 15.6441 39.813C15.6441 41.1314 16.8275 42.2002 18.2873 42.2002Z" fill="#FFC9B0"/>
<path d="M18.2873 42.6975C16.5695 42.6975 15.1743 41.4045 15.1743 39.813C15.1743 38.2215 16.5695 36.9334 18.2873 36.9334C20.0052 36.9334 21.4051 38.2265 21.4051 39.813C21.4051 41.3995 20.0052 42.6975 18.2873 42.6975ZM18.2873 37.9281C17.0915 37.9281 16.1234 38.7735 16.1234 39.813C16.1234 40.8524 17.0725 41.7029 18.2873 41.7029C19.5022 41.7029 20.456 40.8524 20.456 39.813C20.456 38.7735 19.4832 37.9281 18.2873 37.9281Z" fill="#4361EE"/>
<path d="M33.6864 42.2002C35.1462 42.2002 36.3296 41.1314 36.3296 39.813C36.3296 38.4945 35.1462 37.4257 33.6864 37.4257C32.2266 37.4257 31.0431 38.4945 31.0431 39.813C31.0431 41.1314 32.2266 42.2002 33.6864 42.2002Z" fill="#FFC9B0"/>
<path d="M33.6864 42.6975C31.9685 42.6975 30.5686 41.4045 30.5686 39.813C30.5686 38.2215 31.9685 36.9334 33.6864 36.9334C35.4042 36.9334 36.7994 38.2265 36.7994 39.813C36.7994 41.3995 35.4042 42.6975 33.6864 42.6975ZM33.6864 37.9281C32.4905 37.9281 31.5177 38.7735 31.5177 39.813C31.5177 40.8524 32.4668 41.7029 33.6864 41.7029C34.906 41.7029 35.8503 40.8524 35.8503 39.813C35.8503 38.7735 34.8775 37.9281 33.6864 37.9281Z" fill="#4361EE"/>
<path d="M30.9008 32.7408L28.324 29.2594C28.324 29.2594 27.745 31.398 27.3749 32.7408H23.3128L22.3637 29.6424L21.239 32.7358H18.088V39.2759C18.088 41.4892 18.927 43.6119 20.4203 45.1769C21.9136 46.742 23.939 47.6212 26.0509 47.6212C28.1632 47.6212 30.1891 46.7421 31.6832 45.1772C33.1773 43.6123 34.0173 41.4896 34.0185 39.2759V32.7508L30.9008 32.7408Z" fill="#FFC9B0"/>
<path d="M26.0556 48.0837C23.8187 48.0811 21.674 47.1486 20.0922 45.4909C18.5105 43.8331 17.6207 41.5855 17.6182 39.241V32.701C17.6182 32.5691 17.6682 32.4426 17.7572 32.3493C17.8462 32.2561 17.9669 32.2037 18.0927 32.2037H20.94L21.9508 29.4335C21.9871 29.3343 22.0527 29.2498 22.1381 29.1926C22.2235 29.1353 22.3242 29.1082 22.4254 29.1152C22.523 29.1184 22.6173 29.153 22.6954 29.2144C22.7736 29.2758 22.8317 29.361 22.8619 29.4584L23.7161 32.2136H27.0712C27.4271 30.8957 27.9111 29.1152 27.9111 29.1152C27.9349 29.0267 27.9817 28.9468 28.0462 28.8845C28.1107 28.8222 28.1904 28.7798 28.2765 28.7621C28.3641 28.7427 28.4552 28.7497 28.5392 28.7823C28.6231 28.8148 28.6966 28.8716 28.7511 28.9461L31.1855 32.2285H34.0755C34.2014 32.2285 34.3221 32.2809 34.4111 32.3742C34.5 32.4675 34.55 32.594 34.55 32.7259V39.2162C34.5513 40.384 34.3322 41.5405 33.9054 42.6193C33.4785 43.698 32.8524 44.6776 32.0629 45.5018C31.2734 46.3259 30.3362 46.9783 29.3053 47.4214C28.2743 47.8646 27.1699 48.0896 26.0556 48.0837ZM18.5673 33.1984V39.241C18.6165 41.2889 19.4273 43.2356 20.8267 44.6658C22.2261 46.0959 24.1034 46.8964 26.058 46.8964C28.0127 46.8964 29.8899 46.0959 31.2893 44.6658C32.6888 43.2356 33.4996 41.2889 33.5487 39.241V33.2431H30.9008C30.8283 33.2429 30.7568 33.2254 30.6919 33.1917C30.6269 33.1581 30.5701 33.1093 30.5259 33.0492L28.5233 30.3536L27.8447 32.8701C27.8151 32.9768 27.7523 33.07 27.6663 33.1349C27.5803 33.1998 27.476 33.2326 27.3701 33.2282H23.308C23.2088 33.2271 23.1123 33.1934 23.0323 33.1318C22.9523 33.0702 22.8927 32.9839 22.8619 32.885L22.3162 31.1245L21.6708 32.9C21.6372 32.9944 21.577 33.0758 21.4982 33.1335C21.4193 33.1913 21.3257 33.2225 21.2295 33.2232L18.5673 33.1984Z" fill="#4361EE"/>
<path d="M26.0177 41.121C25.7633 41.1208 25.5094 41.0992 25.2584 41.0563C25.197 41.0449 25.1384 41.021 25.0858 40.9858C25.0333 40.9506 24.9878 40.9049 24.9521 40.8514C24.9164 40.7978 24.8912 40.7374 24.8778 40.6735C24.8644 40.6097 24.8631 40.5437 24.874 40.4794C24.8849 40.4151 24.9078 40.3536 24.9413 40.2985C24.9749 40.2435 25.0185 40.1958 25.0696 40.1584C25.1207 40.121 25.1784 40.0945 25.2393 40.0805C25.3002 40.0664 25.3631 40.0651 25.4245 40.0766C25.6847 40.122 25.9489 40.137 26.2123 40.1213C26.0709 39.6044 25.8785 39.1043 25.638 38.6293C25.5796 38.5126 25.5677 38.3763 25.6051 38.2504C25.6425 38.1245 25.726 38.0193 25.8374 37.9579C25.8928 37.9277 25.9534 37.9093 26.0156 37.9038C26.0779 37.8982 26.1405 37.9055 26.2 37.9254C26.2596 37.9453 26.3148 37.9773 26.3625 38.0195C26.4102 38.0618 26.4494 38.1135 26.478 38.1718C26.8956 39.0073 27.3417 40.1213 27.1091 40.6585C27.0697 40.752 27.0102 40.8347 26.9353 40.9002C26.8604 40.9658 26.7721 41.0124 26.6773 41.0364C26.4613 41.0915 26.24 41.1199 26.0177 41.121Z" fill="#4361EE"/>
<path d="M94.2718 54.1115C93.9571 54.1115 93.6554 53.9805 93.4329 53.7473C93.2104 53.5142 93.0854 53.1979 93.0854 52.8681V44.9903C93.0816 41.916 91.9144 38.9688 89.8397 36.7954C87.765 34.622 84.9524 33.3999 82.019 33.3973H49.2752C48.9606 33.3973 48.6588 33.2663 48.4363 33.0331C48.2139 32.8 48.0889 32.4837 48.0889 32.1539C48.0889 31.8242 48.2139 31.5079 48.4363 31.2748C48.6588 31.0416 48.9606 30.9106 49.2752 30.9106H82.019C85.5813 30.9145 88.9967 32.399 91.5161 35.0385C94.0355 37.678 95.4531 41.2569 95.4582 44.9903V52.8681C95.4582 53.1979 95.3332 53.5142 95.1107 53.7473C94.8882 53.9805 94.5864 54.1115 94.2718 54.1115Z" fill="#4361EE"/>
<path d="M89.9487 50.839H98.6329L94.267 55.887L89.9487 50.839Z" fill="#4361EE"/>
<path d="M94.267 56.3843C94.1997 56.3888 94.1324 56.3756 94.0711 56.3461C94.0099 56.3166 93.9565 56.2716 93.9159 56.2152L89.5927 51.1722C89.531 51.1006 89.4906 51.0116 89.4762 50.9163C89.4619 50.8209 89.4744 50.7233 89.5121 50.6352C89.5499 50.5472 89.6112 50.4725 89.6887 50.4204C89.7663 50.3683 89.8566 50.3409 89.9487 50.3417H98.6329C98.7246 50.3419 98.8142 50.3699 98.891 50.4225C98.9678 50.475 99.0285 50.5497 99.0656 50.6375C99.1028 50.7254 99.1148 50.8226 99.1003 50.9175C99.0859 51.0124 99.0455 51.1009 98.984 51.1722L94.6372 56.2202C94.5907 56.2743 94.5335 56.317 94.4695 56.3454C94.4056 56.3737 94.3364 56.387 94.267 56.3843ZM91.0116 51.3363L94.2718 55.141L97.5604 51.3363H91.0116Z" fill="#4361EE"/>
<path d="M70.179 89.4674H37.4353C33.8726 89.4687 30.455 87.9884 27.9326 85.3515C25.4103 82.7145 23.9894 79.1364 23.9819 75.4026V67.5098C23.9819 67.1801 24.1069 66.8638 24.3294 66.6307C24.5518 66.3975 24.8536 66.2665 25.1682 66.2665C25.4829 66.2665 25.7846 66.3975 26.0071 66.6307C26.2296 66.8638 26.3546 67.1801 26.3546 67.5098V75.4026C26.3584 78.4769 27.5257 81.4241 29.6003 83.5975C31.675 85.7709 34.4876 86.993 37.421 86.9956H70.1648C70.4794 86.9956 70.7812 87.1266 71.0037 87.3598C71.2262 87.593 71.3512 87.9092 71.3512 88.239C71.3512 88.5687 71.2262 88.885 71.0037 89.1181C70.7812 89.3513 70.4794 89.4823 70.1648 89.4823L70.179 89.4674Z" fill="#4361EE"/>
<path d="M29.4914 69.539H20.8072L25.1682 64.491L29.4914 69.539Z" fill="#4361EE"/>
<path d="M29.4914 70.0363H20.8072C20.7153 70.0357 20.6257 70.0072 20.549 69.9542C20.4724 69.9012 20.412 69.8261 20.3753 69.7379C20.3386 69.6505 20.3266 69.5538 20.3409 69.4594C20.3552 69.365 20.3952 69.277 20.456 69.2058L24.8171 64.1578C24.862 64.1056 24.9169 64.064 24.9783 64.0357C25.0396 64.0075 25.106 63.9931 25.173 63.9936C25.2392 63.9938 25.3047 64.0085 25.3651 64.0368C25.4256 64.065 25.4798 64.1062 25.5242 64.1578L29.8425 69.2058C29.9033 69.277 29.9433 69.365 29.9576 69.4594C29.9719 69.5538 29.96 69.6505 29.9232 69.7379C29.8865 69.8261 29.8261 69.9012 29.7495 69.9542C29.6728 70.0072 29.5832 70.0357 29.4914 70.0363ZM21.8986 69.0416H28.4474L25.1872 65.237L21.8986 69.0416Z" fill="#4361EE"/>
<defs>
<filter id="filter0_d_1_53" x="69.3256" y="59.3278" width="49.6748" height="51.6722" filterUnits="userSpaceOnUse" color-interpolation-filters="sRGB">
<feFlood flood-opacity="0" result="BackgroundImageFix"/>
<feColorMatrix in="SourceAlpha" type="matrix" values="0 0 0 0 0 0 0 0 0 0 0 0 0 0 0 0 0 0 127 0" result="hardAlpha"/>
<feOffset dy="4"/>
<feGaussianBlur stdDeviation="2"/>
<feComposite in2="hardAlpha" operator="out"/>
<feColorMatrix type="matrix" values="0 0 0 0 0 0 0 0 0 0 0 0 0 0 0 0 0 0 0.25 0"/>
<feBlend mode="normal" in2="BackgroundImageFix" result="effect1_dropShadow_1_53"/>
<feBlend mode="normal" in="SourceGraphic" in2="effect1_dropShadow_1_53" result="shape"/>
</filter>
<filter id="filter1_d_1_53" x="1.4603" y="17.4675" width="48.7304" height="50.6817" filterUnits="userSpaceOnUse" color-interpolation-filters="sRGB">
<feFlood flood-opacity="0" result="BackgroundImageFix"/>
<feColorMatrix in="SourceAlpha" type="matrix" values="0 0 0 0 0 0 0 0 0 0 0 0 0 0 0 0 0 0 127 0" result="hardAlpha"/>
<feOffset dy="4"/>
<feGaussianBlur stdDeviation="2"/>
<feComposite in2="hardAlpha" operator="out"/>
<feColorMatrix type="matrix" values="0 0 0 0 0 0 0 0 0 0 0 0 0 0 0 0 0 0 0.25 0"/>
<feBlend mode="normal" in2="BackgroundImageFix" result="effect1_dropShadow_1_53"/>
<feBlend mode="normal" in="SourceGraphic" in2="effect1_dropShadow_1_53" result="shape"/>
</filter>
</defs>
</svg>
