<svg width="110" height="110" viewBox="0 0 110 110" fill="none" xmlns="http://www.w3.org/2000/svg">
<path opacity="0.5" d="M32.6479 12.7218C29.6781 16.9375 28.8096 22.5738 24.7217 25.8204C22.1492 27.8709 18.7261 28.5837 15.7359 30.0239C8.67568 33.4194 4.29996 41.2967 5.28564 48.798C5.72372 52.1349 7.11437 55.3596 7.06853 58.7233C6.99467 63.581 3.94847 67.9554 3.18947 72.7618C2.11719 79.5699 5.75174 86.2657 10.1657 91.7019C12.7814 94.9216 15.9015 98.0266 19.9614 99.2691C23.303 100.287 26.907 99.9258 30.404 100.126C37.6527 100.536 44.4863 103.355 51.5567 104.954C58.6271 106.553 66.7036 106.734 72.4623 102.491C75.1035 100.538 77.0953 97.7654 80.0625 96.3057C82.3675 95.1731 85.024 94.9534 87.594 94.6458C94.6466 93.8061 102.259 91.7287 106.187 86.0533C109.042 81.9255 109.371 76.6308 108.714 71.7195C108.056 66.8081 106.518 62.0285 105.97 57.1049C104.715 45.8053 108.729 34.4202 107.471 23.1231C106.913 18.1482 105.206 13.0733 101.416 9.62652C96.4447 5.09106 89.0203 4.25622 82.1612 4.06338C74.0593 3.84612 65.9522 4.22693 57.8579 4.60773C49.2695 5.0105 37.9864 5.14476 32.6479 12.7218Z" fill="#FFC8DD"/>
<g filter="url(#filter0_d_1_2)">
<path d="M35.5709 25.5012C35.25 25.4187 34.9378 25.6663 34.9446 25.9979L35.8488 70.2774C35.8533 70.4964 35.9998 70.6864 36.2103 70.7461L68.1722 79.8095C68.4894 79.8995 68.8065 79.6624 68.8105 79.3322L69.3528 34.5746C69.3555 34.3449 69.2015 34.1436 68.9793 34.0865L35.5709 25.5012Z" fill="white"/>
<path fill="none" d="M35.5709 25.5012C35.25 25.4187 34.9378 25.6663 34.9446 25.9979L35.8488 70.2774C35.8533 70.4964 35.9998 70.6864 36.2103 70.7461L68.1722 79.8095C68.4894 79.8995 68.8065 79.6624 68.8105 79.3322L69.3528 34.5746C69.3555 34.3449 69.2015 34.1436 68.9793 34.0865L35.5709 25.5012Z" stroke="#4361EE" stroke-linejoin="bevel"/>
</g>
<path d="M104.571 23.4073C104.567 23.0722 104.241 22.837 103.921 22.9387L69.3009 33.9405C69.0923 34.0067 68.9504 34.2006 68.9504 34.4192L68.9504 79.3261C68.9504 79.6753 69.2992 79.9154 69.6261 79.7911L104.724 66.4501C104.921 66.3753 105.05 66.1853 105.048 65.975L104.571 23.4073Z" fill="white" stroke="#4361EE" stroke-linejoin="bevel"/>
<path d="M35.9957 25.7717C35.5196 25.6411 35.5042 24.9717 35.9737 24.8151L68.4988 13.9687C68.5882 13.9389 68.684 13.9349 68.7753 13.9571L103.147 22.3256C103.633 22.4441 103.659 23.126 103.183 23.2855L69.014 34.7369C68.9197 34.7685 68.8184 34.7713 68.7228 34.7451L35.9957 25.7717Z" fill="white" stroke="#4361EE" stroke-linejoin="bevel"/>
<path d="M90.847 27.3998C91.3061 27.2422 91.2974 26.5898 90.8343 26.4486L59.5542 16.9143C59.4543 16.8839 59.3474 16.8856 59.2482 16.9191L52.578 19.1742C52.1222 19.3283 52.1223 19.9731 52.5782 20.1229L82.7996 30.0565C82.9031 30.0905 83.0149 30.0897 83.1181 30.0542L90.847 27.3998Z" fill="#4361EE" fill-opacity="0.53" stroke="#4361EE" stroke-miterlimit="10"/>
<path d="M92.5801 52.9846L85.785 54.9944C85.4127 55.1033 85.0026 55.0841 84.6444 54.941C84.2862 54.7979 84.0091 54.5424 83.8736 54.2306C83.8083 54.0807 83.7771 53.9222 83.7814 53.7632L83.4461 30.8899C83.4431 30.6802 83.5712 30.4903 83.7671 30.4143L92.1719 27.1533C92.4936 27.0285 92.8407 27.2579 92.8509 27.6021L93.5686 51.8595C93.5577 52.1091 93.4578 52.3496 93.2816 52.5501C93.1054 52.7506 92.8611 52.9019 92.5801 52.9846Z" fill="#4361EE" fill-opacity="0.53" stroke="#4361EE" stroke-miterlimit="10"/>
<path d="M2.76977 53.6361C2.4458 53.5362 2.11731 53.7817 2.12076 54.1211L2.43254 84.8574C2.43477 85.0765 2.57943 85.2681 2.7894 85.33L35.0116 94.8243C35.3343 94.9193 35.6581 94.6743 35.6547 94.3375L35.3474 64.043C35.3452 63.8262 35.2034 63.6361 34.9965 63.5722L2.76977 53.6361Z" fill="white"/>
<path d="M2.76977 53.6361C2.4458 53.5362 2.11731 53.7817 2.12076 54.1211L2.43254 84.8574C2.43477 85.0765 2.57943 85.2681 2.7894 85.33L35.0116 94.8243C35.3343 94.9193 35.6581 94.6743 35.6547 94.3375L35.3474 64.043C35.3452 63.8262 35.2034 63.6361 34.9965 63.5722L2.76977 53.6361Z" fill="white" stroke="#4361EE" stroke-linejoin="bevel"/>
<path d="M68.7914 53.1718C68.7879 52.8332 68.456 52.5972 68.1345 52.7048L35.6904 63.5635C35.4838 63.6326 35.3451 63.8271 35.3473 64.0447L35.6544 94.3281C35.6579 94.6676 35.9916 94.9037 36.3135 94.7943L68.7559 83.7678C68.9613 83.698 69.0989 83.504 69.0967 83.2873L68.7914 53.1718Z" fill="white" stroke="#4361EE" stroke-linejoin="bevel"/>
<path d="M3.55402 53.8781C3.09442 53.7365 3.08352 53.0899 3.53802 52.9289L34.9623 41.7976C35.0654 41.7611 35.1774 41.7593 35.2812 41.7924L67.3275 52.0124C67.7875 52.1591 67.7897 52.8093 67.3306 52.963L35.4938 63.6231C35.3946 63.6564 35.2876 63.6577 35.1878 63.627L3.55402 53.8781Z" fill="white" stroke="#4361EE" stroke-linejoin="bevel"/>
<path d="M55.2792 57.1727C55.7386 57.0169 55.7324 56.3649 55.2702 56.2216L23.054 46.2333C22.9533 46.2021 22.8451 46.2036 22.7449 46.2377L16.5032 48.3614C16.0441 48.5176 16.0507 49.1693 16.5128 49.3124L48.7311 59.2927C48.8317 59.3239 48.9396 59.3224 49.0396 59.2885L55.2792 57.1727Z" fill="#4361EE" fill-opacity="0.53" stroke="#4361EE" stroke-miterlimit="10"/>
<path d="M56.1892 76.844L50.7508 78.6892C50.4527 78.7894 50.1187 78.7905 49.822 78.6923C49.5252 78.5939 49.2897 78.4043 49.167 78.1648C49.108 78.0498 49.0761 77.9267 49.073 77.8016L48.8895 59.7045C48.8873 59.4876 49.0252 59.2935 49.2308 59.2238L56.0997 56.8978C56.4215 56.7888 56.7548 57.0249 56.7583 57.3643L56.9464 75.9218C56.9477 76.1183 56.8764 76.3111 56.7413 76.4754C56.6065 76.6397 56.4141 76.7681 56.1892 76.844Z" fill="#4361EE" fill-opacity="0.53" stroke="#4361EE" stroke-miterlimit="10"/>
<path d="M57.3967 66.9283C57.0738 66.8238 56.7427 67.0646 56.7427 67.404V87.1446C56.7427 87.3637 56.8854 87.5573 57.0947 87.6222L77.7462 94.0238C78.0679 94.1236 78.3942 93.8831 78.3942 93.5463V74.0899C78.3942 73.8731 78.2545 73.681 78.0483 73.6142L57.3967 66.9283Z" fill="white"/>
<path d="M57.3967 66.9283C57.0738 66.8238 56.7427 67.0646 56.7427 67.404V87.1446C56.7427 87.3637 56.8854 87.5573 57.0947 87.6222L77.7462 94.0238C78.0679 94.1236 78.3942 93.8831 78.3942 93.5463V74.0899C78.3942 73.8731 78.2545 73.681 78.0483 73.6142L57.3967 66.9283Z" fill="white" stroke="#4361EE" stroke-linejoin="bevel"/>
<path d="M100.326 67.4013C100.326 67.0627 99.9961 66.822 99.6735 66.9251L78.742 73.6151C78.5349 73.6813 78.3943 73.8739 78.3943 74.0913V93.5366C78.3943 93.8763 78.7257 94.1171 79.0487 94.0122L99.9802 87.214C100.186 87.1471 100.326 86.9551 100.326 86.7385V67.4013Z" fill="white" stroke="#4361EE" stroke-linejoin="bevel"/>
<path d="M58.1786 67.1815C57.7205 67.0332 57.7161 66.3868 58.1721 66.2322L78.2348 59.4332C78.3382 59.3981 78.4503 59.3979 78.5539 59.4326L98.876 66.2316C99.3344 66.385 99.33 67.0349 98.8696 67.182L78.5474 73.6773C78.4478 73.7091 78.3407 73.7089 78.2412 73.6767L58.1786 67.1815Z" fill="white" stroke="#4361EE" stroke-linejoin="bevel"/>
<path d="M90.9609 69.8199C91.4218 69.6705 91.4222 69.0187 90.9616 68.8687L70.5309 62.2191C70.4304 62.1864 70.3221 62.1863 70.2216 62.219L66.6873 63.3682C66.2268 63.5179 66.2267 64.1694 66.6873 64.3192L87.1201 70.9641C87.2204 70.9967 87.3285 70.9967 87.4288 70.9642L90.9609 69.8199Z" fill="#4361EE" fill-opacity="0.53" stroke="#4361EE" stroke-miterlimit="10"/>
<path d="M91.9319 82.5301L88.3652 83.6864C88.1696 83.7492 87.9513 83.7468 87.7581 83.6798C87.5647 83.6128 87.412 83.4865 87.3334 83.3288C87.2955 83.253 87.2755 83.1721 87.2744 83.0903V71.378C87.2744 71.1611 87.4142 70.969 87.6205 70.9023L91.7792 69.5568C92.1021 69.4523 92.4331 69.6931 92.4331 70.0325V81.934C92.4326 82.0624 92.3846 82.1879 92.2953 82.2941C92.206 82.4003 92.0795 82.4825 91.9319 82.5301Z" fill="#4361EE" fill-opacity="0.53" stroke="#4361EE" stroke-miterlimit="10"/>
<defs>
<filter id="filter0_d_1_2" x="30.4445" y="24.9849" width="43.4082" height="63.3442" filterUnits="userSpaceOnUse" color-interpolation-filters="sRGB">
<feFlood flood-opacity="0" result="BackgroundImageFix"/>
<feColorMatrix in="SourceAlpha" type="matrix" values="0 0 0 0 0 0 0 0 0 0 0 0 0 0 0 0 0 0 127 0" result="hardAlpha"/>
<feOffset dy="4"/>
<feGaussianBlur stdDeviation="2"/>
<feComposite in2="hardAlpha" operator="out"/>
<feColorMatrix type="matrix" values="0 0 0 0 0 0 0 0 0 0 0 0 0 0 0 0 0 0 0.25 0"/>
<feBlend mode="normal" in2="BackgroundImageFix" result="effect1_dropShadow_1_2"/>
<feBlend mode="normal" in="SourceGraphic" in2="effect1_dropShadow_1_2" result="shape"/>
</filter>
</defs>
</svg>
