<svg width="167" height="163" viewBox="0 0 167 163" fill="none" xmlns="http://www.w3.org/2000/svg">
<g filter="url(#filter0_d_1_61)">
<path d="M85.4292 0.337709L80.2556 1.78685L16.5161 19.6407L11.3425 21.0898C8.83131 21.7965 6.68073 23.5563 5.36259 25.9831C4.04444 28.4099 3.66637 31.3055 4.31133 34.0347L26.7451 128.525C27.3957 131.253 29.0158 133.589 31.2501 135.021C33.4843 136.453 36.1502 136.863 38.6629 136.163L38.6762 136.159L112.736 115.414L112.75 115.411C115.261 114.704 117.411 112.944 118.729 110.517C120.048 108.09 120.426 105.195 119.781 102.466L97.3469 7.97493C96.6963 5.2473 95.0762 2.91136 92.8419 1.4796C90.6077 0.0478355 87.9418 -0.362827 85.4292 0.337709Z" fill="#F2F2F2"/>
<path d="M86.1325 3.3001L80.0047 5.01652L18.1734 22.3358L12.0457 24.0522C10.2574 24.5555 8.72596 25.8086 7.78727 27.5368C6.84858 29.265 6.57934 31.3271 7.03863 33.2706L29.4724 127.761C29.9357 129.704 31.0895 131.367 32.6805 132.387C34.2716 133.406 36.17 133.699 37.9593 133.2L37.9727 133.196L112.033 112.452L112.046 112.448C113.834 111.945 115.366 110.691 116.304 108.963C117.243 107.235 117.512 105.173 117.053 103.229L94.6193 8.73875C94.156 6.79636 93.0023 5.1329 91.4112 4.1133C89.8202 3.09371 87.9218 2.80126 86.1325 3.3001Z" fill="white"/>
<path d="M81.5056 33.8987L44.0405 44.3929C43.622 44.5101 43.1778 44.4419 42.8056 44.2034C42.4335 43.9649 42.1637 43.5756 42.0558 43.1211C41.9479 42.6666 42.0107 42.1841 42.2302 41.7798C42.4498 41.3756 42.8083 41.0826 43.2267 40.9654L80.6918 30.4712C81.1101 30.3545 81.554 30.4229 81.9259 30.6614C82.2978 30.9 82.5672 31.2892 82.6751 31.7434C82.7829 32.1976 82.7203 32.6798 82.501 33.084C82.2817 33.4881 81.9237 33.7811 81.5056 33.8987Z" fill="#F2F2F2"/>
<path d="M89.387 37.8596L45.4136 50.1768C44.9952 50.294 44.551 50.2258 44.1788 49.9873C43.8066 49.7488 43.5369 49.3595 43.429 48.905C43.3211 48.4505 43.3838 47.968 43.6034 47.5637C43.823 47.1595 44.1814 46.8665 44.5999 46.7493L88.5733 34.4321C88.9917 34.3149 89.4359 34.383 89.8081 34.6216C90.1803 34.8601 90.45 35.2494 90.5579 35.7039C90.6658 36.1584 90.6031 36.6409 90.3835 37.0451C90.1639 37.4494 89.8055 37.7424 89.387 37.8596Z" fill="#F2F2F2"/>
<path d="M87.6595 59.819L50.1943 70.3132C49.9871 70.3712 49.7714 70.3844 49.5596 70.3519C49.3477 70.3194 49.1438 70.2418 48.9595 70.1237C48.7752 70.0056 48.6142 69.8493 48.4855 69.6636C48.3569 69.4779 48.2631 69.2664 48.2097 69.0414C48.1563 68.8163 48.1442 68.5821 48.1741 68.3519C48.204 68.1218 48.2754 67.9003 48.3841 67.7002C48.4928 67.5 48.6368 67.325 48.8078 67.1853C48.9787 67.0455 49.1734 66.9437 49.3806 66.8857L86.8457 56.3915C87.0529 56.3335 87.2686 56.3203 87.4805 56.3528C87.6923 56.3853 87.8962 56.4629 88.0805 56.581C88.2648 56.6991 88.4259 56.8554 88.5545 57.0411C88.6832 57.2268 88.7769 57.4383 88.8303 57.6633C88.8838 57.8884 88.8959 58.1226 88.8659 58.3528C88.836 58.5829 88.7647 58.8044 88.6559 59.0046C88.5472 59.2047 88.4032 59.3797 88.2323 59.5194C88.0613 59.6592 87.8666 59.761 87.6595 59.819Z" fill="#F2F2F2"/>
<path d="M95.5409 63.7799L51.5675 76.0971C51.3603 76.1551 51.1446 76.1682 50.9327 76.1357C50.7209 76.1032 50.517 76.0257 50.3327 75.9076C50.1484 75.7895 49.9873 75.6332 49.8587 75.4474C49.73 75.2617 49.6363 75.0503 49.5829 74.8253C49.5294 74.6002 49.5173 74.3659 49.5473 74.1358C49.5772 73.9057 49.6486 73.6842 49.7573 73.484C49.866 73.2839 50.01 73.1089 50.1809 72.9692C50.3519 72.8294 50.5466 72.7276 50.7537 72.6696L94.7271 60.3524C95.1456 60.2352 95.5897 60.3033 95.9619 60.5418C96.3341 60.7803 96.6038 61.1697 96.7118 61.6242C96.8197 62.0787 96.7569 62.5612 96.5373 62.9654C96.3178 63.3697 95.9593 63.6627 95.5409 63.7799Z" fill="#F2F2F2"/>
<path d="M93.8134 85.7393L56.3483 96.2335C55.9299 96.3503 55.486 96.282 55.1141 96.0434C54.7421 95.8049 54.4726 95.4157 54.3647 94.9614C54.2569 94.5071 54.3195 94.0248 54.5389 93.6207C54.7582 93.2165 55.1163 92.9235 55.5345 92.806L92.9996 82.3118C93.4181 82.1946 93.8623 82.2627 94.2345 82.5013C94.6066 82.7398 94.8764 83.1291 94.9843 83.5836C95.0922 84.0381 95.0294 84.5206 94.8099 84.9248C94.5903 85.3291 94.2318 85.6221 93.8134 85.7393Z" fill="#F2F2F2"/>
<path d="M101.695 89.7002L57.7215 102.017C57.5142 102.076 57.2984 102.089 57.0864 102.057C56.8744 102.024 56.6703 101.947 56.4859 101.829C56.3015 101.711 56.1402 101.554 56.0115 101.368C55.8827 101.183 55.7889 100.971 55.7355 100.746C55.682 100.521 55.6699 100.286 55.6999 100.056C55.7299 99.8258 55.8014 99.6043 55.9102 99.404C56.0191 99.2038 56.1632 99.0288 56.3344 98.8891C56.5056 98.7494 56.7004 98.6478 56.9077 98.5899L100.881 86.2727C101.3 86.1555 101.744 86.2236 102.116 86.4621C102.488 86.7006 102.758 87.09 102.866 87.5445C102.974 87.999 102.911 88.4815 102.691 88.8857C102.472 89.29 102.113 89.583 101.695 89.7002Z" fill="#F2F2F2"/>
<path d="M37.6446 55.1532L24.386 58.867C24.1854 58.923 23.9725 58.8902 23.7941 58.7759C23.6157 58.6615 23.4863 58.475 23.4344 58.2572L20.3909 45.4381C20.3394 45.2201 20.3696 44.9889 20.4748 44.7951C20.5801 44.6014 20.7518 44.4608 20.9523 44.4044L34.2109 40.6906C34.4115 40.6347 34.6244 40.6675 34.8028 40.7818C34.9812 40.8961 35.1106 41.0826 35.1625 41.3004L38.206 54.1196C38.2575 54.3375 38.2273 54.5687 38.1221 54.7625C38.0168 54.9563 37.8451 55.0968 37.6446 55.1532Z" fill="#E6E6E6"/>
<path d="M43.7985 81.0735L30.5399 84.7873C30.3393 84.8432 30.1264 84.8105 29.948 84.6961C29.7696 84.5818 29.6403 84.3953 29.5883 84.1775L26.5448 71.3584C26.4933 71.1404 26.5235 70.9092 26.6288 70.7154C26.734 70.5217 26.9057 70.3811 27.1063 70.3247L40.3648 66.6109C40.5655 66.555 40.7783 66.5878 40.9567 66.7021C41.1351 66.8164 41.2645 67.0029 41.3164 67.2207L44.3599 80.0399C44.4114 80.2578 44.3812 80.489 44.276 80.6828C44.1707 80.8766 43.999 81.0171 43.7985 81.0735Z" fill="#E6E6E6"/>
<path d="M49.9525 106.994L36.6939 110.707C36.4933 110.763 36.2804 110.731 36.102 110.616C35.9236 110.502 35.7943 110.315 35.7423 110.098L32.6988 97.2785C32.6473 97.0606 32.6775 96.8294 32.7828 96.6356C32.888 96.4418 33.0597 96.3013 33.2603 96.2449L46.5188 92.5311C46.7194 92.4751 46.9323 92.5079 47.1107 92.6222C47.2891 92.7366 47.4185 92.9231 47.4704 93.1409L50.5139 105.96C50.5654 106.178 50.5352 106.409 50.43 106.603C50.3247 106.797 50.153 106.937 49.9525 106.994Z" fill="#E6E6E6"/>
<path d="M137.101 24.2897H60.5904C57.9962 24.2929 55.5092 25.4136 53.6749 27.406C51.8406 29.3984 50.8088 32.0998 50.8059 34.9175V132.5C50.8088 135.317 51.8406 138.019 53.6749 140.011C55.5092 142.003 57.9962 143.124 60.5904 143.127H137.101C139.695 143.124 142.182 142.003 144.016 140.011C145.851 138.019 146.882 135.317 146.885 132.5V34.9175C146.882 32.0998 145.851 29.3984 144.016 27.406C142.182 25.4136 139.695 24.2929 137.101 24.2897Z" fill="#E6E6E6"/>
<path d="M137.101 27.3493H60.5904C58.743 27.3516 56.972 28.1496 55.6657 29.5685C54.3595 30.9873 53.6247 32.911 53.6226 34.9176V132.5C53.6247 134.506 54.3595 136.43 55.6657 137.849C56.972 139.268 58.743 140.066 60.5904 140.068H137.101C138.948 140.066 140.719 139.267 142.026 137.849C143.332 136.43 144.067 134.506 144.069 132.5V34.9176C144.067 32.911 143.332 30.9873 142.026 29.5685C140.719 28.1497 138.948 27.3516 137.101 27.3493Z" fill="white"/>
<path d="M145.139 155C155.003 155 163 146.314 163 135.599C163 124.885 155.003 116.199 145.139 116.199C135.274 116.199 127.278 124.885 127.278 135.599C127.278 146.314 135.274 155 145.139 155Z" fill="#0EBAC5"/>
<path d="M125.586 80.9704H86.8951C86.681 80.9707 86.469 80.9251 86.2711 80.8362C86.0732 80.7474 85.8933 80.6171 85.7418 80.4527C85.5903 80.2884 85.4701 80.0932 85.3882 79.8783C85.3062 79.6635 85.2639 79.4332 85.2639 79.2006C85.2639 78.968 85.3062 78.7377 85.3882 78.5229C85.4701 78.308 85.5903 78.1128 85.7418 77.9485C85.8933 77.7841 86.0732 77.6538 86.2711 77.5649C86.469 77.4761 86.681 77.4305 86.8951 77.4308H125.586C126.018 77.4313 126.432 77.618 126.737 77.9498C127.042 78.2817 127.214 78.7315 127.214 79.2006C127.214 79.6696 127.042 80.1195 126.737 80.4513C126.432 80.7832 126.018 80.9699 125.586 80.9704Z" fill="#E6E6E6"/>
<path d="M132.307 86.9435H86.8951C86.681 86.9437 86.469 86.8982 86.2711 86.8093C86.0732 86.7205 85.8933 86.5902 85.7418 86.4258C85.5903 86.2614 85.4701 86.0663 85.3882 85.8514C85.3062 85.6366 85.2639 85.4063 85.2639 85.1737C85.2639 84.9411 85.3062 84.7108 85.3882 84.4959C85.4701 84.2811 85.5903 84.0859 85.7418 83.9215C85.8933 83.7572 86.0732 83.6268 86.2711 83.538C86.469 83.4492 86.681 83.4036 86.8951 83.4039H132.307C132.739 83.4039 133.154 83.5903 133.459 83.9222C133.765 84.2541 133.937 84.7043 133.937 85.1737C133.937 85.6431 133.765 86.0932 133.459 86.4251C133.154 86.757 132.739 86.9435 132.307 86.9435Z" fill="#E6E6E6"/>
<path d="M125.586 107.739H86.8951C86.681 107.739 86.469 107.693 86.2711 107.605C86.0732 107.516 85.8933 107.385 85.7418 107.221C85.5903 107.057 85.4701 106.861 85.3882 106.647C85.3062 106.432 85.2639 106.201 85.2639 105.969C85.2639 105.736 85.3062 105.506 85.3882 105.291C85.4701 105.076 85.5903 104.881 85.7418 104.717C85.8933 104.552 86.0732 104.422 86.2711 104.333C86.469 104.244 86.681 104.199 86.8951 104.199H125.586C126.018 104.199 126.433 104.386 126.738 104.717C127.044 105.049 127.215 105.5 127.215 105.969C127.215 106.438 127.044 106.888 126.738 107.22C126.433 107.552 126.018 107.739 125.586 107.739Z" fill="#E6E6E6"/>
<path d="M132.307 113.712H86.8951C86.681 113.712 86.469 113.666 86.2711 113.578C86.0732 113.489 85.8933 113.358 85.7418 113.194C85.5903 113.03 85.4701 112.835 85.3882 112.62C85.3062 112.405 85.2639 112.175 85.2639 111.942C85.2639 111.709 85.3062 111.479 85.3882 111.264C85.4701 111.049 85.5903 110.854 85.7418 110.69C85.8933 110.525 86.0732 110.395 86.2711 110.306C86.469 110.218 86.681 110.172 86.8951 110.172H132.307C132.521 110.172 132.733 110.218 132.931 110.306C133.129 110.395 133.309 110.525 133.46 110.69C133.612 110.854 133.732 111.049 133.814 111.264C133.896 111.479 133.938 111.709 133.938 111.942C133.938 112.175 133.896 112.405 133.814 112.62C133.732 112.835 133.612 113.03 133.46 113.194C133.309 113.358 133.129 113.489 132.931 113.578C132.733 113.666 132.521 113.712 132.307 113.712Z" fill="#E6E6E6"/>
<path d="M78.2282 89.655H64.5359C64.3288 89.6547 64.1302 89.5653 63.9837 89.4062C63.8373 89.2471 63.7549 89.0314 63.7546 88.8064V75.5679C63.7549 75.3429 63.8373 75.1272 63.9837 74.9681C64.1302 74.809 64.3288 74.7195 64.5359 74.7192H78.2282C78.4354 74.7195 78.634 74.809 78.7804 74.9681C78.9269 75.1272 79.0093 75.3429 79.0095 75.5679V88.8064C79.0093 89.0314 78.9269 89.2471 78.7804 89.4062C78.634 89.5653 78.4354 89.6547 78.2282 89.655Z" fill="#E6E6E6"/>
<path d="M78.2282 116.423H64.5359C64.3288 116.423 64.1302 116.334 63.9837 116.174C63.8373 116.015 63.7549 115.8 63.7546 115.575V102.336C63.7549 102.111 63.8373 101.895 63.9837 101.736C64.1302 101.577 64.3288 101.488 64.5359 101.488H78.2282C78.4354 101.488 78.634 101.577 78.7804 101.736C78.9269 101.895 79.0093 102.111 79.0095 102.336V115.575C79.0093 115.8 78.9269 116.015 78.7804 116.174C78.634 116.334 78.4354 116.423 78.2282 116.423Z" fill="#E6E6E6"/>
<path d="M125.629 51.172H97.1037C96.6716 51.172 96.2572 50.9855 95.9516 50.6536C95.646 50.3217 95.4744 49.8716 95.4744 49.4022C95.4744 48.9328 95.646 48.4826 95.9516 48.1507C96.2572 47.8188 96.6716 47.6324 97.1037 47.6324H125.629C126.061 47.6324 126.475 47.8188 126.781 48.1507C127.087 48.4826 127.258 48.9328 127.258 49.4022C127.258 49.8716 127.087 50.3217 126.781 50.6536C126.475 50.9855 126.061 51.172 125.629 51.172Z" fill="#CCCCCC"/>
<path d="M132.35 57.1451H97.1037C96.8898 57.1451 96.6779 57.0994 96.4802 57.0104C96.2825 56.9215 96.1029 56.7911 95.9516 56.6268C95.8003 56.4624 95.6803 56.2673 95.5984 56.0526C95.5165 55.8379 95.4744 55.6077 95.4744 55.3753C95.4744 55.1429 95.5165 54.9128 95.5984 54.6981C95.6803 54.4833 95.8003 54.2882 95.9516 54.1239C96.1029 53.9595 96.2825 53.8292 96.4802 53.7402C96.6779 53.6513 96.8898 53.6055 97.1037 53.6055H132.35C132.782 53.6055 133.197 53.792 133.502 54.1239C133.808 54.4558 133.979 54.9059 133.979 55.3753C133.979 55.8447 133.808 56.2949 133.502 56.6268C133.197 56.9587 132.782 57.1451 132.35 57.1451Z" fill="#CCCCCC"/>
<path d="M90.7906 64.3838H64.4929C64.2858 64.3835 64.0872 64.294 63.9407 64.1349C63.7942 63.9758 63.7118 63.7601 63.7116 63.5351V41.2424C63.7118 41.0174 63.7942 40.8017 63.9407 40.6426C64.0872 40.4835 64.2858 40.394 64.4929 40.3937H90.7906C90.9978 40.394 91.1964 40.4835 91.3428 40.6426C91.4893 40.8017 91.5717 41.0174 91.5719 41.2424V63.5351C91.5717 63.7601 91.4893 63.9758 91.3428 64.1349C91.1964 64.294 90.9978 64.3835 90.7906 64.3838Z" fill="#0EBAC5"/>
<path d="M154.679 133.033L146.975 123.129C146.765 122.86 146.504 122.643 146.207 122.492C145.911 122.341 145.587 122.26 145.258 122.254C144.929 122.248 144.603 122.318 144.302 122.459C144.001 122.599 143.732 122.807 143.515 123.069L135.276 132.972C134.879 133.45 134.678 134.075 134.716 134.71C134.755 135.345 135.031 135.938 135.483 136.358C135.935 136.778 136.526 136.991 137.127 136.951C137.728 136.911 138.288 136.62 138.686 136.143L142.949 131.019V143.867C142.949 144.504 143.189 145.114 143.615 145.564C144.041 146.015 144.618 146.268 145.22 146.268C145.823 146.268 146.4 146.015 146.826 145.564C147.252 145.114 147.492 144.504 147.492 143.867V131.352L151.171 136.082C151.554 136.574 152.105 136.885 152.705 136.946C153.304 137.008 153.903 136.816 154.368 136.411C154.833 136.007 155.127 135.424 155.186 134.79C155.244 134.157 155.062 133.524 154.679 133.033Z" fill="white"/>
</g>
<defs>
<filter id="filter0_d_1_61" x="0.00372314" y="0.00360107" width="166.996" height="162.996" filterUnits="userSpaceOnUse" color-interpolation-filters="sRGB">
<feFlood flood-opacity="0" result="BackgroundImageFix"/>
<feColorMatrix in="SourceAlpha" type="matrix" values="0 0 0 0 0 0 0 0 0 0 0 0 0 0 0 0 0 0 127 0" result="hardAlpha"/>
<feOffset dy="4"/>
<feGaussianBlur stdDeviation="2"/>
<feComposite in2="hardAlpha" operator="out"/>
<feColorMatrix type="matrix" values="0 0 0 0 0 0 0 0 0 0 0 0 0 0 0 0 0 0 0.25 0"/>
<feBlend mode="normal" in2="BackgroundImageFix" result="effect1_dropShadow_1_61"/>
<feBlend mode="normal" in="SourceGraphic" in2="effect1_dropShadow_1_61" result="shape"/>
</filter>
</defs>
</svg>
